<svg width="281" height="140" viewBox="0 0 281 140" fill="none" xmlns="http://www.w3.org/2000/svg">
<g clip-path="url(#clip0_28_540)">
<path d="M9.84591 34.8023V6.84587H0.333008V0.76062H25.7727V6.84587H16.2598V34.8023H9.83651H9.84591Z" fill="black"/>
<path d="M36.7505 6.84587V14.7342H50.3953V20.8194H36.7505V28.7077H51.9166V34.7929H30.3271V0.76062H51.9166V6.84587H36.7505Z" fill="black"/>
<path d="M86.6347 29.3369C84.9537 31.3653 82.9723 32.9148 80.6903 33.976C78.4083 35.0371 75.854 35.5724 73.0368 35.5724C70.5012 35.5724 68.1442 35.1123 65.9749 34.192C63.8056 33.2717 61.9274 32.0227 60.3404 30.4356C58.7533 28.8486 57.5044 26.9704 56.5841 24.8011C55.6638 22.6319 55.2036 20.2936 55.2036 17.7862C55.2036 15.2789 55.6638 12.9405 56.5841 10.7713C57.5044 8.60199 58.7533 6.72382 60.3404 5.13678C61.9274 3.54973 63.8056 2.30075 65.9749 1.38045C68.1442 0.46015 70.5012 0 73.0368 0C75.7601 0 78.1642 0.478932 80.2395 1.4274C82.3149 2.37588 84.1649 3.75633 85.7801 5.56875L81.2631 9.94487C80.2489 8.77102 79.0845 7.84133 77.7697 7.13702C76.455 6.4421 74.8962 6.09464 73.0837 6.09464C71.4967 6.09464 70.0129 6.37636 68.6137 6.93042C67.2145 7.48448 66.003 8.27331 64.9794 9.28752C63.9465 10.3017 63.1295 11.5319 62.5285 12.9687C61.9274 14.4149 61.6269 16.0207 61.6269 17.7956C61.6269 19.5705 61.9274 21.1763 62.5285 22.6225C63.1295 24.0687 63.9465 25.2895 64.9794 26.3037C66.0124 27.3179 67.2239 28.1067 68.6137 28.6608C70.0035 29.2148 71.4967 29.4966 73.0837 29.4966C74.9901 29.4966 76.671 29.1115 78.1454 28.3321C79.6197 27.5527 80.9251 26.4539 82.0707 25.0265L86.6347 29.3557V29.3369Z" fill="black"/>
<path d="M102.223 0.76062H115.539C116.995 0.76062 118.357 0.995391 119.624 1.44615C120.892 1.9063 121.991 2.53548 122.93 3.35249C123.869 4.1601 124.601 5.10857 125.137 6.17912C125.672 7.25907 125.944 8.41413 125.944 9.65372C125.944 11.4568 125.512 12.9781 124.639 14.1989C123.766 15.4197 122.686 16.3494 121.38 16.9786V17.3542C123.127 17.9928 124.526 18.9788 125.588 20.3217C126.649 21.674 127.184 23.3455 127.184 25.3364C127.184 26.792 126.893 28.1067 126.301 29.2617C125.719 30.4168 124.911 31.4122 123.897 32.2292C122.883 33.0556 121.7 33.6848 120.357 34.1356C119.014 34.577 117.558 34.8023 116.009 34.8023H102.223V0.76062ZM115.07 14.6402C116.563 14.6402 117.709 14.2364 118.516 13.4288C119.324 12.6212 119.728 11.6634 119.728 10.5552C119.728 9.44713 119.333 8.49865 118.535 7.70043C117.746 6.9116 116.647 6.5078 115.258 6.5078H108.646V14.6402H115.07ZM115.774 28.9049C117.389 28.9049 118.629 28.5011 119.483 27.6935C120.338 26.8859 120.77 25.8435 120.77 24.5757C120.77 23.308 120.338 22.2562 119.465 21.411C118.591 20.5752 117.305 20.1527 115.586 20.1527H108.646V28.9049H115.783H115.774Z" fill="black"/>
<path d="M138.218 33.6661L128.424 11.5131H135.505L141.402 25.6369H141.731L147.393 11.5131H154.333L139.74 45.0853H133.035L138.218 33.6754V33.6661Z" fill="black"/>
<path d="M36.432 90.699V81.025H68.821C69.15 82.733 69.346 84.756 69.346 86.954C69.346 94.213 67.358 103.194 60.967 109.585C54.751 116.067 46.806 119.518 36.264 119.518C16.748 119.518 0.333008 103.621 0.333008 84.098C0.333008 64.575 16.741 48.678 36.264 48.678C47.058 48.678 54.744 52.913 60.533 58.443L53.708 65.268C49.564 61.383 43.95 58.359 36.264 58.359C22.012 58.359 10.875 69.846 10.875 84.105C10.875 98.364 22.019 109.851 36.264 109.851C45.504 109.851 50.775 106.134 54.142 102.767C56.886 100.023 58.692 96.082 59.399 90.699H36.439H36.432Z" fill="black"/>
<path d="M118.689 96.719C118.689 109.851 108.413 119.525 95.806 119.525C83.199 119.525 72.916 109.851 72.916 96.719C72.916 83.587 83.192 73.913 95.806 73.913C108.42 73.913 118.689 83.503 118.689 96.719ZM108.672 96.719C108.672 88.515 102.715 82.894 95.806 82.894C88.897 82.894 82.94 88.508 82.94 96.719C82.94 104.93 88.897 110.544 95.806 110.544C102.715 110.544 108.672 104.846 108.672 96.719Z" fill="black"/>
<path d="M168.62 96.719C168.62 109.851 158.344 119.525 145.737 119.525C133.13 119.525 122.847 109.851 122.847 96.719C122.847 83.587 133.123 73.913 145.737 73.913C158.351 73.913 168.62 83.503 168.62 96.719ZM158.596 96.719C158.596 88.515 152.639 82.894 145.73 82.894C138.821 82.894 132.864 88.508 132.864 96.719C132.864 104.93 138.821 110.544 145.73 110.544C152.639 110.544 158.596 104.846 158.596 96.719Z" fill="black"/>
<path d="M216.472 75.292V116.242C216.472 133.091 206.539 140 194.793 140C183.74 140 177.09 132.573 174.584 126.525L183.306 122.899C184.86 126.616 188.661 131.019 194.793 131.019C202.304 131.019 206.973 126.357 206.973 117.628V114.345H206.63C204.383 117.11 200.064 119.525 194.625 119.525C183.222 119.525 172.771 109.592 172.771 96.803C172.771 84.014 183.222 73.913 194.625 73.913C200.064 73.913 204.383 76.335 206.63 79.009H206.973V75.292H216.472ZM207.666 96.803C207.666 88.767 202.311 82.894 195.486 82.894C188.661 82.894 182.788 88.767 182.788 96.803C182.788 104.839 188.577 110.537 195.486 110.537C202.395 110.537 207.666 104.748 207.666 96.803Z" fill="black"/>
<path d="M233.44 51.331V118.146H223.423V51.331H233.44Z" fill="black"/>
<path d="M272.129 104.237L279.899 109.417C277.393 113.134 271.352 119.525 260.901 119.525C247.944 119.525 238.277 109.501 238.277 96.719C238.277 83.153 248.035 73.913 259.781 73.913C271.527 73.913 277.4 83.328 279.297 88.424L280.333 91.014L249.848 103.628C252.179 108.206 255.805 110.537 260.901 110.537C265.997 110.537 269.539 108.031 272.129 104.23V104.237ZM248.203 96.026L268.587 87.563C267.467 84.714 264.093 82.726 260.124 82.726C255.028 82.726 247.944 87.22 248.203 96.033V96.026Z" fill="black"/>
</g>
<defs>
<clipPath id="clip0_28_540">
<rect width="280" height="140" fill="white" transform="translate(0.333008)"/>
</clipPath>
</defs>
</svg>
