<svg width="400" height="200" viewBox="0 0 400 200" fill="none" xmlns="http://www.w3.org/2000/svg">
<g clip-path="url(#clip0_28_200)">
<path d="M13.5899 49.7176V9.77982H0V1.08661H36.3425V9.77982H22.7526V49.7176H13.5764H13.5899Z" fill="white"/>
<path d="M52.025 9.77982V21.0488H71.5177V29.742H52.025V41.011H73.691V49.7042H42.8489V1.08661H73.691V9.77982H52.025Z" fill="white"/>
<path d="M123.288 41.9099C120.887 44.8076 118.056 47.0212 114.796 48.5371C111.536 50.053 107.887 50.8177 103.862 50.8177C100.24 50.8177 96.873 50.1604 93.774 48.8457C90.675 47.5309 87.9919 45.7467 85.7247 43.4795C83.4575 41.2123 81.6733 38.5292 80.3585 35.4302C79.0438 32.3312 78.3865 28.9908 78.3865 25.4089C78.3865 21.8269 79.0438 18.4865 80.3585 15.3875C81.6733 12.2886 83.4575 9.60546 85.7247 7.33825C87.9919 5.07104 90.675 3.28679 93.774 1.97207C96.873 0.657357 100.24 0 103.862 0C107.753 0 111.187 0.684188 114.152 2.03915C117.117 3.39411 119.76 5.36618 122.067 7.95536L115.614 14.207C114.165 12.53 112.502 11.2019 110.624 10.1957C108.746 9.203 106.519 8.70663 103.929 8.70663C101.662 8.70663 99.5426 9.10909 97.5437 9.9006C95.5448 10.6921 93.8142 11.819 92.352 13.2679C90.8763 14.7168 89.7091 16.4742 88.8505 18.5267C87.9919 20.5927 87.5626 22.8868 87.5626 25.4223C87.5626 27.9578 87.9919 30.2518 88.8505 32.3178C89.7091 34.3838 90.8763 36.1278 92.352 37.5767C93.8277 39.0255 95.5583 40.1524 97.5437 40.944C99.5292 41.7355 101.662 42.1379 103.929 42.1379C106.653 42.1379 109.054 41.5879 111.16 40.4744C113.267 39.3609 115.131 37.7913 116.768 35.7522L123.288 41.9367V41.9099Z" fill="white"/>
<path d="M145.558 1.08661H164.581C166.66 1.08661 168.605 1.422 170.416 2.06594C172.228 2.72329 173.797 3.62213 175.139 4.78927C176.48 5.943 177.527 7.29796 178.291 8.82732C179.056 10.3701 179.445 12.0202 179.445 13.791C179.445 16.3668 178.828 18.5401 177.58 20.2841C176.333 22.0281 174.79 23.3563 172.925 24.2551V24.7917C175.42 25.704 177.419 27.1126 178.935 29.031C180.451 30.9628 181.216 33.3508 181.216 36.1948C181.216 38.2742 180.8 40.1524 179.955 41.8025C179.123 43.4526 177.969 44.8746 176.52 46.0418C175.072 47.2223 173.381 48.1212 171.463 48.7651C169.544 49.3956 167.465 49.7176 165.252 49.7176H145.558V1.08661ZM163.91 20.9146C166.043 20.9146 167.68 20.3378 168.833 19.1841C169.987 18.0303 170.564 16.6619 170.564 15.0789C170.564 13.4959 170.001 12.1409 168.86 11.0006C167.733 9.87373 166.164 9.29686 164.178 9.29686H154.734V20.9146H163.91ZM164.916 41.2927C167.224 41.2927 168.994 40.7159 170.215 39.5621C171.436 38.4084 172.053 36.9193 172.053 35.1082C172.053 33.2971 171.436 31.7946 170.188 30.5872C168.941 29.3932 167.103 28.7895 164.648 28.7895H154.734V41.2927H164.93H164.916Z" fill="white"/>
<path d="M196.979 48.0944L182.987 16.4474H193.102L201.527 36.6242H201.997L210.086 16.4474H220L199.152 64.4076H189.574L196.979 48.1079V48.0944Z" fill="white"/>
<path d="M51.57 129.57V115.75H97.84C98.31 118.19 98.59 121.08 98.59 124.22C98.59 134.59 95.75 147.42 86.62 156.55C77.74 165.81 66.39 170.74 51.33 170.74C23.45 170.74 0 148.03 0 120.14C0 92.25 23.44 69.54 51.33 69.54C66.75 69.54 77.73 75.59 86 83.49L76.25 93.24C70.33 87.69 62.31 83.37 51.33 83.37C30.97 83.37 15.06 99.78 15.06 120.15C15.06 140.52 30.98 156.93 51.33 156.93C64.53 156.93 72.06 151.62 76.87 146.81C80.79 142.89 83.37 137.26 84.38 129.57H51.58H51.57Z" fill="#4285F4"/>
<path d="M169.08 138.17C169.08 156.93 154.4 170.75 136.39 170.75C118.38 170.75 103.69 156.93 103.69 138.17C103.69 119.41 118.37 105.59 136.39 105.59C154.41 105.59 169.08 119.29 169.08 138.17ZM154.77 138.17C154.77 126.45 146.26 118.42 136.39 118.42C126.52 118.42 118.01 126.44 118.01 138.17C118.01 149.9 126.52 157.92 136.39 157.92C146.26 157.92 154.77 149.78 154.77 138.17Z" fill="#EA4335"/>
<path d="M240.41 138.17C240.41 156.93 225.73 170.75 207.72 170.75C189.71 170.75 175.02 156.93 175.02 138.17C175.02 119.41 189.7 105.59 207.72 105.59C225.74 105.59 240.41 119.29 240.41 138.17ZM226.09 138.17C226.09 126.45 217.58 118.42 207.71 118.42C197.84 118.42 189.33 126.44 189.33 138.17C189.33 149.9 197.84 157.92 207.71 157.92C217.58 157.92 226.09 149.78 226.09 138.17Z" fill="#FBBC04"/>
<path d="M308.77 107.56V166.06C308.77 190.13 294.58 200 277.8 200C262.01 200 252.51 189.39 248.93 180.75L261.39 175.57C263.61 180.88 269.04 187.17 277.8 187.17C288.53 187.17 295.2 180.51 295.2 168.04V163.35H294.71C291.5 167.3 285.33 170.75 277.56 170.75C261.27 170.75 246.34 156.56 246.34 138.29C246.34 120.02 261.27 105.59 277.56 105.59C285.33 105.59 291.5 109.05 294.71 112.87H295.2V107.56H308.77ZM296.19 138.29C296.19 126.81 288.54 118.42 278.79 118.42C269.04 118.42 260.65 126.81 260.65 138.29C260.65 149.77 268.92 157.91 278.79 157.91C288.66 157.91 296.19 149.64 296.19 138.29Z" fill="#4285F4"/>
<path d="M333.01 73.33V168.78H318.7V73.33H333.01Z" fill="#34A853"/>
<path d="M388.28 148.91L399.38 156.31C395.8 161.62 387.17 170.75 372.24 170.75C353.73 170.75 339.92 156.43 339.92 138.17C339.92 118.79 353.86 105.59 370.64 105.59C387.42 105.59 395.81 119.04 398.52 126.32L400 130.02L356.45 148.04C359.78 154.58 364.96 157.91 372.24 157.91C379.52 157.91 384.58 154.33 388.28 148.9V148.91ZM354.1 137.18L383.22 125.09C381.62 121.02 376.8 118.18 371.13 118.18C363.85 118.18 353.73 124.6 354.1 137.19V137.18Z" fill="#EA4335"/>
</g>
<defs>
<clipPath id="clip0_28_200">
<rect width="400" height="200" fill="white"/>
</clipPath>
</defs>
</svg>
