<svg width="281" height="82" viewBox="0 0 281 82" fill="none" xmlns="http://www.w3.org/2000/svg">
<g clip-path="url(#clip0_30_2494)">
<path d="M5.45189 19.0343V4.48167H0.5V1.31403H13.7425V4.48167H8.79063V19.0343H5.447H5.45189Z" fill="white"/>
<path d="M19.4574 4.48167V8.58788H26.5602V11.7555H19.4574V15.8617H27.3521V19.0294H16.1138V1.31403H27.3521V4.48167H19.4574Z" fill="white"/>
<path d="M45.4238 16.1892C44.5488 17.2451 43.5173 18.0517 42.3295 18.604C41.1416 19.1564 39.812 19.4351 38.3455 19.4351C37.0256 19.4351 35.7986 19.1955 34.6694 18.7165C33.5402 18.2374 32.5626 17.5873 31.7364 16.7611C30.9103 15.935 30.2601 14.9573 29.7811 13.8281C29.302 12.6989 29.0625 11.4817 29.0625 10.1765C29.0625 8.87136 29.302 7.65416 29.7811 6.52496C30.2601 5.39575 30.9103 4.41808 31.7364 3.59195C32.5626 2.76582 33.5402 2.11567 34.6694 1.63662C35.7986 1.15756 37.0256 0.91803 38.3455 0.91803C39.7631 0.91803 41.0145 1.16734 42.0948 1.66106C43.1751 2.15478 44.1381 2.87337 44.9789 3.81682L42.6276 6.09478C42.0997 5.48374 41.4936 4.99979 40.8092 4.63317C40.1248 4.27143 39.3134 4.09056 38.3699 4.09056C37.5438 4.09056 36.7714 4.23721 36.0431 4.52563C35.3147 4.81404 34.6841 5.22466 34.1513 5.7526C33.6135 6.28054 33.1883 6.92091 32.8754 7.66883C32.5626 8.42163 32.4061 9.25754 32.4061 10.1814C32.4061 11.1053 32.5626 11.9412 32.8754 12.694C33.1883 13.4468 33.6135 14.0823 34.1513 14.6103C34.689 15.1382 35.3196 15.5488 36.0431 15.8372C36.7665 16.1257 37.5438 16.2723 38.3699 16.2723C39.3622 16.2723 40.2372 16.0719 41.0047 15.6662C41.7722 15.2604 42.4517 14.6885 43.048 13.9455L45.4238 16.199V16.1892Z" fill="white"/>
<path d="M53.5386 1.31403H60.4702C61.2279 1.31403 61.9367 1.43623 62.5967 1.67087C63.2566 1.9104 63.8285 2.23792 64.3174 2.66321C64.8062 3.08361 65.1875 3.57733 65.4661 4.1346C65.7448 4.69676 65.8865 5.29802 65.8865 5.94328C65.8865 6.88185 65.6617 7.67376 65.207 8.30924C64.7524 8.94473 64.1903 9.42867 63.5108 9.75619V9.95172C64.42 10.2841 65.1484 10.7974 65.7008 11.4964C66.2532 12.2004 66.5318 13.0705 66.5318 14.1068C66.5318 14.8645 66.3802 15.5489 66.0723 16.1501C65.7692 16.7514 65.3488 17.2696 64.8209 17.6949C64.2929 18.125 63.677 18.4525 62.978 18.6872C62.2789 18.9169 61.5212 19.0343 60.7147 19.0343H53.5386V1.31403ZM60.2258 8.53899C61.0031 8.53899 61.5994 8.32879 62.0198 7.9084C62.4402 7.488 62.6504 6.98939 62.6504 6.41257C62.6504 5.83574 62.4451 5.34202 62.0296 4.92651C61.619 4.51589 61.0471 4.30569 60.3236 4.30569H56.8822V8.53899H60.2258ZM60.5925 15.9644C61.4332 15.9644 62.0785 15.7542 62.5233 15.3338C62.9682 14.9134 63.193 14.3708 63.193 13.7109C63.193 13.0509 62.9682 12.5034 62.5136 12.0635C62.059 11.6284 61.3893 11.4084 60.4947 11.4084H56.8822V15.9644H60.5973H60.5925Z" fill="white"/>
<path d="M72.2758 18.4427L67.1772 6.91113H70.8631L73.9329 14.2632H74.104L77.0517 6.91113H80.6642L73.0677 24.387H69.5774L72.2758 18.4476V18.4427Z" fill="white"/>
<path d="M21.1703 52.8523V47.3129H39.7162C39.9046 48.2909 40.0168 49.4493 40.0168 50.7079C40.0168 54.8644 38.8785 60.0069 35.219 63.6664C31.6597 67.378 27.1104 69.354 21.0741 69.354C9.89922 69.354 0.5 60.2514 0.5 49.0725C0.5 37.8937 9.89521 28.7911 21.0741 28.7911C27.2547 28.7911 31.6557 31.216 34.9705 34.3825L31.0625 38.2905C28.6896 36.0659 25.4751 34.3344 21.0741 34.3344C12.9134 34.3344 6.53634 40.9119 6.53634 49.0766C6.53634 57.2412 12.9174 63.8187 21.0741 63.8187C26.3649 63.8187 29.3831 61.6903 31.311 59.7624C32.8822 58.1912 33.9163 55.9346 34.3212 52.8523H21.1743H21.1703Z" fill="white"/>
<path d="M68.2706 56.2993C68.2706 63.8187 62.3866 69.358 55.1678 69.358C47.9491 69.358 42.061 63.8187 42.061 56.2993C42.061 48.7799 47.9451 43.2406 55.1678 43.2406C62.3906 43.2406 68.2706 48.7318 68.2706 56.2993ZM62.5349 56.2993C62.5349 51.6017 59.1239 48.3831 55.1678 48.3831C51.2117 48.3831 47.8008 51.5977 47.8008 56.2993C47.8008 61.0009 51.2117 64.2155 55.1678 64.2155C59.1239 64.2155 62.5349 60.9528 62.5349 56.2993Z" fill="white"/>
<path d="M96.8614 56.2993C96.8614 63.8187 90.9774 69.358 83.7587 69.358C76.5399 69.358 70.6519 63.8187 70.6519 56.2993C70.6519 48.7799 76.5359 43.2406 83.7587 43.2406C90.9814 43.2406 96.8614 48.7318 96.8614 56.2993ZM91.1217 56.2993C91.1217 51.6017 87.7107 48.3831 83.7546 48.3831C79.7986 48.3831 76.3876 51.5977 76.3876 56.2993C76.3876 61.0009 79.7986 64.2155 83.7546 64.2155C87.7107 64.2155 91.1217 60.9528 91.1217 56.2993Z" fill="white"/>
<path d="M124.261 44.0302V67.4782C124.261 77.1259 118.573 81.082 111.848 81.082C105.519 81.082 101.711 76.8293 100.276 73.3662L105.27 71.29C106.16 73.4183 108.336 75.9395 111.848 75.9395C116.148 75.9395 118.822 73.27 118.822 68.2718V66.3919H118.625C117.339 67.9752 114.866 69.358 111.751 69.358C105.222 69.358 99.2378 63.6704 99.2378 56.3474C99.2378 49.0244 105.222 43.2406 111.751 43.2406C114.866 43.2406 117.339 44.6274 118.625 46.1586H118.822V44.0302H124.261ZM119.219 56.3474C119.219 51.746 116.152 48.3831 112.244 48.3831C108.336 48.3831 104.974 51.746 104.974 56.3474C104.974 60.9488 108.288 64.2115 112.244 64.2115C116.2 64.2115 119.219 60.8967 119.219 56.3474Z" fill="white"/>
<path d="M133.977 30.3101V68.5683H128.241V30.3101H133.977Z" fill="white"/>
<path d="M156.13 60.6041L160.579 63.5702C159.144 65.6985 155.685 69.358 149.701 69.358C142.282 69.358 136.747 63.6183 136.747 56.2993C136.747 48.5314 142.334 43.2406 149.06 43.2406C155.786 43.2406 159.148 48.6316 160.235 51.5496L160.828 53.0326L143.372 60.2554C144.707 62.8767 146.783 64.2115 149.701 64.2115C152.619 64.2115 154.647 62.7765 156.13 60.6001V60.6041ZM142.43 55.9025L154.102 51.0566C153.461 49.4252 151.529 48.2869 149.256 48.2869C146.338 48.2869 142.282 50.8602 142.43 55.9065V55.9025Z" fill="white"/>
</g>
<line x1="185.278" y1="0.91803" x2="185.278" y2="81.0819" stroke="white" stroke-width="0.801639"/>
<path d="M244.562 4.92627L245.561 6.93606L247.801 7.25991L246.181 8.82202L246.566 11.0318L244.562 9.98884L242.558 11.0318L242.943 8.82202L241.323 7.25991L243.562 6.93606L244.562 4.92627Z" fill="white"/>
<path d="M259.28 8.65051L260.28 10.6603L262.519 10.9794L260.9 12.5463L261.284 14.7561L259.28 13.7131L257.276 14.7561L257.661 12.5463L256.042 10.9794L258.276 10.6603L259.28 8.65051Z" fill="white"/>
<path d="M270.568 17.7041L271.567 19.7139L273.806 20.033L272.187 21.5998L272.567 23.8097L270.568 22.7667L268.564 23.8097L268.944 21.5998L267.324 20.033L269.563 19.7139L270.568 17.7041Z" fill="white"/>
<path d="M277.012 30.663L278.016 32.6727L280.25 32.9966L278.631 34.5587L279.015 36.7685L277.012 35.7255L275.008 36.7685L275.392 34.5587L273.773 32.9966L276.012 32.6727L277.012 30.663Z" fill="white"/>
<path d="M277.262 45.7078L278.261 47.7176L280.5 48.0366L278.881 49.6035L279.265 51.8133L277.262 50.7703L275.258 51.8133L275.642 49.6035L274.018 48.0366L276.257 47.7176L277.262 45.7078Z" fill="white"/>
<path d="M270.578 58.7285L271.582 60.7383L273.816 61.0622L272.197 62.6243L272.581 64.8341L270.578 63.7911L268.574 64.8341L268.958 62.6243L267.339 61.0622L269.578 60.7383L270.578 58.7285Z" fill="white"/>
<path d="M259.352 67.7916L260.352 69.8014L262.591 70.1205L260.972 71.6874L261.351 73.8972L259.352 72.8542L257.349 73.8972L257.733 71.6874L256.109 70.1205L258.348 69.8014L259.352 67.7916Z" fill="white"/>
<path d="M244.557 70.9682L245.556 72.978L247.796 73.3018L246.176 74.8687L246.561 77.0738L244.557 76.0308L242.553 77.0738L242.938 74.8687L241.313 73.3018L243.553 72.978L244.557 70.9682Z" fill="white"/>
<path d="M230.088 67.7963L231.093 69.8061L233.327 70.13L231.708 71.6968L232.092 73.9019L230.088 72.8589L228.085 73.9019L228.469 71.6968L226.85 70.13L229.089 69.8061L230.088 67.7963Z" fill="white"/>
<path d="M218.854 58.7476L219.858 60.7573L222.097 61.0764L220.473 62.6433L220.858 64.8531L218.854 63.8101L216.855 64.8531L217.235 62.6433L215.615 61.0764L217.854 60.7573L218.854 58.7476Z" fill="white"/>
<path d="M212.165 45.803L213.164 47.8128L215.404 48.1366L213.784 49.6987L214.169 51.9085L212.165 50.8655L210.161 51.9085L210.546 49.6987L208.926 48.1366L211.166 47.8128L212.165 45.803Z" fill="white"/>
<path d="M212.165 30.663L213.164 32.6727L215.404 32.9966L213.784 34.5587L214.169 36.7685L212.165 35.7255L210.161 36.7685L210.546 34.5587L208.926 32.9966L211.166 32.6727L212.165 30.663Z" fill="white"/>
<path d="M218.517 17.7184L219.517 19.7282L221.756 20.052L220.137 21.6141L220.516 23.8239L218.517 22.781L216.514 23.8239L216.893 21.6141L215.274 20.052L217.513 19.7282L218.517 17.7184Z" fill="white"/>
<path d="M230.069 8.66003L231.074 10.6698L233.313 10.9889L231.689 12.5558L232.073 14.7656L230.069 13.7226L228.066 14.7656L228.45 12.5558L226.831 10.9889L229.07 10.6698L230.069 8.66003Z" fill="white"/>
<path d="M261.722 46.2173C261.722 46.2173 261.702 46.2126 261.688 46.2126C261.529 46.2126 261.409 46.3316 261.409 46.4888C261.409 46.646 261.529 46.765 261.688 46.765C261.697 46.765 261.707 46.7603 261.722 46.7603C261.731 46.7603 261.741 46.765 261.755 46.765C261.899 46.765 262.034 46.646 262.034 46.4888C262.034 46.3316 261.899 46.2126 261.755 46.2126C261.746 46.2126 261.731 46.2173 261.722 46.2173Z" fill="white"/>
<path d="M264.811 42.355C264.811 42.355 264.34 42.4407 264.134 42.6074C264.033 42.6883 263.889 42.7312 263.74 42.7693C263.812 42.6264 263.855 42.455 263.841 42.2407C263.792 41.7358 263.792 40.9119 263.792 40.9119C263.792 40.9119 263.624 41.4167 263.384 41.5358C263.129 41.6549 262.673 41.8216 262.586 41.993C262.5 42.1597 262.164 42.1597 262.029 42.6645C261.909 43.1551 261.909 43.117 261.822 43.2884C261.798 43.3408 261.755 43.3979 261.717 43.4599C261.875 42.7026 261.995 41.9216 261.995 41.2548C261.995 41.1357 261.995 41.0262 261.991 40.9119C262.115 40.8119 262.284 40.6357 262.284 40.6357C262.389 40.4595 263.687 40.0213 263.869 39.6737C264.052 39.3403 264.148 39.0974 264.23 38.9545C264.302 38.7973 264.47 38.2592 264.436 38.0211C264.412 37.7829 264.374 36.8828 264.292 36.7399C264.292 36.7399 263.893 36.9447 263.759 37.1495C263.72 37.2019 263.672 37.2495 263.615 37.2972C263.615 37.1781 263.6 37.0543 263.552 36.9352C263.37 36.4923 263.096 35.9065 263.096 35.9065C263.096 35.9065 262.855 36.278 262.721 36.5066C262.505 36.94 262.284 36.9733 262.25 37.14C262.226 37.321 261.962 37.4257 261.866 37.7734C261.832 37.8972 261.813 37.983 261.798 38.0496C261.702 37.3114 261.577 36.6352 261.438 36.0303C261.5 35.8351 261.568 35.4112 261.745 35.2731C262 35.0588 262.034 34.7682 262.034 34.4349C262.034 34.1015 261.962 33.8586 261.914 33.6443C261.875 33.4395 261.236 32.568 261.284 32.3155C261.284 32.3155 260.972 33.0252 260.852 33.3014C260.539 32.9918 260.054 32.6299 259.79 32.4965C259.631 32.2251 259.468 31.9488 259.304 31.6726C259.314 31.5916 259.328 31.4202 259.357 31.2392C259.405 30.9868 259.492 30.5677 259.405 30.3629C259.319 30.1581 259.151 29.9914 259.069 29.739C258.982 29.4866 258.949 29.3199 258.728 29.1151C258.521 28.9008 258.223 28.6103 258.223 28.6103C258.223 28.6103 258.142 28.9818 258.065 29.2818C257.988 29.2437 257.906 29.2151 257.848 29.2009C257.8 29.1818 257.69 29.1294 257.575 29.0627C257.43 28.8675 257.286 28.6817 257.156 28.5151C257.229 28.4674 257.281 28.3865 257.281 28.2864C257.281 28.1293 257.161 28.0102 257.003 28.0102C256.844 28.0102 256.724 28.1293 256.724 28.2864C256.724 28.4436 256.844 28.5627 257.003 28.5627C257.06 28.5627 257.108 28.5436 257.152 28.5151C257.19 28.5722 257.301 28.7437 257.464 29.0008C257.329 28.9294 257.195 28.8532 257.137 28.8151C257.027 28.7437 256.969 29.5628 257.219 30.02C257.181 30.0105 257.137 29.9962 257.099 29.9867C256.589 29.8533 256.133 29.9009 256.133 29.9009C256.253 29.9009 256.556 30.2248 256.589 30.3915C256.638 30.5582 256.931 30.9439 257.099 31.0154C257.267 31.1011 257.56 31.3154 257.728 31.4821C257.896 31.6488 258.42 31.6869 258.79 31.6869C258.939 31.7583 259.074 31.8012 259.16 31.7774C259.314 32.0441 259.473 32.3155 259.622 32.5822C259.574 32.787 259.497 33.1538 259.525 33.3014C259.319 33.2681 258.608 33.0966 258.608 33.0966C258.675 33.5062 258.795 33.9205 258.973 34.1396C258.934 34.1777 258.906 34.2253 258.891 34.2825C258.877 34.3682 258.901 34.4587 258.949 34.5349C258.958 34.5444 259.112 34.7825 259.348 34.8635L255.893 37.2733C256.167 33.2014 255.672 29.2961 255.556 28.4436C255.974 28.2865 255.864 28.1007 255.864 28.1007L255.7 27.6959C255.744 27.7149 255.792 27.7292 255.835 27.7292C255.912 27.7292 255.979 27.7007 256.032 27.6483C256.138 27.534 256.114 27.3435 255.984 27.2292C255.979 27.2196 255.873 27.1101 255.72 27.0387L256.21 26.9672L256.493 25.7861L255.335 26.1767L255.311 26.672C255.23 26.5243 255.109 26.4338 255.105 26.4291C254.97 26.31 254.778 26.3052 254.677 26.4195C254.571 26.5338 254.595 26.7243 254.725 26.8386C254.735 26.8482 254.922 27.0196 255.153 27.0625C255.153 27.072 255.162 27.0863 255.167 27.0958L249.372 33.4252L245.523 27.053C245.758 25.5099 244.922 23.162 244.889 23.0715C244.937 22.8667 244.966 22.6524 244.956 22.4381C245.22 22.3523 245.302 22.1476 245.321 22.0761C245.321 22.0761 245.326 22.0666 245.331 22.0618C245.331 22.0618 245.331 22.0618 245.331 22.0571V22.0475C245.331 22.0475 245.057 21.7142 244.889 21.557C244.975 21.576 245.057 21.5808 245.095 21.5808C245.11 21.5808 245.119 21.5808 245.119 21.5808C245.297 21.5808 245.441 21.457 245.441 21.2998C245.441 21.1427 245.297 21.0236 245.124 21.0236C245.124 21.0236 244.961 21.0093 244.797 21.0617L245.115 20.6807L244.519 19.6187L243.928 20.6807L244.245 21.0617C244.081 21.0093 243.932 21.0236 243.923 21.0236C243.827 21.0236 243.74 21.0569 243.678 21.1188C243.625 21.1712 243.601 21.2331 243.601 21.2998C243.601 21.3665 243.63 21.4332 243.678 21.4856C243.74 21.5475 243.827 21.5808 243.918 21.5808C243.918 21.5808 243.928 21.5808 243.947 21.5808C243.981 21.5808 244.043 21.5761 244.115 21.5618C244.014 21.6523 243.889 21.7951 243.803 21.8951C243.764 21.9285 243.735 21.9618 243.721 21.9904C243.707 22.0047 243.702 22.0142 243.702 22.0142C243.702 22.0142 243.702 22.0333 243.716 22.0571C243.716 22.0666 243.716 22.0761 243.716 22.0809C243.769 22.1857 243.832 22.2476 243.894 22.2904C243.452 23.1001 242.366 25.4527 242.995 27.9054L239.67 33.4157L233.856 27.0625C234.106 27.0339 234.312 26.8434 234.317 26.8339C234.389 26.772 234.428 26.6862 234.433 26.6005C234.433 26.5291 234.413 26.4624 234.365 26.4148C234.317 26.3624 234.255 26.3338 234.183 26.3338C234.101 26.3338 234.005 26.3624 233.942 26.4195C233.933 26.4243 233.813 26.5196 233.726 26.6672L233.702 26.1719L232.544 25.7814L232.828 26.9625L233.323 27.0339C233.169 27.1006 233.063 27.2149 233.058 27.2196C232.991 27.2816 232.948 27.3673 232.943 27.453C232.943 27.5244 232.962 27.5911 233.01 27.6387C233.053 27.6864 233.121 27.7197 233.193 27.7197C233.193 27.7197 233.202 27.7197 233.207 27.7197C233.255 27.7197 233.299 27.7054 233.342 27.6864L233.178 28.0912C233.178 28.0912 233.068 28.2769 233.486 28.4341C233.366 29.2866 232.876 33.1871 233.15 37.2638L229.695 34.854C229.93 34.773 230.084 34.5396 230.089 34.5301C230.137 34.4634 230.161 34.3825 230.151 34.3015C230.146 34.2348 230.117 34.1825 230.069 34.1396C230.252 33.9205 230.372 33.5062 230.439 33.0918C230.439 33.0918 229.728 33.2585 229.522 33.2966C229.546 33.1538 229.469 32.787 229.426 32.5775C229.579 32.306 229.733 32.0393 229.887 31.7726C229.973 31.7964 230.108 31.7536 230.257 31.6821C230.632 31.6821 231.155 31.644 231.324 31.4773C231.492 31.3107 231.785 31.0963 231.953 31.0106C232.121 30.9392 232.414 30.5534 232.462 30.3867C232.496 30.22 232.799 29.8962 232.919 29.8962C232.919 29.8962 232.462 29.8486 231.953 29.9819C231.915 29.9914 231.876 30.001 231.833 30.0152C232.083 29.558 232.025 28.7389 231.915 28.8103C231.852 28.8484 231.722 28.9246 231.588 28.9961C231.751 28.7389 231.862 28.5674 231.9 28.5103C231.943 28.5389 231.992 28.5579 232.049 28.5579C232.208 28.5579 232.328 28.4389 232.328 28.2817C232.328 28.1245 232.208 28.0055 232.049 28.0055C231.891 28.0055 231.77 28.1245 231.77 28.2817C231.77 28.3817 231.823 28.4579 231.895 28.5103C231.761 28.6722 231.622 28.858 231.477 29.058C231.362 29.1199 231.252 29.177 231.203 29.1961C231.146 29.2104 231.069 29.239 230.992 29.2771C230.915 28.977 230.833 28.6055 230.833 28.6055C230.833 28.6055 230.531 28.8913 230.324 29.1104C230.108 29.3152 230.069 29.4818 229.988 29.7343C229.901 29.9867 229.733 30.1534 229.651 30.3581C229.565 30.5629 229.651 30.982 229.699 31.2345C229.723 31.4154 229.743 31.5916 229.752 31.6678C229.584 31.9441 229.421 32.2155 229.262 32.4918C228.993 32.6251 228.513 32.9871 228.2 33.2966C228.08 33.0204 227.768 32.3108 227.768 32.3108C227.816 32.5632 227.177 33.4347 227.138 33.6395C227.09 33.8538 227.018 34.092 227.018 34.4301C227.018 34.7682 227.057 35.054 227.306 35.2683C227.479 35.4064 227.551 35.8303 227.614 36.0256C227.475 36.6304 227.35 37.3067 227.254 38.0449C227.244 37.9782 227.22 37.8925 227.186 37.7686C227.09 37.421 226.821 37.3114 226.802 37.1352C226.763 36.9685 226.547 36.9304 226.331 36.5018C226.196 36.2732 225.956 35.9017 225.956 35.9017C225.956 35.9017 225.677 36.4875 225.495 36.9304C225.452 37.0495 225.432 37.1686 225.432 37.2924C225.375 37.2495 225.327 37.2019 225.288 37.1448C225.154 36.94 224.755 36.7352 224.755 36.7352C224.668 36.878 224.635 37.7782 224.611 38.0163C224.572 38.2544 224.745 38.7926 224.817 38.9497C224.904 39.0926 225 39.3307 225.183 39.6689C225.365 40.0166 226.658 40.4547 226.768 40.6309C226.768 40.6309 226.936 40.8119 227.061 40.9071C227.061 41.0214 227.057 41.131 227.057 41.25C227.057 41.9168 227.177 42.6979 227.335 43.4551C227.292 43.3932 227.254 43.336 227.23 43.2836C227.143 43.117 227.143 43.1503 227.023 42.6598C226.888 42.1549 226.552 42.1549 226.465 41.9882C226.379 41.8216 225.923 41.6501 225.668 41.531C225.428 41.412 225.255 40.9071 225.255 40.9071C225.255 40.9071 225.255 41.7311 225.207 42.2359C225.192 42.4502 225.235 42.6264 225.307 42.7645C225.163 42.7264 225.014 42.6836 224.913 42.6026C224.707 42.4359 224.236 42.3502 224.236 42.3502C224.197 42.5169 224.452 43.4408 224.491 43.6789C224.539 43.9314 224.865 44.4314 225 44.5505C225.12 44.6838 225.293 44.8839 225.581 45.1744C225.884 45.4744 226.643 45.5316 227.479 45.8078C227.797 45.9126 227.979 46.1126 228.07 46.2507C228.099 46.3555 228.128 46.4507 228.143 46.5174C228.239 46.8794 228.359 47.3223 228.508 47.8033C228.272 47.4937 227.869 47.4175 227.398 47.3461C227.109 47.2985 225.971 47.0127 225.971 47.0127C226.24 47.2127 226.408 47.7604 226.576 48.2605C225.923 48.1271 225.255 48.2605 225.255 48.2605C225.375 48.3414 226.259 49.0987 226.379 49.5178C226.514 49.9226 226.97 50.6798 227.09 50.7608C227.225 50.8465 227.6 51.299 227.849 51.5514C228.104 51.8038 229.108 51.6705 229.445 51.6705C229.656 51.6705 229.997 51.8419 230.214 51.9133C230.425 52.2039 230.795 52.5801 231.28 53.0135C231.006 52.9182 230.521 52.6087 230.353 52.4134C230.19 52.1943 230.377 53.1516 230.564 53.4612C230.29 53.4374 229.997 53.3802 229.834 53.2516C229.555 53.0373 229.796 54.0041 230.098 54.2803C230.752 54.8566 230.689 54.9471 230.795 54.9852C230.247 55.0947 229.483 55.2804 229.253 55.1423C228.95 54.9756 229.589 55.5614 229.978 55.7043C230.536 55.9091 230.463 56.2663 231.064 56.4568C231.703 56.6616 232.381 56.914 232.756 56.8378C233.044 56.7759 233.265 56.6473 233.673 56.6092C234.039 56.5663 234.663 56.0806 235.37 55.9948C236.047 56.4092 236.744 56.7902 237.421 57.114C237.45 57.1283 237.489 57.1474 237.527 57.1664C237.455 57.1712 237.378 57.1807 237.287 57.1997C237.032 57.2569 235.994 57.4855 235.74 57.3664C235.509 57.2474 235.999 57.9189 236.311 58.1713C235.816 58.2666 235.129 58.3332 234.894 58.2761C234.557 58.2046 235.571 59.1762 235.97 59.281C235.989 59.281 235.999 59.2905 236.018 59.2953C235.692 59.4 235.394 59.4762 235.245 59.4715C234.894 59.4477 236.359 60.3954 236.758 60.3335C238.036 60.1525 239.247 60.5859 239.838 60.343C240.372 60.1382 240.684 59.9953 240.948 59.9144C241.213 59.8191 241.362 59.581 241.53 59.4572C241.655 59.3572 241.751 59.1524 242.188 58.9428C242.203 58.9666 242.212 58.9809 242.212 58.9809C242.212 58.9809 243.02 59.0286 243.562 58.9809C243.409 59.0381 243.221 59.1381 243.01 59.3095C242.347 59.5143 241.818 59.6905 241.65 59.7763C241.141 60.0287 239.848 61.1526 239.512 61.5241C239.512 61.5241 240.598 61.4384 240.771 61.4384C240.944 61.4384 241.314 60.6954 241.487 60.5669C241.535 60.5335 241.813 60.3906 242.217 60.2049C241.472 61.3908 242.558 62.3576 242.558 62.3576C242.27 62.0242 242.592 61.4336 242.592 61.4336L243.183 61.8051C242.438 60.543 243.591 59.7001 243.971 59.4667C244.009 59.4524 244.053 59.4381 244.091 59.4238C244.211 59.5762 244.375 59.6763 244.562 59.6763C244.749 59.6763 244.898 59.5858 245.014 59.4429C245.091 59.4715 245.167 59.5 245.24 59.5286C245.682 59.8239 246.628 60.6335 245.936 61.8099L246.527 61.4384C246.527 61.4384 246.854 62.0242 246.566 62.3623C246.566 62.3623 247.628 61.4146 246.931 60.2478C247.287 60.4145 247.527 60.5383 247.575 60.5669C247.743 60.7002 248.118 61.4384 248.286 61.4384C248.454 61.4384 249.545 61.5241 249.545 61.5241C249.209 61.1526 247.916 60.0287 247.407 59.7763C247.248 59.6953 246.758 59.5334 246.148 59.3429C245.922 59.1571 245.72 59.0476 245.557 58.9857C246.1 59.0333 246.907 58.9857 246.907 58.9857C246.907 58.9857 246.907 58.9809 246.917 58.9714C247.311 59.1714 247.407 59.3667 247.527 59.4619C247.695 59.581 247.839 59.8191 248.108 59.9192C248.373 60.0049 248.69 60.1478 249.218 60.3478C249.809 60.5859 251.02 60.1573 252.298 60.3382C252.697 60.4002 254.158 59.4524 253.807 59.4762C253.658 59.4858 253.365 59.4096 253.038 59.3C253.053 59.3 253.067 59.2905 253.086 59.2857C253.485 59.1762 254.499 58.2094 254.163 58.2808C253.927 58.338 253.235 58.2713 252.745 58.1761C253.058 57.9236 253.548 57.2521 253.317 57.3712C253.062 57.4903 252.024 57.2617 251.77 57.2045C251.683 57.1855 251.602 57.1759 251.53 57.1712C251.568 57.1521 251.606 57.1378 251.64 57.1188C252.318 56.7949 253.01 56.4139 253.692 55.9996C254.398 56.0853 255.023 56.5711 255.388 56.614C255.801 56.6521 256.018 56.7806 256.306 56.8426C256.681 56.914 257.358 56.6616 257.997 56.4616C258.603 56.2711 258.531 55.9091 259.083 55.7091C259.468 55.5662 260.112 54.9804 259.809 55.1471C259.578 55.2852 258.814 55.0995 258.266 54.9899C258.372 54.9518 258.31 54.8613 258.963 54.2851C259.266 54.0089 259.506 53.0373 259.228 53.2564C259.059 53.385 258.766 53.4421 258.497 53.4659C258.685 53.1564 258.872 52.1991 258.709 52.4182C258.54 52.6134 258.06 52.923 257.781 53.0182C258.266 52.5849 258.632 52.2039 258.848 51.9181C259.064 51.8467 259.405 51.6752 259.617 51.6752C259.953 51.6752 260.957 51.8086 261.212 51.5562C261.467 51.3037 261.842 50.8513 261.971 50.7656C262.091 50.6798 262.553 49.9274 262.682 49.5226C262.803 49.1035 263.687 48.351 263.807 48.2652C263.807 48.2652 263.144 48.1319 262.49 48.2652C262.658 47.7652 262.827 47.2175 263.096 47.0175C263.096 47.0175 261.962 47.3032 261.669 47.3508C261.198 47.4223 260.794 47.4985 260.559 47.808C260.703 47.3318 260.828 46.8889 260.924 46.5222C260.943 46.4555 260.967 46.3602 260.996 46.2555C261.087 46.1173 261.265 45.9173 261.587 45.8125C262.423 45.5363 263.182 45.4792 263.485 45.1791C263.773 44.8934 263.946 44.6886 264.066 44.5552C264.201 44.4362 264.528 43.9313 264.576 43.6837C264.614 43.4456 264.864 42.5216 264.83 42.355M261.789 41.5548C261.779 41.893 261.688 42.4931 261.529 43.2503C261.515 43.0027 261.433 42.7502 261.337 42.574C261.217 42.3216 261.049 42.3216 260.962 42.0692C260.876 41.8168 260.587 41.7358 260.419 41.531C260.251 41.3262 259.91 41.0786 259.91 41.0786C259.79 41.3643 259.751 42.4931 259.823 42.6598C259.847 42.7121 259.867 42.8026 259.886 42.9074C259.761 42.8598 259.655 42.8217 259.655 42.8217C259.439 43.3122 259.694 43.817 259.775 44.2695C259.799 44.4124 259.982 44.6886 260.064 44.8553C260.15 45.022 260.112 45.1791 260.198 45.3125C260.275 45.422 260.462 45.4363 260.65 45.6125C260.674 45.9221 260.708 46.1888 260.751 46.265C260.592 46.7984 260.41 47.3461 260.222 47.889C260.208 47.7128 260.15 47.5175 260.02 47.3127C259.804 46.9794 259.766 47.0032 259.646 46.6412C259.477 46.1888 259.136 46.1888 259.088 45.7316C259.088 45.7316 258.968 46.2697 258.93 46.7269C258.882 47.1842 258.968 47.3508 259.002 47.6033C259.035 47.7699 258.973 47.9509 258.925 48.1605C258.915 47.9176 258.862 47.5794 258.757 47.4366C258.622 47.2699 258.67 46.9317 258.67 46.9317C258.588 47.0889 258.209 47.6223 258.021 47.7795L257.863 47.5175C260.068 43.698 259.554 37.159 259.473 36.2637C259.828 36.1875 259.766 36.0065 259.766 36.0065L259.698 35.5779C259.732 35.6017 259.771 35.6207 259.809 35.635C259.833 35.6398 259.862 35.6446 259.886 35.6446C259.939 35.6446 259.987 35.6303 260.03 35.5969C260.092 35.5541 260.131 35.4826 260.141 35.4017C260.141 35.3969 260.141 35.3921 260.141 35.3874C260.299 35.5588 260.462 35.7112 260.592 35.7493C260.895 35.8351 261.15 35.9636 261.183 36.0827C261.375 36.8542 261.515 37.6686 261.611 38.4592C261.611 38.4592 261.611 38.4592 261.611 38.4544C261.275 38.083 261.188 37.3781 260.438 36.9923C260.438 36.9923 260.477 37.2924 260.438 37.4972C260.41 37.6258 260.362 37.9068 260.366 38.1496C260.107 37.9544 259.828 37.702 259.795 37.5924C259.795 37.5924 259.674 38.6211 259.963 39.1736C260.265 39.7118 260.265 39.9975 260.592 40.1213C260.929 40.2547 260.981 40.3356 261.102 40.4214C261.236 40.5071 261.438 40.6262 261.611 40.6262C261.654 40.6262 261.688 40.65 261.721 40.6928C261.741 40.7786 261.76 40.8643 261.789 40.9452C261.789 41.1691 261.789 41.3739 261.789 41.5644M232.491 37.0495L234.726 38.6068C234.711 38.9736 234.706 40.0689 235.043 41.0595L233.188 44.1361C232.88 43.4741 232.097 41.3215 232.491 37.0495ZM229.046 35.2445C229.046 35.2445 229.195 34.9873 229.43 34.954C229.474 35.1731 229.286 35.4112 229.286 35.416C229.257 35.4588 229.214 35.4922 229.166 35.5017C229.123 35.5112 229.084 35.5064 229.056 35.4874C229.027 35.4683 229.007 35.4302 229.003 35.3874C229.003 35.3398 229.012 35.2921 229.046 35.2397M236.383 30.1153L238.161 32.0584C238.123 32.5918 238.051 34.2634 238.512 35.3159L236.893 37.9972C236.508 37.221 235.706 34.9206 236.383 30.1153ZM243.317 28.8627C244.101 28.7246 244.913 28.7246 245.696 28.858L245.951 29.2771C244.999 29.0675 244.009 29.0723 243.058 29.2866L243.313 28.8627H243.317ZM243.519 28.5246L244.509 26.8863L245.494 28.5198C244.841 28.4341 244.173 28.4389 243.519 28.5293M242.842 29.6533C243.923 29.3533 245.091 29.3485 246.172 29.639L246.446 30.0914C245.835 29.8819 245.191 29.7724 244.528 29.7724C243.865 29.7724 243.192 29.8867 242.563 30.1057L242.837 29.6485L242.842 29.6533ZM242.299 30.5486C243.692 29.9438 245.307 29.9343 246.705 30.5248L253.538 41.8454H251.035C250.919 41.7739 250.809 41.7025 250.703 41.6168C250.665 41.5882 250.626 41.5548 250.588 41.531C250.415 41.4215 250.227 41.3882 250.03 41.4263C249.929 41.4453 249.829 41.4834 249.737 41.531C249.646 41.5787 249.555 41.6358 249.473 41.6977C249.463 41.7025 249.459 41.712 249.444 41.7168C249.401 41.7025 249.358 41.6834 249.319 41.6644C249.098 41.5596 248.891 41.4215 248.704 41.2691C248.642 41.2167 248.579 41.1738 248.507 41.1357C248.392 41.0786 248.267 41.0453 248.132 41.0453C248.041 41.0453 247.954 41.0595 247.868 41.0881C247.743 41.1262 247.628 41.1786 247.522 41.25C247.45 41.2977 247.378 41.3453 247.311 41.3977C247.301 41.4024 247.296 41.412 247.282 41.412C247.282 41.412 247.272 41.4072 247.267 41.4024C247.142 41.3215 247.008 41.2548 246.868 41.2024C246.744 41.1548 246.623 41.0881 246.508 41.0167C246.345 40.9167 246.186 40.8071 246.042 40.6881C245.989 40.6452 245.931 40.6071 245.874 40.5738C245.749 40.5023 245.619 40.4595 245.475 40.4499C245.379 40.4404 245.283 40.4499 245.187 40.469C245.057 40.4976 244.937 40.5404 244.821 40.6023C244.759 40.6357 244.701 40.6785 244.644 40.7166V36.7923C245.062 36.7685 245.384 36.6209 245.384 36.4494C245.384 36.278 245.081 35.0969 244.682 34.8111C244.663 34.7968 244.312 34.5301 243.851 34.7921C243.851 34.7921 243.332 35.0921 243.596 35.5112C243.596 35.5112 243.654 35.6398 243.88 35.5493C243.923 35.5303 244.029 35.4779 244.067 35.3207V35.4207C244.057 35.5636 243.86 35.6446 243.851 35.6493C243.721 36.0113 243.639 36.3637 243.639 36.4494C243.639 36.6256 243.966 36.7685 244.384 36.7923V40.769C244.384 40.769 244.36 40.7547 244.346 40.7452C244.173 40.6404 244.005 40.5261 243.851 40.3976C243.793 40.3499 243.735 40.3071 243.668 40.269C243.543 40.1975 243.409 40.1547 243.269 40.1404C243.154 40.1309 243.044 40.1404 242.933 40.1594C242.798 40.188 242.674 40.2356 242.549 40.3023C242.424 40.369 242.304 40.4452 242.188 40.5309C242.179 40.5357 242.174 40.5452 242.159 40.55C242.15 40.5452 242.14 40.5404 242.131 40.5309C242.078 40.5023 242.025 40.469 241.972 40.4404C241.9 40.4023 241.823 40.3642 241.746 40.3356C241.645 40.2975 241.544 40.2547 241.448 40.2023C241.169 40.0547 240.91 39.8832 240.665 39.6832C240.641 39.6641 240.617 39.6451 240.593 39.626C240.401 39.4832 240.189 39.3927 239.949 39.3736C239.939 39.3736 239.935 39.3736 239.925 39.3688H239.795C239.795 39.3688 239.776 39.3736 239.766 39.3736C239.613 39.3879 239.464 39.426 239.324 39.4831C239.161 39.5498 239.007 39.6355 238.863 39.7356C238.7 39.8499 238.546 39.9785 238.402 40.1166C238.214 40.2928 238.046 40.4833 237.883 40.6833C237.724 40.8786 237.58 41.0786 237.445 41.2881C237.436 41.2977 237.431 41.3072 237.421 41.3167C237.321 41.4358 237.22 41.5501 237.109 41.6644C237.042 41.7311 236.965 41.793 236.898 41.8549H235.504L242.318 30.5582L242.299 30.5486ZM252.13 37.9972L250.511 35.3159C250.972 34.2634 250.9 32.5965 250.862 32.0584L252.64 30.1153C253.312 34.9159 252.515 37.2162 252.13 37.9972ZM259.593 34.954C259.828 34.9873 259.977 35.2397 259.982 35.2493C260.011 35.2921 260.025 35.3445 260.025 35.3921C260.025 35.435 260.001 35.4731 259.972 35.4922C259.944 35.5112 259.9 35.5207 259.857 35.5064C259.809 35.4969 259.771 35.4636 259.737 35.416C259.737 35.416 259.549 35.1731 259.593 34.954ZM255.835 44.1361L253.98 41.0595C254.317 40.0689 254.312 38.9783 254.297 38.6116L256.532 37.0543C256.921 41.3167 256.147 43.4741 255.835 44.1361ZM231.867 47.8414L233.606 44.9553H254.768C254.768 44.9553 254.749 44.9458 254.744 44.941C254.706 44.922 254.672 44.9029 254.634 44.8839C254.509 44.8077 254.389 44.7219 254.273 44.6314C254.067 44.4695 253.87 44.2981 253.677 44.1171C253.399 43.8599 253.13 43.5884 252.865 43.317C252.692 43.136 252.519 42.955 252.356 42.7693C252.284 42.6883 252.207 42.6074 252.125 42.5359C251.981 42.4026 251.827 42.2788 251.664 42.174C251.592 42.1264 251.515 42.0882 251.438 42.0501H253.668L257.166 47.8461H231.871L231.867 47.8414ZM235.365 42.0454H236.657C236.408 42.2597 236.148 42.4645 235.874 42.6502C235.85 42.6693 235.826 42.6836 235.797 42.6979C235.653 42.7836 235.514 42.8836 235.379 42.9836C235.158 43.1503 234.947 43.3265 234.745 43.5122C234.538 43.6932 234.341 43.8837 234.144 44.0742L235.365 42.0454ZM244.461 41.2596C244.509 41.2834 244.557 41.3024 244.61 41.3215C244.668 41.3453 244.721 41.3691 244.778 41.3977C244.927 41.4786 245.071 41.5739 245.206 41.6787C245.432 41.8501 245.634 42.0454 245.821 42.2549C246.109 42.574 246.402 42.8884 246.705 43.1932C246.83 43.317 246.955 43.4456 247.08 43.5694C247.397 43.8837 247.724 44.1885 248.06 44.4838C248.079 44.5029 248.103 44.5219 248.123 44.5362C248.123 44.5362 248.132 44.5457 248.137 44.5505C248.137 44.5505 248.137 44.5505 248.137 44.5552H246.489C246.489 44.5552 246.489 44.5552 246.484 44.5552C246.465 44.5552 246.45 44.5505 246.436 44.541C246.398 44.5124 246.364 44.4838 246.325 44.4552C246.095 44.279 245.874 44.0885 245.658 43.8932C245.408 43.6694 245.163 43.4408 244.922 43.2122C244.399 42.7026 243.894 42.1787 243.399 41.6406C243.313 41.5453 243.231 41.4501 243.14 41.3596C242.952 41.1596 242.746 40.9738 242.529 40.8024C242.52 40.7976 242.515 40.7881 242.505 40.7833C242.51 40.7786 242.515 40.7738 242.52 40.7738C242.625 40.6976 242.736 40.6357 242.861 40.5881C242.928 40.5642 243 40.5404 243.072 40.5309C243.202 40.5119 243.322 40.5309 243.438 40.5928C243.495 40.6214 243.543 40.6547 243.591 40.6976C243.716 40.8024 243.851 40.8976 243.985 40.9881C244.139 41.0881 244.298 41.1834 244.471 41.2596M251.131 42.3502C251.155 42.3597 251.184 42.374 251.208 42.3835C251.27 42.4073 251.333 42.4407 251.39 42.474C251.549 42.5645 251.688 42.6788 251.823 42.7979C251.909 42.8741 251.991 42.9598 252.068 43.0455C252.222 43.217 252.38 43.3884 252.543 43.5551C252.688 43.7075 252.837 43.8552 252.986 44.0028C253.163 44.1838 253.351 44.3552 253.538 44.5219C253.548 44.5314 253.557 44.5362 253.562 44.5505C253.562 44.5505 253.557 44.5505 253.553 44.5505C253.543 44.5505 253.533 44.5505 253.524 44.5505H252.63C252.63 44.5505 252.587 44.5457 252.572 44.5314C252.399 44.3933 252.231 44.2457 252.068 44.0933C251.909 43.9456 251.751 43.798 251.592 43.6456C251.251 43.3075 250.919 42.9646 250.593 42.6121C250.525 42.5359 250.458 42.4597 250.386 42.3883C250.227 42.2264 250.054 42.074 249.867 41.9454C249.857 41.9406 249.853 41.9359 249.843 41.9263C249.843 41.9263 249.843 41.9168 249.853 41.9168C249.929 41.8692 250.011 41.8311 250.107 41.8073C250.199 41.7882 250.285 41.8025 250.367 41.8501C250.4 41.8692 250.429 41.893 250.458 41.9168C250.669 42.0883 250.89 42.2311 251.14 42.3454M249.881 42.4693C250.006 42.5788 250.122 42.6931 250.232 42.8169C250.472 43.0836 250.717 43.3456 250.967 43.598C251.193 43.8266 251.419 44.0504 251.654 44.2695C251.751 44.3552 251.842 44.4409 251.938 44.5267C251.943 44.5314 251.952 44.541 251.962 44.5505C251.957 44.5505 251.952 44.5505 251.948 44.5505C251.938 44.5505 251.928 44.5505 251.919 44.5505H250.66C250.66 44.5505 250.65 44.5505 250.645 44.5505C250.626 44.5505 250.617 44.5505 250.602 44.5362C250.516 44.4648 250.429 44.3981 250.343 44.3266C250.098 44.1219 249.867 43.9075 249.636 43.6932C249.502 43.5646 249.372 43.436 249.237 43.3075C248.896 42.9646 248.56 42.6169 248.233 42.2597C248.161 42.1835 248.094 42.1025 248.017 42.0263C247.897 41.9025 247.772 41.7835 247.637 41.6739C247.633 41.6692 247.623 41.6644 247.618 41.6596C247.618 41.6596 247.618 41.6596 247.618 41.6501C247.618 41.6501 247.623 41.6453 247.628 41.6453C247.714 41.5834 247.806 41.5263 247.906 41.4882C247.969 41.4644 248.036 41.4453 248.103 41.4405C248.176 41.4405 248.248 41.4548 248.315 41.4882C248.358 41.512 248.397 41.5406 248.435 41.5691C248.637 41.7358 248.853 41.8787 249.084 41.993C249.146 42.0263 249.213 42.0549 249.281 42.0787C249.343 42.1025 249.406 42.1359 249.463 42.1692C249.612 42.2549 249.747 42.355 249.877 42.4645M247.878 42.455C248.06 42.6598 248.248 42.8645 248.44 43.0646C248.613 43.2455 248.786 43.4265 248.964 43.6027C249.266 43.9028 249.574 44.1981 249.896 44.479C249.92 44.4981 249.944 44.5219 249.968 44.541C249.968 44.541 249.977 44.5505 249.982 44.5552C249.977 44.5552 249.973 44.5552 249.973 44.5552C249.963 44.5552 249.953 44.5552 249.944 44.5552H248.815C248.815 44.5552 248.815 44.5552 248.81 44.5552C248.791 44.5552 248.776 44.5552 248.757 44.541C248.67 44.4695 248.584 44.4028 248.502 44.3362C248.224 44.1076 247.959 43.8647 247.7 43.617C247.56 43.4837 247.421 43.3456 247.282 43.2122C246.912 42.8455 246.551 42.4693 246.205 42.0883C246.124 41.9978 246.047 41.912 245.96 41.8263C245.754 41.612 245.528 41.4167 245.278 41.2453C245.163 41.1643 245.043 41.0929 244.913 41.0262C244.908 41.0262 244.898 41.0214 244.894 41.0167C244.894 41.0167 244.894 41.0072 244.903 41.0072C245.009 40.9405 245.124 40.8881 245.244 40.8595C245.307 40.8452 245.369 40.8405 245.432 40.8452C245.509 40.85 245.581 40.8738 245.648 40.9119C245.701 40.9405 245.744 40.9738 245.792 41.0119C246.047 41.2167 246.316 41.3977 246.614 41.5358C246.657 41.5548 246.695 41.5739 246.739 41.5882C246.811 41.6168 246.883 41.6501 246.95 41.6882C247.104 41.7739 247.253 41.8787 247.387 41.993C247.56 42.1359 247.724 42.293 247.873 42.4597M242.712 41.4977C242.827 41.6072 242.933 41.7263 243.039 41.8454C243.159 41.9787 243.279 42.1073 243.399 42.2359C243.615 42.4693 243.836 42.6931 244.057 42.9217C244.456 43.3265 244.86 43.7218 245.283 44.098C245.446 44.2457 245.61 44.3886 245.778 44.5267C245.783 44.5314 245.792 44.541 245.807 44.5505C245.797 44.5505 245.792 44.5505 245.787 44.5505H234.236C234.236 44.5505 234.236 44.5362 234.245 44.5314C234.298 44.479 234.351 44.4267 234.404 44.3743C234.577 44.2076 234.75 44.0409 234.932 43.879C235.149 43.6837 235.37 43.4932 235.605 43.317C235.744 43.2122 235.889 43.1074 236.042 43.0217C236.086 42.9979 236.129 42.9693 236.167 42.936C236.532 42.6836 236.883 42.4073 237.205 42.1025C237.393 41.9263 237.566 41.7453 237.729 41.5453C237.739 41.531 237.748 41.5215 237.758 41.5072C237.892 41.2929 238.041 41.0881 238.205 40.8881C238.334 40.7309 238.469 40.5785 238.618 40.4357C238.772 40.288 238.93 40.1499 239.108 40.0308C239.223 39.9546 239.344 39.888 239.473 39.8356C239.56 39.8022 239.651 39.7784 239.747 39.7641C239.911 39.7451 240.064 39.7737 240.213 39.8546C240.276 39.888 240.333 39.9308 240.391 39.9737C240.521 40.0832 240.655 40.1832 240.795 40.2737C240.958 40.3833 241.126 40.4833 241.304 40.569C241.395 40.6166 241.491 40.6547 241.588 40.6928C241.65 40.7166 241.712 40.75 241.775 40.7786C241.938 40.8643 242.092 40.9691 242.236 41.0786C242.404 41.2072 242.563 41.3453 242.712 41.4929M240.103 48.5939C240.747 49.0701 241.4 49.3368 241.967 49.4892C241.52 49.6226 238.608 50.3846 236.119 48.5939H240.103ZM244.072 50.937C244.072 50.937 244.351 49.5035 244.509 48.5986C244.668 49.5035 244.946 50.937 244.946 50.937C245.115 51.6371 244.514 52.2658 244.509 52.2753C244.504 52.2658 243.904 51.6371 244.072 50.937ZM248.92 48.5939H252.904C250.415 50.3798 247.508 49.6226 247.056 49.4892C247.618 49.3416 248.272 49.0701 248.92 48.5939ZM259.055 34.4539C259.021 34.4063 259.006 34.3491 259.016 34.2968C259.016 34.2729 259.035 34.2444 259.059 34.2253C259.074 34.2348 259.083 34.2444 259.098 34.2539C259.252 34.3396 259.352 34.473 259.449 34.6016C259.458 34.6492 259.458 34.7016 259.449 34.754C259.223 34.7206 259.059 34.4634 259.055 34.4587M255.926 27.5483C255.869 27.6102 255.763 27.6006 255.681 27.5292C255.681 27.5292 255.47 27.3482 255.446 27.1339C255.451 27.1244 255.455 27.1196 255.46 27.1101C255.691 27.1006 255.878 27.3054 255.888 27.3101C255.965 27.3816 255.984 27.4863 255.931 27.5483M255.59 26.41L256.037 26.2576L255.926 26.7148L255.571 26.7672L255.59 26.41ZM254.759 26.4957C254.783 26.4672 254.816 26.4576 254.855 26.4576C254.903 26.4576 254.956 26.4767 255.004 26.5196C255.004 26.5196 255.215 26.6862 255.234 26.9006C255.206 26.9006 255.182 26.9053 255.158 26.9244C254.965 26.891 254.797 26.7386 254.792 26.7339C254.715 26.6624 254.696 26.5577 254.749 26.4957M245.062 21.1427C245.095 21.1427 245.11 21.1427 245.11 21.1427C245.215 21.1427 245.302 21.2093 245.302 21.2903C245.302 21.3713 245.215 21.4379 245.105 21.4379C245.105 21.4379 244.797 21.4522 244.639 21.2903C244.764 21.1569 244.97 21.1427 245.062 21.1427ZM244.514 20.2616L244.745 20.6712L244.514 20.9474L244.283 20.6712L244.514 20.2616ZM243.918 21.4379C243.86 21.4379 243.803 21.4189 243.764 21.3808C243.745 21.3617 243.726 21.3332 243.726 21.2903C243.726 21.2474 243.75 21.2189 243.764 21.1998C243.803 21.1617 243.856 21.1427 243.923 21.1427C243.923 21.1427 244.221 21.1141 244.384 21.2903C244.226 21.4522 243.923 21.4427 243.918 21.4379ZM244.413 24.1764C244.413 24.1764 244.735 23.6716 244.879 23.062C245.095 24.4145 244.826 25.4242 244.725 25.7337L244.509 25.3813L243.808 26.5434C243.764 26.1052 243.779 25.1765 244.413 24.1812M234.019 26.5148C234.063 26.4767 234.115 26.4529 234.173 26.4576C234.197 26.4576 234.236 26.4672 234.264 26.4957C234.293 26.5243 234.298 26.5624 234.293 26.591C234.293 26.6434 234.264 26.6958 234.216 26.7386C234.216 26.7386 234.015 26.9387 233.793 26.9387C233.784 26.9387 233.779 26.9387 233.769 26.9387C233.769 26.7053 234.01 26.5243 234.015 26.5196M232.981 26.2624L233.428 26.4148L233.447 26.772L233.092 26.7196L232.981 26.2624ZM233.188 27.5864C233.164 27.5864 233.126 27.5768 233.097 27.5483C233.068 27.5149 233.063 27.4816 233.063 27.453C233.063 27.4006 233.092 27.3482 233.14 27.3054C233.14 27.3054 233.327 27.1053 233.548 27.1053C233.558 27.1053 233.568 27.1053 233.582 27.1053C233.572 27.3292 233.342 27.5244 233.337 27.5292C233.294 27.5673 233.236 27.5911 233.183 27.5864M229.969 34.4587C229.969 34.4587 229.805 34.7159 229.579 34.7492C229.57 34.7016 229.574 34.6539 229.579 34.6111C229.68 34.4777 229.781 34.3444 229.94 34.2539C229.949 34.2491 229.959 34.2348 229.969 34.2301C229.993 34.2539 230.007 34.2825 230.012 34.3158C230.012 34.3634 230.002 34.4111 229.969 34.4587ZM227.239 40.9357C227.268 40.8548 227.287 40.769 227.306 40.6833C227.34 40.6452 227.378 40.6166 227.417 40.6166C227.585 40.6166 227.792 40.4976 227.926 40.4118C228.046 40.3261 228.094 40.2452 228.436 40.1118C228.762 39.9927 228.762 39.707 229.065 39.1641C229.353 38.6116 229.233 37.5829 229.233 37.5829C229.2 37.6972 228.921 37.9496 228.657 38.1401C228.657 37.8972 228.618 37.6162 228.585 37.4877C228.546 37.2829 228.585 36.9828 228.585 36.9828C227.835 37.3638 227.753 38.0734 227.412 38.4449C227.412 38.4449 227.412 38.4449 227.412 38.4497C227.508 37.6639 227.648 36.8447 227.84 36.0732C227.878 35.9541 228.128 35.8255 228.431 35.7398C228.556 35.7017 228.714 35.5541 228.873 35.3874C228.873 35.3874 228.873 35.3874 228.873 35.3921C228.878 35.4731 228.921 35.5445 228.983 35.5874C229.027 35.616 229.075 35.635 229.128 35.635C229.152 35.635 229.18 35.635 229.204 35.6255C229.243 35.616 229.281 35.5969 229.315 35.5684L229.243 35.997C229.243 35.997 229.18 36.178 229.536 36.2542C229.454 37.1495 228.94 43.6932 231.146 47.5128L230.992 47.7652C230.809 47.608 230.425 47.0746 230.348 46.9175C230.348 46.9175 230.396 47.2508 230.262 47.4223C230.156 47.5699 230.108 47.9033 230.093 48.1462C230.045 47.9366 229.988 47.7509 230.017 47.589C230.055 47.3366 230.137 47.1699 230.089 46.7127C230.055 46.2555 229.93 45.7173 229.93 45.7173C229.882 46.1745 229.546 46.1745 229.373 46.6269C229.253 46.9889 229.214 46.9651 228.998 47.2985C228.868 47.5032 228.81 47.6985 228.796 47.8747C228.604 47.3318 228.426 46.7841 228.267 46.2507C228.316 46.1745 228.344 45.9078 228.368 45.5982C228.556 45.4268 228.743 45.4125 228.82 45.2982C228.907 45.1648 228.868 45.0124 228.955 44.841C229.041 44.6743 229.219 44.3981 229.243 44.2552C229.329 43.798 229.579 43.2979 229.363 42.8074C229.363 42.8074 229.253 42.8455 229.132 42.8931C229.152 42.7883 229.166 42.6931 229.195 42.6455C229.267 42.4788 229.233 41.3548 229.113 41.0643C229.113 41.0643 228.772 41.3167 228.604 41.5167C228.436 41.7215 228.143 41.8025 228.061 42.0549C227.974 42.3073 227.806 42.3073 227.686 42.5597C227.595 42.736 227.513 42.9884 227.494 43.236C227.335 42.4788 227.244 41.8787 227.234 41.5406C227.234 41.3501 227.23 41.1453 227.234 40.9214M246.215 58.1951C245.658 58.2046 245.264 58.3904 245.134 58.4666C245.129 58.4571 245.124 58.4428 245.119 58.4332C245.297 58.1427 246.076 56.8902 246.595 56.2996C246.671 56.4806 246.96 57.314 246.22 58.1951M243.961 58.4618C243.827 58.3856 243.438 58.1999 242.88 58.1903C242.14 57.3093 242.428 56.4711 242.505 56.2949C243.024 56.8807 243.803 58.138 243.981 58.4285C243.976 58.438 243.971 58.4523 243.966 58.4618M256.902 53.2087C256.931 53.1611 256.95 53.1183 256.955 53.0849C256.993 52.8944 257.171 52.4991 257.123 52.2943C257.084 52.0896 257.003 51.5895 256.868 51.299C256.748 50.9989 256.455 50.3036 256.157 50.175C256.157 50.175 255.917 50.9656 255.83 51.2514C255.744 51.5514 255.662 51.8848 255.528 52.0419C255.489 52.0943 255.417 52.2134 255.34 52.3563C255.321 52.2372 255.326 52.242 255.355 51.8038C255.403 51.2514 254.518 50.3893 254.518 50.3893C254.605 50.6275 254.264 51.5847 254.096 51.8038C253.927 52.0086 253.673 52.6277 253.634 52.9992C253.596 53.385 253.428 53.6231 253.298 53.7898C253.048 54.1279 253.327 55.5471 253.36 55.7091C252.798 56.052 252.212 56.3901 251.669 56.6616C251.506 56.7425 251.323 56.8235 251.121 56.9092C251.16 56.8759 251.198 56.8426 251.232 56.8045C252.005 55.9901 251.967 55.7234 252.068 55.5233C252.327 55.4757 251.717 55.4138 251.361 55.4424C251.568 55.128 251.856 54.6994 252.058 54.3327C252.217 54.0327 250.703 54.428 250.703 54.428C250.54 54.4946 250.41 54.5423 250.299 54.5804C250.424 54.1327 250.554 53.6326 250.544 53.5326C250.535 53.4135 249.905 53.6183 249.396 53.8326C248.959 54.0136 248.709 54.3613 248.334 54.5851C247.887 54.8709 247.825 55.59 247.623 55.9282C247.484 56.1615 247.407 56.3377 247.359 56.4901C247.315 56.152 247.19 55.9996 247.061 55.9329C247.056 55.9329 247.046 55.9282 247.041 55.9234C247.037 55.9234 247.027 55.9186 247.017 55.9139C246.989 55.9043 246.96 55.8948 246.931 55.8901C246.835 55.871 246.676 55.8472 246.431 55.8186C246.095 55.7805 245.547 55.8186 245.297 56.2853C245.057 56.7187 244.841 57.7903 244.745 58.0427C244.682 58.0189 244.62 57.9999 244.548 57.9999C244.475 57.9999 244.413 58.0189 244.351 58.0427C244.254 57.7903 244.038 56.7187 243.798 56.2853C243.543 55.8186 243 55.7805 242.659 55.8186C242.414 55.8472 242.255 55.871 242.159 55.8901C242.131 55.8901 242.107 55.9043 242.073 55.9139C242.063 55.9139 242.058 55.9186 242.049 55.9234C242.044 55.9234 242.034 55.9282 242.03 55.9329C241.876 56.0139 241.722 56.2187 241.717 56.7044C241.693 56.5139 241.616 56.2853 241.405 55.9282C241.198 55.5948 241.141 54.8756 240.694 54.5851C240.319 54.3565 240.064 54.0089 239.632 53.8326C239.122 53.6183 238.498 53.4135 238.483 53.5326C238.469 53.6374 238.603 54.1327 238.728 54.5804C238.623 54.5423 238.493 54.4899 238.325 54.428C238.325 54.428 236.816 54.0327 236.97 54.3327C237.172 54.6994 237.46 55.128 237.666 55.4424C237.311 55.409 236.696 55.4757 236.96 55.5233C237.061 55.7186 237.018 55.9901 237.796 56.8045C237.835 56.8426 237.873 56.8711 237.907 56.9092C237.705 56.8283 237.522 56.7425 237.359 56.6616C236.811 56.3901 236.23 56.0567 235.668 55.7091C235.701 55.5471 235.98 54.1279 235.73 53.7898C235.595 53.6231 235.427 53.385 235.394 52.9992C235.355 52.6277 235.105 52.0038 234.932 51.8038C234.764 51.5895 234.423 50.6322 234.509 50.3893C234.509 50.3893 233.625 51.2514 233.673 51.8038C233.702 52.242 233.707 52.2372 233.688 52.3563C233.611 52.2134 233.544 52.0943 233.5 52.0419C233.366 51.8848 233.284 51.5514 233.198 51.2514C233.111 50.9656 232.871 50.175 232.871 50.175C232.568 50.3084 232.28 50.9989 232.16 51.299C232.025 51.5847 231.943 52.0896 231.905 52.2943C231.857 52.4991 232.04 52.8944 232.073 53.0849C232.073 53.1135 232.097 53.1564 232.126 53.2087C231.501 52.742 230.978 52.2848 230.473 51.5371C230.516 51.3371 230.564 51.1799 230.651 51.0989C230.771 50.9656 231.194 50.4655 231.28 50.1417C231.367 49.8035 231.28 49.5559 231.28 49.3892C231.28 49.2225 231.4 48.6463 231.4 48.6463C231.4 48.6463 231.396 48.6272 231.386 48.5986H232.088C233.342 49.513 237.849 52.3372 243.154 50.0417C243.125 50.1274 243.096 50.1941 243.072 50.2274C243.072 50.2274 241.934 51.7609 244.509 52.2801C247.085 51.7609 245.946 50.2274 245.946 50.2274C245.922 50.1941 245.893 50.1274 245.859 50.0369C251.164 52.3372 255.676 49.513 256.931 48.5986H257.642C257.632 48.6272 257.627 48.6463 257.627 48.6463C257.627 48.6463 257.748 49.2225 257.748 49.3892C257.748 49.5559 257.661 49.8083 257.748 50.1417C257.829 50.4655 258.257 50.9656 258.377 51.0989C258.463 51.1799 258.512 51.3323 258.555 51.5371C258.045 52.2848 257.526 52.742 256.902 53.2087Z" fill="white"/>
<path d="M252.793 54.6423C252.649 54.6423 252.539 54.7518 252.539 54.8804C252.539 55.0233 252.649 55.1328 252.793 55.1328C252.928 55.1328 253.048 55.0233 253.048 54.8804C253.048 54.747 252.928 54.6423 252.793 54.6423Z" fill="white"/>
<path d="M254.22 56.3759C254.076 56.3759 253.966 56.4949 253.966 56.6283C253.966 56.7711 254.076 56.8807 254.22 56.8807C254.355 56.8807 254.475 56.7711 254.475 56.6283C254.475 56.4949 254.355 56.3759 254.22 56.3759Z" fill="white"/>
<path d="M257.531 50.8942C257.396 50.8942 257.276 51.0037 257.276 51.1466C257.276 51.2799 257.396 51.399 257.531 51.399C257.675 51.399 257.786 51.2799 257.786 51.1466C257.786 51.0037 257.675 50.8942 257.531 50.8942Z" fill="white"/>
<path d="M259.309 52.1371C259.309 52.2943 259.444 52.4134 259.588 52.4134C259.746 52.4134 259.866 52.2943 259.866 52.1371C259.866 51.9942 259.746 51.8609 259.588 51.8609C259.444 51.8609 259.309 51.9942 259.309 52.1371Z" fill="white"/>
<path d="M259.963 46.2602C260.121 46.2602 260.241 46.1412 260.241 45.984C260.241 45.8411 260.121 45.7078 259.963 45.7078C259.819 45.7078 259.684 45.8411 259.684 45.984C259.684 46.1412 259.819 46.2602 259.963 46.2602Z" fill="white"/>
<path d="M260.808 40.7261C260.65 40.7261 260.53 40.8452 260.53 41.0024C260.53 41.1452 260.65 41.2786 260.808 41.2786C260.967 41.2786 261.087 41.1452 261.087 41.0024C261.087 40.8452 260.967 40.7261 260.808 40.7261Z" fill="white"/>
<path d="M262.355 36.2398C262.514 36.2398 262.634 36.1208 262.634 35.9779C262.634 35.8207 262.514 35.7017 262.355 35.7017C262.211 35.7017 262.077 35.8207 262.077 35.9779C262.077 36.1208 262.211 36.2398 262.355 36.2398Z" fill="white"/>
<path d="M260.386 36.74C260.544 36.74 260.664 36.6209 260.664 36.4637C260.664 36.3209 260.544 36.1875 260.386 36.1875C260.227 36.1875 260.107 36.3209 260.107 36.4637C260.107 36.6209 260.227 36.74 260.386 36.74Z" fill="white"/>
<path d="M258.728 32.2632C258.728 32.1203 258.608 32.0012 258.449 32.0012C258.305 32.0012 258.17 32.1203 258.17 32.2632C258.17 32.4203 258.305 32.5394 258.449 32.5394C258.608 32.5394 258.728 32.4203 258.728 32.2632Z" fill="white"/>
<path d="M259.924 31.3773C260.083 31.3773 260.203 31.2582 260.203 31.1011C260.203 30.9582 260.083 30.8248 259.924 30.8248C259.766 30.8248 259.646 30.9582 259.646 31.1011C259.646 31.2582 259.766 31.3773 259.924 31.3773Z" fill="white"/>
<path d="M262.707 41.05C262.707 41.1929 262.827 41.312 262.985 41.312C263.129 41.312 263.25 41.1929 263.25 41.05C263.25 40.9071 263.129 40.7881 262.985 40.7881C262.827 40.7881 262.707 40.9071 262.707 41.05Z" fill="white"/>
<path d="M236.234 54.6423C236.1 54.6423 235.979 54.7518 235.979 54.8804C235.979 55.0233 236.1 55.1328 236.234 55.1328C236.378 55.1328 236.489 55.0233 236.489 54.8804C236.489 54.747 236.378 54.6423 236.234 54.6423Z" fill="white"/>
<path d="M235.062 56.6283C235.062 56.4949 234.952 56.3759 234.807 56.3759C234.673 56.3759 234.553 56.4949 234.553 56.6283C234.553 56.7711 234.673 56.8807 234.807 56.8807C234.952 56.8807 235.062 56.7711 235.062 56.6283Z" fill="white"/>
<path d="M231.496 50.8942C231.352 50.8942 231.242 51.0037 231.242 51.1466C231.242 51.2799 231.352 51.399 231.496 51.399C231.631 51.399 231.751 51.2799 231.751 51.1466C231.751 51.0037 231.631 50.8942 231.496 50.8942Z" fill="white"/>
<path d="M229.445 52.4134C229.589 52.4134 229.723 52.2943 229.723 52.1371C229.723 51.9942 229.589 51.8609 229.445 51.8609C229.286 51.8609 229.166 51.9942 229.166 52.1371C229.166 52.2943 229.286 52.4134 229.445 52.4134Z" fill="white"/>
<path d="M229.07 45.7078C228.911 45.7078 228.791 45.8411 228.791 45.984C228.791 46.1412 228.911 46.2602 229.07 46.2602C229.214 46.2602 229.348 46.1412 229.348 45.984C229.348 45.8411 229.219 45.7078 229.07 45.7078Z" fill="white"/>
<path d="M227.619 46.4888C227.619 46.3316 227.499 46.2126 227.34 46.2126C227.196 46.2126 227.062 46.3316 227.062 46.4888C227.062 46.646 227.196 46.765 227.34 46.765C227.499 46.765 227.619 46.646 227.619 46.4888Z" fill="white"/>
<path d="M228.224 41.2786C228.383 41.2786 228.503 41.1452 228.503 41.0024C228.503 40.8452 228.383 40.7261 228.224 40.7261C228.065 40.7261 227.945 40.8452 227.945 41.0024C227.945 41.1452 228.065 41.2786 228.224 41.2786Z" fill="white"/>
<path d="M226.677 36.2398C226.821 36.2398 226.956 36.1208 226.956 35.9779C226.956 35.8207 226.821 35.7017 226.677 35.7017C226.519 35.7017 226.398 35.8207 226.398 35.9779C226.398 36.1208 226.519 36.2398 226.677 36.2398Z" fill="white"/>
<path d="M228.647 36.1875C228.488 36.1875 228.368 36.3209 228.368 36.4637C228.368 36.6209 228.488 36.74 228.647 36.74C228.805 36.74 228.926 36.6209 228.926 36.4637C228.926 36.3209 228.805 36.1875 228.647 36.1875Z" fill="white"/>
<path d="M230.3 32.2632C230.3 32.4203 230.42 32.5394 230.579 32.5394C230.723 32.5394 230.857 32.4203 230.857 32.2632C230.857 32.1203 230.723 32.0012 230.579 32.0012C230.42 32.0012 230.3 32.1203 230.3 32.2632Z" fill="white"/>
<path d="M229.103 31.3773C229.262 31.3773 229.382 31.2582 229.382 31.1011C229.382 30.9582 229.262 30.8248 229.103 30.8248C228.945 30.8248 228.825 30.9582 228.825 31.1011C228.825 31.2582 228.945 31.3773 229.103 31.3773Z" fill="white"/>
<path d="M226.326 41.05C226.326 40.9071 226.206 40.7881 226.047 40.7881C225.903 40.7881 225.783 40.9071 225.783 41.05C225.783 41.1929 225.903 41.312 226.047 41.312C226.206 41.312 226.326 41.1929 226.326 41.05Z" fill="white"/>
<path d="M241.247 37.1971C241.367 37.1733 241.405 37.2066 241.453 37.3162L241.525 37.2923L241.453 37.1257L241.938 36.9209L241.89 36.8256L241.213 37.1257L241.251 37.1971H241.247Z" fill="white"/>
<path d="M241.088 36.3351L240.992 36.3494L241.078 36.7209L241.487 36.6828L241.477 36.6114C241.415 36.5876 241.381 36.5399 241.367 36.4923C241.357 36.4066 241.391 36.3256 241.487 36.3018C241.583 36.278 241.669 36.3113 241.693 36.4113C241.717 36.4971 241.693 36.5685 241.607 36.5923L241.631 36.6876C241.789 36.6257 241.799 36.5066 241.775 36.4113C241.712 36.1827 241.535 36.1827 241.463 36.2066C241.304 36.2399 241.256 36.3732 241.28 36.4923C241.294 36.5542 241.328 36.6018 241.367 36.6257L241.16 36.6352L241.088 36.3351Z" fill="white"/>
<path d="M241.126 35.735C241.261 35.7493 241.294 35.6398 241.318 35.5921L241.366 35.435C241.4 35.3159 241.429 35.2778 241.511 35.2921C241.621 35.3064 241.631 35.4254 241.621 35.4969C241.611 35.5921 241.559 35.7017 241.429 35.6874L241.414 35.7826C241.487 35.7922 241.549 35.7826 241.621 35.7207C241.645 35.6969 241.693 35.635 241.708 35.5064C241.717 35.3731 241.684 35.2064 241.501 35.1968C241.39 35.1873 241.318 35.2445 241.294 35.3397L241.222 35.554C241.213 35.5921 241.184 35.6398 241.112 35.6398C241.001 35.6255 240.992 35.5207 241.001 35.4493C241.001 35.3635 241.049 35.2826 241.169 35.2826V35.1873C241.083 35.1873 240.929 35.1968 240.905 35.4635C240.891 35.6445 241.001 35.7255 241.121 35.7398" fill="white"/>
<path d="M241.909 34.5872L241.828 34.5634L241.679 34.9921L241.438 34.9111L241.573 34.5253L241.487 34.492L241.352 34.8873L241.136 34.8158L241.28 34.3967L241.184 34.3586L241.016 34.8873L241.741 35.1111L241.909 34.5872Z" fill="white"/>
<path d="M242.015 34.4206L241.736 34.2491L241.856 34.0491C241.938 33.9062 241.885 33.7872 241.784 33.73C241.736 33.7014 241.683 33.6919 241.626 33.7062C241.573 33.7205 241.515 33.7586 241.477 33.8205L241.313 34.1063L241.948 34.5016L242.01 34.4254L242.015 34.4206ZM241.453 34.0586L241.563 33.8872C241.592 33.8443 241.626 33.811 241.679 33.8205C241.693 33.8205 241.712 33.8348 241.732 33.8443C241.804 33.8919 241.804 33.9539 241.756 34.0253L241.659 34.1825L241.453 34.0634V34.0586Z" fill="white"/>
<path d="M241.972 33.3633L242.453 33.8205L242.515 33.749L242.044 33.2918L242.227 33.1013L242.155 33.0394L241.727 33.4823L241.79 33.5443L241.972 33.3633Z" fill="white"/>
<path d="M242.851 33.4728L242.395 32.8727L242.323 32.9347L242.77 33.53L242.851 33.4728Z" fill="white"/>
<path d="M243.471 33.1108L243.433 33.0394L243.02 33.2442L242.914 33.0299L243.274 32.8394L243.241 32.7537L242.866 32.9442L242.755 32.7441L243.154 32.5393L243.12 32.4536L242.625 32.706L242.976 33.3775L243.471 33.1108Z" fill="white"/>
<path d="M243.654 33.0633L243.558 32.6203C243.558 32.6203 243.524 32.5108 243.51 32.4394L243.86 33.0156L243.957 32.9918L244.029 32.3346C244.053 32.406 244.062 32.4918 244.062 32.5156L244.158 32.9442L244.255 32.9347L244.096 32.1917L243.952 32.2298L243.88 32.9013L243.529 32.3251L243.385 32.3489L243.553 33.0775L243.649 33.0633H243.654Z" fill="white"/>
<path d="M244.696 32.9394C244.865 32.949 244.966 32.8585 244.966 32.7394C244.975 32.6061 244.884 32.5727 244.836 32.5489C244.918 32.5108 244.942 32.4394 244.942 32.3917C244.951 32.2822 244.884 32.1965 244.74 32.187L244.408 32.1774L244.375 32.9251L244.696 32.9347V32.9394ZM244.523 32.2822L244.692 32.3013C244.802 32.3013 244.841 32.3346 244.841 32.406C244.826 32.4918 244.783 32.5156 244.682 32.5013H244.509L244.528 32.287L244.523 32.2822ZM244.692 32.6108C244.764 32.6108 244.85 32.6346 244.85 32.7299C244.85 32.8013 244.793 32.8489 244.692 32.8489L244.499 32.8299L244.509 32.587L244.692 32.6061V32.6108Z" fill="white"/>
<path d="M245.23 32.7013L245.475 32.768C245.595 32.8061 245.585 32.8727 245.571 32.9299C245.556 32.9537 245.523 33.0632 245.537 33.1109L245.657 33.1442V33.1347C245.633 33.1109 245.638 33.0966 245.648 33.0489L245.667 32.9204C245.705 32.8251 245.667 32.787 245.633 32.7632C245.681 32.7394 245.758 32.7251 245.782 32.6156C245.83 32.4584 245.72 32.3917 245.6 32.3584L245.258 32.2441L245.057 32.9775L245.153 33.0013L245.23 32.6918V32.7013ZM245.35 32.3774L245.566 32.4536C245.614 32.4632 245.691 32.4822 245.652 32.5917C245.628 32.687 245.561 32.6822 245.484 32.6679L245.278 32.606L245.35 32.3727V32.3774Z" fill="white"/>
<path d="M246.215 33.4728L246.248 33.4014L245.864 33.1728L245.984 32.9585L246.345 33.1633L246.393 33.0871L246.032 32.8727L246.152 32.6822L246.542 32.9108L246.59 32.8251L246.104 32.5489L245.729 33.1966L246.215 33.4728Z" fill="white"/>
<path d="M246.681 33.9491C246.849 34.13 247.051 34.0491 247.185 33.9395C247.354 33.8062 247.397 33.6109 247.262 33.4585L247.061 33.2347L246.484 33.7109L246.676 33.9538L246.681 33.9491ZM247.171 33.5347C247.258 33.63 247.243 33.7347 247.109 33.8538C246.974 33.9633 246.854 33.9586 246.767 33.8633L246.652 33.7347L247.051 33.3966L247.166 33.5347H247.171Z" fill="white"/>
<path d="M247.19 34.7635L247.277 34.7302L247.07 34.3206L247.301 34.2158L247.483 34.5873L247.565 34.5397L247.373 34.1777L247.589 34.0729L247.786 34.4682L247.868 34.4301L247.613 33.9396L246.94 34.273L247.19 34.7635Z" fill="white"/>
<path d="M247.834 35.2445L247.315 35.3159L247.325 35.4111L248.065 35.3016L248.051 35.2302C247.93 35.2206 247.916 35.1825 247.882 35.0635L247.81 35.073L247.834 35.2397V35.2445Z" fill="white"/>
<path d="M247.892 35.6826C247.82 35.6826 247.767 35.716 247.743 35.7874C247.719 35.7017 247.656 35.6541 247.56 35.6398C247.522 35.6398 247.459 35.6398 247.387 35.7064C247.339 35.7684 247.325 35.8398 247.325 35.8874C247.315 36.0541 247.435 36.1351 247.541 36.1351C247.599 36.1446 247.685 36.1255 247.733 36.0303C247.743 36.0684 247.786 36.1256 247.882 36.1256C247.978 36.1398 248.084 36.0779 248.084 35.9112C248.098 35.7445 247.978 35.6779 247.892 35.6779M247.546 36.0351C247.435 36.0351 247.426 35.9493 247.426 35.8874C247.426 35.7779 247.507 35.7588 247.565 35.7588C247.623 35.7588 247.69 35.8112 247.68 35.9065C247.68 35.9779 247.647 36.0351 247.551 36.0351M247.892 36.0351C247.829 36.0255 247.776 35.9684 247.776 35.8969C247.776 35.8398 247.829 35.7922 247.892 35.7922C247.94 35.7922 247.997 35.816 247.988 35.9112C247.988 36.0065 247.93 36.0303 247.892 36.0303" fill="white"/>
<path d="M247.781 36.297L247.767 36.3922C247.815 36.4018 247.935 36.4399 247.901 36.5732C247.877 36.6827 247.791 36.7066 247.743 36.6827C247.647 36.6732 247.623 36.6018 247.599 36.5161L247.575 36.4065C247.536 36.297 247.478 36.216 247.32 36.1684L247.2 36.6589L247.286 36.6827L247.382 36.2875C247.421 36.297 247.469 36.3351 247.493 36.4446L247.517 36.5303C247.55 36.6637 247.589 36.7589 247.709 36.7828C247.844 36.8209 247.949 36.7351 247.988 36.6161C248.002 36.5446 248.026 36.3637 247.781 36.3065" fill="white"/>
<path d="M247.642 36.9923L247.57 37.1495L247.099 36.9209L247.051 37.0161L247.728 37.3257L247.752 37.2543C247.656 37.1828 247.666 37.1352 247.714 37.0161L247.642 36.9923Z" fill="white"/>
<path d="M243.591 39.6356L243.673 39.6546L244.226 37.3829C244.202 37.3829 244.168 37.3829 244.144 37.3734L243.596 39.6165V39.6356H243.591Z" fill="white"/>
<path d="M243.51 38.664L243.587 38.6925L244.053 37.3495C244.024 37.34 244 37.3352 243.976 37.3257L243.519 38.6497V38.6687L243.51 38.664Z" fill="white"/>
<path d="M242.722 39.4927L242.794 39.526L243.865 37.2876C243.841 37.2781 243.812 37.2686 243.788 37.2543L242.726 39.4688L242.717 39.4879L242.722 39.4927Z" fill="white"/>
<path d="M242.554 39.1212L243.716 37.221C243.692 37.2067 243.668 37.1971 243.644 37.1829L242.481 39.0831L242.554 39.126V39.1212Z" fill="white"/>
<path d="M241.832 39.1498L241.818 39.1688L241.88 39.2212L243.538 37.1257C243.538 37.1257 243.495 37.0924 243.476 37.0733L241.832 39.1545V39.1498Z" fill="white"/>
<path d="M241.943 38.6354L243.409 37.0209C243.409 37.0209 243.366 36.9828 243.346 36.9637L241.881 38.5782L241.943 38.6306V38.6354Z" fill="white"/>
<path d="M243.284 36.9066C243.284 36.9066 243.25 36.8638 243.231 36.8447L241.064 38.7402L241.117 38.8021L243.274 36.9162H243.284V36.9066Z" fill="white"/>
<path d="M243.164 36.759C243.164 36.759 243.125 36.7161 243.111 36.6971L241.967 37.4972L241.953 37.5067L242.001 37.5734L243.168 36.759H243.164Z" fill="white"/>
<path d="M243.058 36.6161C243.058 36.6161 243.029 36.5685 243.019 36.5447L242.217 36.9876L242.255 37.059L243.058 36.6161Z" fill="white"/>
<path d="M242.102 36.7637L242.135 36.8399L242.981 36.4732C242.971 36.4494 242.952 36.4256 242.942 36.4018L242.102 36.7637Z" fill="white"/>
<path d="M242.005 36.5113L242.029 36.5923L242.89 36.3161L242.909 36.3113L242.885 36.2303L242.005 36.5113Z" fill="white"/>
<path d="M242.861 36.1446C242.856 36.116 242.846 36.0922 242.841 36.0684L241.938 36.2637L241.957 36.3446L242.861 36.1494V36.1446Z" fill="white"/>
<path d="M241.89 35.9875L241.9 36.0684L242.827 35.9732C242.827 35.9446 242.822 35.9208 242.817 35.8922L241.885 35.9922L241.89 35.9875Z" fill="white"/>
<path d="M241.876 35.8017L242.808 35.7921C242.808 35.7921 242.808 35.7683 242.808 35.754C242.808 35.7398 242.808 35.7255 242.808 35.7112L241.871 35.7207V35.8017H241.876Z" fill="white"/>
<path d="M241.895 35.5493L242.808 35.6255H242.822C242.822 35.6017 242.822 35.5731 242.832 35.5445L241.924 35.4683H241.905L241.895 35.5493Z" fill="white"/>
<path d="M241.919 35.2588L242.837 35.4588C242.842 35.4302 242.846 35.4064 242.851 35.3778L241.933 35.1778L241.919 35.2588Z" fill="white"/>
<path d="M241.996 35.0159L242.866 35.3016H242.88C242.88 35.3016 242.895 35.254 242.904 35.2254L242.025 34.9397L242.001 35.0159H241.996Z" fill="white"/>
<path d="M242.106 34.692L242.073 34.7682L242.933 35.1302C242.943 35.1064 242.957 35.0825 242.967 35.0587L242.121 34.7015L242.102 34.692H242.106Z" fill="white"/>
<path d="M242.188 34.5206L243.005 34.9587H243.014C243.014 34.9587 243.039 34.9159 243.053 34.8921L242.226 34.4492L242.188 34.5206Z" fill="white"/>
<path d="M242.347 34.2967L243.091 34.8254C243.091 34.8254 243.125 34.7825 243.144 34.7634L242.395 34.23L242.347 34.2967Z" fill="white"/>
<path d="M242.577 34.0205L242.524 34.0824L243.212 34.6682H243.216C243.216 34.6682 243.25 34.6301 243.269 34.6111L242.596 34.03L242.582 34.0157L242.577 34.0205Z" fill="white"/>
<path d="M242.77 33.8348L242.712 33.8919L243.341 34.5444C243.341 34.5444 243.385 34.5111 243.404 34.492L242.789 33.8491L242.774 33.8348H242.77Z" fill="white"/>
<path d="M242.981 33.6681L242.918 33.7205L243.485 34.4253C243.485 34.4253 243.524 34.392 243.548 34.3729L242.995 33.6871L242.981 33.6729V33.6681Z" fill="white"/>
<path d="M243.241 33.5204L243.168 33.5633L243.615 34.3301C243.615 34.3301 243.663 34.311 243.687 34.2967L243.245 33.5395L243.236 33.5204H243.241Z" fill="white"/>
<path d="M243.476 33.4156L243.399 33.449L243.774 34.2491C243.798 34.2396 243.822 34.2253 243.846 34.2158L243.481 33.4347L243.471 33.4156H243.476Z" fill="white"/>
<path d="M243.74 33.3252L243.664 33.3538L243.957 34.1872C243.981 34.1777 244.01 34.1682 244.034 34.1634L243.745 33.349V33.33L243.74 33.3252Z" fill="white"/>
<path d="M244.014 33.2442L243.933 33.2633L244.115 34.1396C244.144 34.1396 244.168 34.13 244.197 34.1253L244.019 33.268V33.249L244.014 33.2442Z" fill="white"/>
<path d="M244.303 34.111C244.332 34.111 244.356 34.1062 244.384 34.1015L244.293 33.2061H244.211L244.303 34.1062V34.111Z" fill="white"/>
<path d="M244.543 33.2014H244.461L244.471 34.0967C244.471 34.0967 244.48 34.0967 244.485 34.0967C244.509 34.0967 244.533 34.1015 244.552 34.1015L244.543 33.2252V33.2061V33.2014Z" fill="white"/>
<path d="M244.634 34.0967V34.1062C244.658 34.1062 244.687 34.111 244.715 34.1158L244.802 33.2156L244.72 33.2061L244.634 34.0967Z" fill="white"/>
<path d="M244.874 34.1443H244.894L245.071 33.2585L244.99 33.2442L244.812 34.13C244.812 34.13 244.85 34.1443 244.874 34.1491" fill="white"/>
<path d="M245.335 33.349L245.259 33.3252L244.975 34.1586V34.1777C244.975 34.1777 245.023 34.192 245.047 34.2015L245.331 33.3728L245.34 33.3538L245.335 33.349Z" fill="white"/>
<path d="M245.585 33.449L245.508 33.4156L245.148 34.2158V34.2253C245.148 34.2253 245.191 34.2539 245.215 34.2634L245.576 33.4633L245.585 33.4442V33.449Z" fill="white"/>
<path d="M245.735 33.5157L245.302 34.2825L245.292 34.2967L245.365 34.3396L245.807 33.5585L245.735 33.5157Z" fill="white"/>
<path d="M245.432 34.3777V34.3872C245.432 34.3872 245.465 34.4206 245.489 34.4396L246.037 33.7348L246.052 33.7205L245.984 33.6729L245.432 34.3825V34.3777Z" fill="white"/>
<path d="M245.571 34.4968L245.628 34.5492L246.234 33.9015L246.248 33.8872L246.186 33.83L245.571 34.4968Z" fill="white"/>
<path d="M245.696 34.6158L245.753 34.6777L246.426 34.0777L246.373 34.0157L245.696 34.6158Z" fill="white"/>
<path d="M245.83 34.7539L245.816 34.7634C245.816 34.7634 245.854 34.8015 245.869 34.8254L246.58 34.3015L246.594 34.292L246.546 34.2253L245.83 34.7539Z" fill="white"/>
<path d="M245.922 34.8826L245.907 34.8921C245.907 34.8921 245.936 34.9397 245.946 34.9635L246.734 34.5254L246.753 34.5158L246.715 34.4444L245.926 34.8826H245.922Z" fill="white"/>
<path d="M246.003 35.0444H245.994C246.003 35.073 246.018 35.0968 246.027 35.1206L246.844 34.7635L246.863 34.7539L246.83 34.6777L246.003 35.0397V35.0444Z" fill="white"/>
<path d="M246.056 35.2159C246.066 35.2397 246.071 35.2683 246.08 35.2969L246.916 35.0159H246.936L246.907 34.9302L246.056 35.2159Z" fill="white"/>
<path d="M246.104 35.3683C246.109 35.3969 246.119 35.4207 246.124 35.4493L247.013 35.2492L246.993 35.1683L246.109 35.3635L246.104 35.3683Z" fill="white"/>
<path d="M246.133 35.535C246.133 35.5636 246.138 35.5874 246.143 35.616L247.017 35.5398H247.037L247.027 35.4588L246.133 35.5398V35.535Z" fill="white"/>
<path d="M246.152 35.7493C246.152 35.7493 246.152 35.7683 246.152 35.7779L247.046 35.7874V35.7064L246.147 35.6969C246.147 35.7159 246.152 35.735 246.152 35.7493Z" fill="white"/>
<path d="M246.124 36.0494C246.119 36.078 246.114 36.1018 246.104 36.1303L246.969 36.3256L246.989 36.2446L246.124 36.0494Z" fill="white"/>
<path d="M247.027 36.0541L247.037 35.9732L246.143 35.8779C246.143 35.8779 246.143 35.8875 246.143 35.897C246.143 35.916 246.143 35.9398 246.138 35.9589L247.008 36.0541H247.027Z" fill="white"/>
<path d="M246.902 36.5732L246.931 36.497L246.104 36.2256H246.085C246.075 36.2494 246.071 36.2732 246.061 36.297L246.888 36.5685H246.907L246.902 36.5732Z" fill="white"/>
<path d="M246.028 36.3875C246.018 36.4113 246.004 36.4351 245.989 36.459L246.782 36.8114L246.801 36.8209L246.835 36.7447L246.028 36.3828V36.3875Z" fill="white"/>
<path d="M245.912 36.6018L246.662 37.0304L246.681 37.0399L246.724 36.9685L245.955 36.5303C245.955 36.5303 245.931 36.578 245.917 36.6018" fill="white"/>
<path d="M245.816 36.7447L246.936 37.5543L246.984 37.4877L245.869 36.6828C245.869 36.6828 245.835 36.7257 245.816 36.7447Z" fill="white"/>
<path d="M245.749 36.8256C245.749 36.8256 245.715 36.8685 245.696 36.8875L247.762 38.7592L247.776 38.7735L247.834 38.7116L245.758 36.8351L245.749 36.8256Z" fill="white"/>
<path d="M245.571 37.0019L246.979 38.6116L247.041 38.5592L245.633 36.9495C245.633 36.9495 245.604 36.9733 245.585 36.9876C245.58 36.9923 245.576 36.9971 245.566 37.0019" fill="white"/>
<path d="M245.441 37.1066L247.037 39.1926L247.104 39.145L245.509 37.0543C245.509 37.0543 245.465 37.0924 245.446 37.1066" fill="white"/>
<path d="M245.278 37.2019L246.388 39.0784L246.397 39.0974L246.47 39.0545L245.355 37.1638C245.355 37.1638 245.307 37.1876 245.283 37.2019" fill="white"/>
<path d="M245.134 37.2781L246.152 39.4784L246.162 39.4974L246.239 39.4641L245.206 37.24C245.182 37.2495 245.158 37.2686 245.134 37.2781Z" fill="white"/>
<path d="M244.956 37.3352L245.393 38.6497V38.6687L245.48 38.6449L245.033 37.3162C245.009 37.3257 244.98 37.3304 244.956 37.34" fill="white"/>
<path d="M244.788 37.3781L245.316 39.626L245.398 39.607L244.869 37.3591C244.84 37.3638 244.816 37.3734 244.788 37.3781Z" fill="white"/>
<path d="M236.816 52.3086C236.816 52.3086 236.556 52.6039 236.7 52.8515C236.7 52.8515 236.96 53.1754 237.344 52.8515C237.344 52.8515 236.724 52.861 236.816 52.3086Z" fill="white"/>
<path d="M251.678 52.8515C252.063 53.1754 252.322 52.8515 252.322 52.8515C252.466 52.6039 252.207 52.3086 252.207 52.3086C252.298 52.861 251.678 52.8515 251.678 52.8515Z" fill="white"/>
<path d="M239.146 51.9943L239.012 51.9133L238.68 52.4705L238.815 52.5515C238.983 52.6515 239.151 52.6182 239.257 52.4372C239.363 52.2562 239.31 52.0943 239.146 51.9991" fill="white"/>
<path d="M240.237 52.561C240.078 52.4848 239.886 52.5515 239.809 52.723C239.728 52.8992 239.795 53.0897 239.953 53.1659C240.112 53.2421 240.304 53.1659 240.386 52.9944C240.468 52.8277 240.4 52.6372 240.237 52.5658" fill="white"/>
<path d="M244.004 53.5231C243.827 53.5135 243.678 53.6469 243.668 53.8326C243.658 54.0231 243.793 54.1755 243.966 54.1851C244.139 54.1946 244.288 54.0565 244.297 53.866C244.307 53.6802 244.173 53.5326 244 53.5231" fill="white"/>
<path d="M247.07 53.5707L246.883 53.6183L246.96 53.8993L247.147 53.8517C247.238 53.8278 247.277 53.7564 247.253 53.6754C247.229 53.5897 247.157 53.5469 247.07 53.5707Z" fill="white"/>
<path d="M247.123 53.3183C247.104 53.2468 247.046 53.2087 246.964 53.2278L246.792 53.2706L246.859 53.5183L247.032 53.4707C247.109 53.4516 247.142 53.3849 247.123 53.3135" fill="white"/>
<path d="M248.31 52.8039C248.281 52.8039 248.257 52.8039 248.195 52.8277L248.065 52.8801L248.18 53.1611L248.339 53.0992C248.425 53.0658 248.459 52.9896 248.421 52.8991C248.397 52.842 248.358 52.8087 248.31 52.8039Z" fill="white"/>
<path d="M249.43 52.3991L249.473 52.6848L249.704 52.561L249.487 52.3705C249.454 52.3372 249.401 52.28 249.401 52.28C249.401 52.28 249.42 52.361 249.43 52.4039" fill="white"/>
<path d="M251.88 52.4658L251.606 52.3658C251.861 52.2943 252.077 52.261 252.202 52.3134L251.871 52.0133C250.708 50.9704 249.396 51.699 249.396 51.699C248.103 52.4324 246.417 53.0802 244.509 53.0802C242.601 53.0802 240.915 52.4324 239.622 51.699C239.622 51.699 238.31 50.9704 237.147 52.0133L236.816 52.3134C236.941 52.261 237.157 52.2896 237.412 52.3658L237.138 52.4658C237.484 52.6039 237.344 52.8563 237.344 52.8563L237.767 52.4848C238.603 52.8087 239.627 53.4088 239.627 53.4088C240.881 54.1612 242.606 54.6327 244.514 54.6327C246.417 54.6327 248.147 54.1565 249.401 53.4088C249.401 53.4088 250.42 52.8087 251.26 52.4848L251.683 52.8563C251.683 52.8563 251.539 52.6039 251.89 52.4658M238.772 52.6468L238.527 52.5039L238.964 51.7705L239.209 51.9133C239.435 52.0467 239.502 52.2658 239.367 52.4991C239.228 52.7325 238.997 52.7801 238.772 52.6468ZM239.382 52.9849L239.276 52.9278L239.685 52.1753L239.79 52.2324L239.382 52.9849ZM239.901 53.2611C239.675 53.1564 239.584 52.8944 239.694 52.6706C239.8 52.4467 240.059 52.3562 240.285 52.4658C240.511 52.5706 240.602 52.823 240.497 53.0468C240.386 53.2754 240.132 53.3707 239.906 53.2659M241.102 53.004C241.102 53.004 241.054 52.9087 240.953 52.8658C240.867 52.8325 240.785 52.8658 240.761 52.9278C240.699 53.0944 241.102 53.1992 241.001 53.4564C240.953 53.5802 240.819 53.6421 240.66 53.585C240.487 53.5183 240.434 53.3802 240.434 53.3802L240.53 53.3183C240.53 53.3183 240.583 53.4373 240.703 53.485C240.775 53.5135 240.857 53.4945 240.886 53.4231C240.953 53.2516 240.55 53.1373 240.646 52.8944C240.694 52.7706 240.838 52.7134 240.992 52.7706C241.141 52.8277 241.189 52.9373 241.189 52.9373L241.102 53.0087V53.004ZM241.818 53.9565C241.626 53.9041 241.525 53.7469 241.573 53.5612L241.717 53.0278L241.833 53.0611L241.688 53.5945C241.655 53.7231 241.717 53.8183 241.847 53.8517C241.977 53.885 242.078 53.8326 242.116 53.704L242.26 53.1754L242.376 53.2087L242.231 53.7421C242.183 53.9231 242.015 54.0136 241.818 53.9612M243.043 54.1993L242.928 54.1803L242.649 53.5659C242.625 53.5135 242.601 53.4278 242.601 53.4278C242.601 53.4278 242.597 53.504 242.587 53.5516L242.486 54.0993L242.366 54.0755L242.52 53.2326L242.64 53.2516L242.919 53.866C242.943 53.9184 242.967 53.9993 242.967 53.9993C242.967 53.9993 242.971 53.9231 242.981 53.8755L243.082 53.3278L243.202 53.3516L243.048 54.1946L243.043 54.1993ZM243.37 54.2374L243.25 54.2232L243.351 53.3754L243.471 53.3897L243.37 54.2374ZM243.966 54.2994C243.716 54.2851 243.534 54.0803 243.548 53.8326C243.562 53.5897 243.764 53.4088 244.014 53.4231C244.264 53.4373 244.447 53.6326 244.432 53.8803C244.418 54.1327 244.216 54.3184 243.971 54.3041M245.143 54.2803L244.735 53.7421C244.701 53.6945 244.658 53.6231 244.658 53.6231C244.658 53.6231 244.668 53.6993 244.672 53.7469L244.696 54.2994H244.576L244.543 53.4516H244.663L245.066 53.985C245.1 54.0279 245.143 54.1041 245.143 54.1041C245.143 54.1041 245.134 54.0279 245.129 53.9803L245.105 53.4278H245.225L245.259 54.2755H245.139L245.143 54.2803ZM245.946 54.1993L245.811 53.3564L245.931 53.3373L246.052 54.0755L246.431 54.0136L246.45 54.1184L245.951 54.1993H245.946ZM246.546 54.0993L246.374 53.2611L246.494 53.2373L246.671 54.0755L246.551 54.0993H246.546ZM247.166 53.9517L246.868 54.0279L246.647 53.204L246.941 53.1278C247.08 53.0897 247.2 53.1421 247.238 53.2754C247.258 53.3564 247.238 53.4326 247.181 53.4802C247.277 53.485 247.349 53.5516 247.373 53.6469C247.416 53.8041 247.315 53.9136 247.166 53.9517ZM247.604 53.8326L247.33 53.0182L247.805 52.8611L247.839 52.9611L247.479 53.0802L247.565 53.3326L247.858 53.2373L247.892 53.3373L247.599 53.4326L247.685 53.6945L248.065 53.5707L248.099 53.6707L247.604 53.8326ZM248.685 53.4421L248.387 53.1945L248.214 53.2611L248.344 53.5755L248.233 53.6183L247.911 52.8277L248.156 52.7325C248.238 52.6992 248.276 52.6944 248.315 52.6896C248.406 52.6896 248.493 52.7468 248.536 52.8516C248.579 52.9516 248.555 53.0611 248.478 53.123C248.478 53.123 248.493 53.1325 248.517 53.1516L248.81 53.3897L248.685 53.4421ZM249.112 53.2516L248.791 52.5706L248.521 52.6944L248.478 52.5991L249.122 52.2991L249.165 52.3943L248.896 52.5182L249.218 53.1992L249.108 53.2516H249.112ZM249.977 52.8087L249.78 52.6325L249.492 52.7849L249.535 53.0421L249.425 53.0992L249.285 52.1991L249.396 52.1372L250.083 52.742L249.973 52.7992L249.977 52.8087ZM250.415 52.5515L250.17 52.7039L249.713 51.98L249.958 51.8276C250.184 51.6895 250.415 51.7324 250.559 51.961C250.703 52.1896 250.641 52.4182 250.415 52.5515Z" fill="white"/>
<path d="M250.006 51.9181L249.872 51.9991L250.218 52.5468L250.352 52.4658C250.515 52.3658 250.564 52.1991 250.453 52.0229C250.342 51.8467 250.174 51.8181 250.006 51.9181Z" fill="white"/>
<defs>
<clipPath id="clip0_30_2494">
<rect width="160.328" height="80.1639" fill="white" transform="translate(0.5 0.91803)"/>
</clipPath>
</defs>
</svg>
