<svg width="280" height="140" viewBox="0 0 280 140" fill="none" xmlns="http://www.w3.org/2000/svg">
<g clip-path="url(#clip0_28_419)">
<path d="M9.5129 34.8023V6.84587H0V0.76062H25.4397V6.84587H15.9268V34.8023H9.50351H9.5129Z" fill="#5F6368"/>
<path d="M36.4175 6.84587V14.7342H50.0623V20.8194H36.4175V28.7077H51.5836V34.7929H29.9941V0.76062H51.5836V6.84587H36.4175Z" fill="#5F6368"/>
<path d="M86.3017 29.3369C84.6207 31.3653 82.6392 32.9148 80.3573 33.976C78.0753 35.0371 75.521 35.5724 72.7038 35.5724C70.1682 35.5724 67.8112 35.1123 65.6419 34.192C63.4726 33.2717 61.5944 32.0227 60.0074 30.4356C58.4203 28.8486 57.1714 26.9704 56.2511 24.8011C55.3308 22.6319 54.8706 20.2936 54.8706 17.7862C54.8706 15.2789 55.3308 12.9405 56.2511 10.7713C57.1714 8.60199 58.4203 6.72382 60.0074 5.13678C61.5944 3.54973 63.4726 2.30075 65.6419 1.38045C67.8112 0.46015 70.1682 0 72.7038 0C75.4271 0 77.8311 0.478932 79.9065 1.4274C81.9819 2.37588 83.8319 3.75633 85.4471 5.56875L80.9301 9.94487C79.9159 8.77102 78.7514 7.84133 77.4367 7.13702C76.122 6.4421 74.5631 6.09464 72.7507 6.09464C71.1637 6.09464 69.6799 6.37636 68.2807 6.93042C66.8815 7.48448 65.67 8.27331 64.6464 9.28752C63.6135 10.3017 62.7965 11.5319 62.1954 12.9687C61.5944 14.4149 61.2939 16.0207 61.2939 17.7956C61.2939 19.5705 61.5944 21.1763 62.1954 22.6225C62.7965 24.0687 63.6135 25.2895 64.6464 26.3037C65.6794 27.3179 66.8908 28.1067 68.2807 28.6608C69.6705 29.2148 71.1637 29.4966 72.7507 29.4966C74.6571 29.4966 76.338 29.1115 77.8124 28.3321C79.2867 27.5527 80.5921 26.4539 81.7377 25.0265L86.3017 29.3557V29.3369Z" fill="#5F6368"/>
<path d="M101.89 0.76062H115.206C116.662 0.76062 118.024 0.995391 119.291 1.44615C120.559 1.9063 121.658 2.53548 122.597 3.35249C123.536 4.1601 124.268 5.10857 124.804 6.17912C125.339 7.25907 125.611 8.41413 125.611 9.65372C125.611 11.4568 125.179 12.9781 124.306 14.1989C123.433 15.4197 122.353 16.3494 121.047 16.9786V17.3542C122.794 17.9928 124.193 18.9788 125.254 20.3217C126.316 21.674 126.851 23.3455 126.851 25.3364C126.851 26.792 126.56 28.1067 125.968 29.2617C125.386 30.4168 124.578 31.4122 123.564 32.2292C122.55 33.0556 121.367 33.6848 120.024 34.1356C118.681 34.577 117.225 34.8023 115.676 34.8023H101.89V0.76062ZM114.737 14.6402C116.23 14.6402 117.376 14.2364 118.183 13.4288C118.991 12.6212 119.395 11.6634 119.395 10.5552C119.395 9.44713 119 8.49865 118.202 7.70043C117.413 6.9116 116.314 6.5078 114.925 6.5078H108.313V14.6402H114.737ZM115.441 28.9049C117.056 28.9049 118.296 28.5011 119.15 27.6935C120.005 26.8859 120.437 25.8435 120.437 24.5757C120.437 23.308 120.005 22.2562 119.132 21.411C118.258 20.5752 116.972 20.1527 115.253 20.1527H108.313V28.9049H115.45H115.441Z" fill="#5F6368"/>
<path d="M137.885 33.6661L128.091 11.5131H135.172L141.069 25.6369H141.398L147.06 11.5131H154L139.407 45.0853H132.702L137.885 33.6754V33.6661Z" fill="#5F6368"/>
<path d="M36.099 90.699V81.025H68.488C68.817 82.733 69.013 84.756 69.013 86.954C69.013 94.213 67.025 103.194 60.634 109.585C54.418 116.067 46.473 119.518 35.931 119.518C16.415 119.518 0 103.621 0 84.098C0 64.575 16.408 48.678 35.931 48.678C46.725 48.678 54.411 52.913 60.2 58.443L53.375 65.268C49.231 61.383 43.617 58.359 35.931 58.359C21.679 58.359 10.542 69.846 10.542 84.105C10.542 98.364 21.686 109.851 35.931 109.851C45.171 109.851 50.442 106.134 53.809 102.767C56.553 100.023 58.359 96.082 59.066 90.699H36.106H36.099Z" fill="#5F6368"/>
<path d="M118.356 96.719C118.356 109.851 108.08 119.525 95.473 119.525C82.866 119.525 72.583 109.851 72.583 96.719C72.583 83.587 82.859 73.913 95.473 73.913C108.087 73.913 118.356 83.503 118.356 96.719ZM108.339 96.719C108.339 88.515 102.382 82.894 95.473 82.894C88.564 82.894 82.607 88.508 82.607 96.719C82.607 104.93 88.564 110.544 95.473 110.544C102.382 110.544 108.339 104.846 108.339 96.719Z" fill="#5F6368"/>
<path d="M168.287 96.719C168.287 109.851 158.011 119.525 145.404 119.525C132.797 119.525 122.514 109.851 122.514 96.719C122.514 83.587 132.79 73.913 145.404 73.913C158.018 73.913 168.287 83.503 168.287 96.719ZM158.263 96.719C158.263 88.515 152.306 82.894 145.397 82.894C138.488 82.894 132.531 88.508 132.531 96.719C132.531 104.93 138.488 110.544 145.397 110.544C152.306 110.544 158.263 104.846 158.263 96.719Z" fill="#5F6368"/>
<path d="M216.139 75.292V116.242C216.139 133.091 206.206 140 194.46 140C183.407 140 176.757 132.573 174.251 126.525L182.973 122.899C184.527 126.616 188.328 131.019 194.46 131.019C201.971 131.019 206.64 126.357 206.64 117.628V114.345H206.297C204.05 117.11 199.731 119.525 194.292 119.525C182.889 119.525 172.438 109.592 172.438 96.803C172.438 84.014 182.889 73.913 194.292 73.913C199.731 73.913 204.05 76.335 206.297 79.009H206.64V75.292H216.139ZM207.333 96.803C207.333 88.767 201.978 82.894 195.153 82.894C188.328 82.894 182.455 88.767 182.455 96.803C182.455 104.839 188.244 110.537 195.153 110.537C202.062 110.537 207.333 104.748 207.333 96.803Z" fill="#5F6368"/>
<path d="M233.107 51.331V118.146H223.09V51.331H233.107Z" fill="#5F6368"/>
<path d="M271.796 104.237L279.566 109.417C277.06 113.134 271.019 119.525 260.568 119.525C247.611 119.525 237.944 109.501 237.944 96.719C237.944 83.153 247.702 73.913 259.448 73.913C271.194 73.913 277.067 83.328 278.964 88.424L280 91.014L249.515 103.628C251.846 108.206 255.472 110.537 260.568 110.537C265.664 110.537 269.206 108.031 271.796 104.23V104.237ZM247.87 96.026L268.254 87.563C267.134 84.714 263.76 82.726 259.791 82.726C254.695 82.726 247.611 87.22 247.87 96.033V96.026Z" fill="#5F6368"/>
</g>
<defs>
<clipPath id="clip0_28_419">
<rect width="280" height="140" fill="white"/>
</clipPath>
</defs>
</svg>
