<svg width="280" height="82" viewBox="0 0 280 82" fill="none" xmlns="http://www.w3.org/2000/svg">
<g clip-path="url(#clip0_30_2347)">
<path d="M4.95189 19.0343V4.48167H0V1.31403H13.2425V4.48167H8.29063V19.0343H4.947H4.95189Z" fill="black"/>
<path d="M18.9574 4.48167V8.58788H26.0602V11.7555H18.9574V15.8617H26.8521V19.0294H15.6138V1.31403H26.8521V4.48167H18.9574Z" fill="black"/>
<path d="M44.9238 16.1892C44.0488 17.2451 43.0173 18.0517 41.8295 18.604C40.6416 19.1564 39.312 19.4351 37.8455 19.4351C36.5256 19.4351 35.2986 19.1955 34.1694 18.7165C33.0402 18.2374 32.0626 17.5873 31.2364 16.7611C30.4103 15.935 29.7601 14.9573 29.2811 13.8281C28.802 12.6989 28.5625 11.4817 28.5625 10.1765C28.5625 8.87136 28.802 7.65416 29.2811 6.52496C29.7601 5.39575 30.4103 4.41808 31.2364 3.59195C32.0626 2.76582 33.0402 2.11567 34.1694 1.63662C35.2986 1.15756 36.5256 0.91803 37.8455 0.91803C39.2631 0.91803 40.5145 1.16734 41.5948 1.66106C42.6751 2.15478 43.6381 2.87337 44.4789 3.81682L42.1276 6.09478C41.5997 5.48374 40.9936 4.99979 40.3092 4.63317C39.6248 4.27143 38.8134 4.09056 37.8699 4.09056C37.0438 4.09056 36.2714 4.23721 35.5431 4.52563C34.8147 4.81404 34.1841 5.22466 33.6513 5.7526C33.1135 6.28054 32.6883 6.92091 32.3754 7.66883C32.0626 8.42163 31.9061 9.25754 31.9061 10.1814C31.9061 11.1053 32.0626 11.9412 32.3754 12.694C32.6883 13.4468 33.1135 14.0823 33.6513 14.6103C34.189 15.1382 34.8196 15.5488 35.5431 15.8372C36.2665 16.1257 37.0438 16.2723 37.8699 16.2723C38.8622 16.2723 39.7372 16.0719 40.5047 15.6662C41.2722 15.2604 41.9517 14.6885 42.548 13.9455L44.9238 16.199V16.1892Z" fill="black"/>
<path d="M53.0386 1.31403H59.9702C60.7279 1.31403 61.4367 1.43623 62.0967 1.67087C62.7566 1.9104 63.3285 2.23792 63.8174 2.66321C64.3062 3.08361 64.6875 3.57733 64.9661 4.1346C65.2448 4.69676 65.3865 5.29802 65.3865 5.94328C65.3865 6.88185 65.1617 7.67376 64.707 8.30924C64.2524 8.94473 63.6903 9.42867 63.0108 9.75619V9.95172C63.92 10.2841 64.6484 10.7974 65.2008 11.4964C65.7532 12.2004 66.0318 13.0705 66.0318 14.1068C66.0318 14.8645 65.8802 15.5489 65.5723 16.1501C65.2692 16.7514 64.8488 17.2696 64.3209 17.6949C63.7929 18.125 63.177 18.4525 62.478 18.6872C61.7789 18.9169 61.0212 19.0343 60.2147 19.0343H53.0386V1.31403ZM59.7258 8.53899C60.5031 8.53899 61.0994 8.32879 61.5198 7.9084C61.9402 7.488 62.1504 6.98939 62.1504 6.41257C62.1504 5.83574 61.9451 5.34202 61.5296 4.92651C61.119 4.51589 60.5471 4.30569 59.8236 4.30569H56.3822V8.53899H59.7258ZM60.0925 15.9644C60.9332 15.9644 61.5785 15.7542 62.0233 15.3338C62.4682 14.9134 62.693 14.3708 62.693 13.7109C62.693 13.0509 62.4682 12.5034 62.0136 12.0635C61.559 11.6284 60.8893 11.4084 59.9947 11.4084H56.3822V15.9644H60.0973H60.0925Z" fill="black"/>
<path d="M71.7758 18.4427L66.6772 6.91113H70.3631L73.4329 14.2632H73.604L76.5517 6.91113H80.1642L72.5677 24.387H69.0774L71.7758 18.4476V18.4427Z" fill="black"/>
<path d="M20.6703 52.8523V47.3129H39.2162C39.4046 48.2909 39.5168 49.4493 39.5168 50.7079C39.5168 54.8644 38.3785 60.0069 34.719 63.6664C31.1597 67.378 26.6104 69.354 20.5741 69.354C9.39922 69.354 0 60.2514 0 49.0725C0 37.8937 9.39521 28.7911 20.5741 28.7911C26.7547 28.7911 31.1557 31.216 34.4705 34.3825L30.5625 38.2905C28.1896 36.0659 24.9751 34.3344 20.5741 34.3344C12.4134 34.3344 6.03634 40.9119 6.03634 49.0766C6.03634 57.2412 12.4174 63.8187 20.5741 63.8187C25.8649 63.8187 28.8831 61.6903 30.811 59.7624C32.3822 58.1912 33.4163 55.9346 33.8212 52.8523H20.6743H20.6703Z" fill="black"/>
<path d="M67.7706 56.2993C67.7706 63.8187 61.8866 69.358 54.6678 69.358C47.4491 69.358 41.561 63.8187 41.561 56.2993C41.561 48.7799 47.4451 43.2406 54.6678 43.2406C61.8906 43.2406 67.7706 48.7318 67.7706 56.2993ZM62.0349 56.2993C62.0349 51.6017 58.6239 48.3831 54.6678 48.3831C50.7117 48.3831 47.3008 51.5977 47.3008 56.2993C47.3008 61.0009 50.7117 64.2155 54.6678 64.2155C58.6239 64.2155 62.0349 60.9528 62.0349 56.2993Z" fill="black"/>
<path d="M96.3614 56.2993C96.3614 63.8187 90.4774 69.358 83.2587 69.358C76.0399 69.358 70.1519 63.8187 70.1519 56.2993C70.1519 48.7799 76.0359 43.2406 83.2587 43.2406C90.4814 43.2406 96.3614 48.7318 96.3614 56.2993ZM90.6217 56.2993C90.6217 51.6017 87.2107 48.3831 83.2546 48.3831C79.2986 48.3831 75.8876 51.5977 75.8876 56.2993C75.8876 61.0009 79.2986 64.2155 83.2546 64.2155C87.2107 64.2155 90.6217 60.9528 90.6217 56.2993Z" fill="black"/>
<path d="M123.761 44.0302V67.4782C123.761 77.1259 118.073 81.082 111.348 81.082C105.019 81.082 101.211 76.8293 99.7759 73.3662L104.77 71.29C105.66 73.4183 107.836 75.9395 111.348 75.9395C115.648 75.9395 118.322 73.27 118.322 68.2718V66.3919H118.125C116.839 67.9752 114.366 69.358 111.251 69.358C104.722 69.358 98.7378 63.6704 98.7378 56.3474C98.7378 49.0244 104.722 43.2406 111.251 43.2406C114.366 43.2406 116.839 44.6274 118.125 46.1586H118.322V44.0302H123.761ZM118.719 56.3474C118.719 51.746 115.652 48.3831 111.744 48.3831C107.836 48.3831 104.474 51.746 104.474 56.3474C104.474 60.9488 107.788 64.2115 111.744 64.2115C115.7 64.2115 118.719 60.8967 118.719 56.3474Z" fill="black"/>
<path d="M133.477 30.3101V68.5683H127.741V30.3101H133.477Z" fill="black"/>
<path d="M155.63 60.6041L160.079 63.5702C158.644 65.6985 155.185 69.358 149.201 69.358C141.782 69.358 136.247 63.6183 136.247 56.2993C136.247 48.5314 141.834 43.2406 148.56 43.2406C155.286 43.2406 158.648 48.6316 159.735 51.5496L160.328 53.0326L142.872 60.2554C144.207 62.8767 146.283 64.2115 149.201 64.2115C152.119 64.2115 154.147 62.7765 155.63 60.6001V60.6041ZM141.93 55.9025L153.602 51.0566C152.961 49.4252 151.029 48.2869 148.756 48.2869C145.838 48.2869 141.782 50.8602 141.93 55.9065V55.9025Z" fill="black"/>
</g>
<line x1="184.778" y1="0.91803" x2="184.778" y2="81.0819" stroke="black" stroke-width="0.801639"/>
<path d="M244.062 4.92627L245.061 6.93606L247.301 7.25991L245.681 8.82202L246.066 11.0318L244.062 9.98884L242.058 11.0318L242.443 8.82202L240.823 7.25991L243.062 6.93606L244.062 4.92627Z" fill="black"/>
<path d="M258.78 8.65051L259.78 10.6603L262.019 10.9794L260.4 12.5463L260.784 14.7561L258.78 13.7131L256.776 14.7561L257.161 12.5463L255.542 10.9794L257.776 10.6603L258.78 8.65051Z" fill="black"/>
<path d="M270.068 17.7041L271.067 19.7139L273.306 20.033L271.687 21.5998L272.067 23.8097L270.068 22.7667L268.064 23.8097L268.444 21.5998L266.824 20.033L269.063 19.7139L270.068 17.7041Z" fill="black"/>
<path d="M276.512 30.663L277.516 32.6727L279.75 32.9966L278.131 34.5587L278.515 36.7685L276.512 35.7255L274.508 36.7685L274.892 34.5587L273.273 32.9966L275.512 32.6727L276.512 30.663Z" fill="black"/>
<path d="M276.762 45.7078L277.761 47.7176L280 48.0366L278.381 49.6035L278.765 51.8133L276.762 50.7703L274.758 51.8133L275.142 49.6035L273.518 48.0366L275.757 47.7176L276.762 45.7078Z" fill="black"/>
<path d="M270.078 58.7285L271.082 60.7383L273.316 61.0622L271.697 62.6243L272.081 64.8341L270.078 63.7911L268.074 64.8341L268.458 62.6243L266.839 61.0622L269.078 60.7383L270.078 58.7285Z" fill="black"/>
<path d="M258.852 67.7916L259.852 69.8014L262.091 70.1205L260.472 71.6874L260.851 73.8972L258.852 72.8542L256.849 73.8972L257.233 71.6874L255.609 70.1205L257.848 69.8014L258.852 67.7916Z" fill="black"/>
<path d="M244.057 70.9682L245.056 72.978L247.296 73.3018L245.676 74.8687L246.061 77.0738L244.057 76.0308L242.053 77.0738L242.438 74.8687L240.813 73.3018L243.053 72.978L244.057 70.9682Z" fill="black"/>
<path d="M229.588 67.7963L230.593 69.8061L232.827 70.13L231.208 71.6968L231.592 73.9019L229.588 72.8589L227.585 73.9019L227.969 71.6968L226.35 70.13L228.589 69.8061L229.588 67.7963Z" fill="black"/>
<path d="M218.354 58.7476L219.358 60.7573L221.597 61.0764L219.973 62.6433L220.358 64.8531L218.354 63.8101L216.355 64.8531L216.735 62.6433L215.115 61.0764L217.354 60.7573L218.354 58.7476Z" fill="black"/>
<path d="M211.665 45.803L212.664 47.8128L214.904 48.1366L213.284 49.6987L213.669 51.9085L211.665 50.8655L209.661 51.9085L210.046 49.6987L208.426 48.1366L210.666 47.8128L211.665 45.803Z" fill="black"/>
<path d="M211.665 30.663L212.664 32.6727L214.904 32.9966L213.284 34.5587L213.669 36.7685L211.665 35.7255L209.661 36.7685L210.046 34.5587L208.426 32.9966L210.666 32.6727L211.665 30.663Z" fill="black"/>
<path d="M218.017 17.7184L219.017 19.7282L221.256 20.052L219.637 21.6141L220.016 23.8239L218.017 22.781L216.014 23.8239L216.393 21.6141L214.774 20.052L217.013 19.7282L218.017 17.7184Z" fill="black"/>
<path d="M229.569 8.66003L230.574 10.6698L232.813 10.9889L231.189 12.5558L231.573 14.7656L229.569 13.7226L227.566 14.7656L227.95 12.5558L226.331 10.9889L228.57 10.6698L229.569 8.66003Z" fill="black"/>
<path d="M261.222 46.2173C261.222 46.2173 261.202 46.2126 261.188 46.2126C261.029 46.2126 260.909 46.3316 260.909 46.4888C260.909 46.646 261.029 46.765 261.188 46.765C261.197 46.765 261.207 46.7603 261.222 46.7603C261.231 46.7603 261.241 46.765 261.255 46.765C261.399 46.765 261.534 46.646 261.534 46.4888C261.534 46.3316 261.399 46.2126 261.255 46.2126C261.246 46.2126 261.231 46.2173 261.222 46.2173Z" fill="black"/>
<path d="M264.311 42.355C264.311 42.355 263.84 42.4407 263.634 42.6074C263.533 42.6883 263.389 42.7312 263.24 42.7693C263.312 42.6264 263.355 42.455 263.341 42.2407C263.292 41.7358 263.292 40.9119 263.292 40.9119C263.292 40.9119 263.124 41.4167 262.884 41.5358C262.629 41.6549 262.173 41.8216 262.086 41.993C262 42.1597 261.664 42.1597 261.529 42.6645C261.409 43.1551 261.409 43.117 261.322 43.2884C261.298 43.3408 261.255 43.3979 261.217 43.4599C261.375 42.7026 261.495 41.9216 261.495 41.2548C261.495 41.1357 261.495 41.0262 261.491 40.9119C261.615 40.8119 261.784 40.6357 261.784 40.6357C261.889 40.4595 263.187 40.0213 263.369 39.6737C263.552 39.3403 263.648 39.0974 263.73 38.9545C263.802 38.7973 263.97 38.2592 263.936 38.0211C263.912 37.7829 263.874 36.8828 263.792 36.7399C263.792 36.7399 263.393 36.9447 263.259 37.1495C263.22 37.2019 263.172 37.2495 263.115 37.2972C263.115 37.1781 263.1 37.0543 263.052 36.9352C262.87 36.4923 262.596 35.9065 262.596 35.9065C262.596 35.9065 262.355 36.278 262.221 36.5066C262.005 36.94 261.784 36.9733 261.75 37.14C261.726 37.321 261.462 37.4257 261.366 37.7734C261.332 37.8972 261.313 37.983 261.298 38.0496C261.202 37.3114 261.077 36.6352 260.938 36.0303C261 35.8351 261.068 35.4112 261.245 35.2731C261.5 35.0588 261.534 34.7682 261.534 34.4349C261.534 34.1015 261.462 33.8586 261.414 33.6443C261.375 33.4395 260.736 32.568 260.784 32.3155C260.784 32.3155 260.472 33.0252 260.352 33.3014C260.039 32.9918 259.554 32.6299 259.29 32.4965C259.131 32.2251 258.968 31.9488 258.804 31.6726C258.814 31.5916 258.828 31.4202 258.857 31.2392C258.905 30.9868 258.992 30.5677 258.905 30.3629C258.819 30.1581 258.651 29.9914 258.569 29.739C258.482 29.4866 258.449 29.3199 258.228 29.1151C258.021 28.9008 257.723 28.6103 257.723 28.6103C257.723 28.6103 257.642 28.9818 257.565 29.2818C257.488 29.2437 257.406 29.2151 257.348 29.2009C257.3 29.1818 257.19 29.1294 257.075 29.0627C256.93 28.8675 256.786 28.6817 256.656 28.5151C256.729 28.4674 256.781 28.3865 256.781 28.2864C256.781 28.1293 256.661 28.0102 256.503 28.0102C256.344 28.0102 256.224 28.1293 256.224 28.2864C256.224 28.4436 256.344 28.5627 256.503 28.5627C256.56 28.5627 256.608 28.5436 256.652 28.5151C256.69 28.5722 256.801 28.7437 256.964 29.0008C256.829 28.9294 256.695 28.8532 256.637 28.8151C256.527 28.7437 256.469 29.5628 256.719 30.02C256.681 30.0105 256.637 29.9962 256.599 29.9867C256.089 29.8533 255.633 29.9009 255.633 29.9009C255.753 29.9009 256.056 30.2248 256.089 30.3915C256.138 30.5582 256.431 30.9439 256.599 31.0154C256.767 31.1011 257.06 31.3154 257.228 31.4821C257.396 31.6488 257.92 31.6869 258.29 31.6869C258.439 31.7583 258.574 31.8012 258.66 31.7774C258.814 32.0441 258.973 32.3155 259.122 32.5822C259.074 32.787 258.997 33.1538 259.025 33.3014C258.819 33.2681 258.108 33.0966 258.108 33.0966C258.175 33.5062 258.295 33.9205 258.473 34.1396C258.434 34.1777 258.406 34.2253 258.391 34.2825C258.377 34.3682 258.401 34.4587 258.449 34.5349C258.458 34.5444 258.612 34.7825 258.848 34.8635L255.393 37.2733C255.667 33.2014 255.172 29.2961 255.056 28.4436C255.474 28.2865 255.364 28.1007 255.364 28.1007L255.2 27.6959C255.244 27.7149 255.292 27.7292 255.335 27.7292C255.412 27.7292 255.479 27.7007 255.532 27.6483C255.638 27.534 255.614 27.3435 255.484 27.2292C255.479 27.2196 255.373 27.1101 255.22 27.0387L255.71 26.9672L255.993 25.7861L254.835 26.1767L254.811 26.672C254.73 26.5243 254.609 26.4338 254.605 26.4291C254.47 26.31 254.278 26.3052 254.177 26.4195C254.071 26.5338 254.095 26.7243 254.225 26.8386C254.235 26.8482 254.422 27.0196 254.653 27.0625C254.653 27.072 254.662 27.0863 254.667 27.0958L248.872 33.4252L245.023 27.053C245.258 25.5099 244.422 23.162 244.389 23.0715C244.437 22.8667 244.466 22.6524 244.456 22.4381C244.72 22.3523 244.802 22.1476 244.821 22.0761C244.821 22.0761 244.826 22.0666 244.831 22.0618C244.831 22.0618 244.831 22.0618 244.831 22.0571V22.0475C244.831 22.0475 244.557 21.7142 244.389 21.557C244.475 21.576 244.557 21.5808 244.595 21.5808C244.61 21.5808 244.619 21.5808 244.619 21.5808C244.797 21.5808 244.941 21.457 244.941 21.2998C244.941 21.1427 244.797 21.0236 244.624 21.0236C244.624 21.0236 244.461 21.0093 244.297 21.0617L244.615 20.6807L244.019 19.6187L243.428 20.6807L243.745 21.0617C243.581 21.0093 243.432 21.0236 243.423 21.0236C243.327 21.0236 243.24 21.0569 243.178 21.1188C243.125 21.1712 243.101 21.2331 243.101 21.2998C243.101 21.3665 243.13 21.4332 243.178 21.4856C243.24 21.5475 243.327 21.5808 243.418 21.5808C243.418 21.5808 243.428 21.5808 243.447 21.5808C243.481 21.5808 243.543 21.5761 243.615 21.5618C243.514 21.6523 243.389 21.7951 243.303 21.8951C243.264 21.9285 243.235 21.9618 243.221 21.9904C243.207 22.0047 243.202 22.0142 243.202 22.0142C243.202 22.0142 243.202 22.0333 243.216 22.0571C243.216 22.0666 243.216 22.0761 243.216 22.0809C243.269 22.1857 243.332 22.2476 243.394 22.2904C242.952 23.1001 241.866 25.4527 242.495 27.9054L239.17 33.4157L233.356 27.0625C233.606 27.0339 233.812 26.8434 233.817 26.8339C233.889 26.772 233.928 26.6862 233.933 26.6005C233.933 26.5291 233.913 26.4624 233.865 26.4148C233.817 26.3624 233.755 26.3338 233.683 26.3338C233.601 26.3338 233.505 26.3624 233.442 26.4195C233.433 26.4243 233.313 26.5196 233.226 26.6672L233.202 26.1719L232.044 25.7814L232.328 26.9625L232.823 27.0339C232.669 27.1006 232.563 27.2149 232.558 27.2196C232.491 27.2816 232.448 27.3673 232.443 27.453C232.443 27.5244 232.462 27.5911 232.51 27.6387C232.553 27.6864 232.621 27.7197 232.693 27.7197C232.693 27.7197 232.702 27.7197 232.707 27.7197C232.755 27.7197 232.799 27.7054 232.842 27.6864L232.678 28.0912C232.678 28.0912 232.568 28.2769 232.986 28.4341C232.866 29.2866 232.376 33.1871 232.65 37.2638L229.195 34.854C229.43 34.773 229.584 34.5396 229.589 34.5301C229.637 34.4634 229.661 34.3825 229.651 34.3015C229.646 34.2348 229.617 34.1825 229.569 34.1396C229.752 33.9205 229.872 33.5062 229.939 33.0918C229.939 33.0918 229.228 33.2585 229.022 33.2966C229.046 33.1538 228.969 32.787 228.926 32.5775C229.079 32.306 229.233 32.0393 229.387 31.7726C229.473 31.7964 229.608 31.7536 229.757 31.6821C230.132 31.6821 230.655 31.644 230.824 31.4773C230.992 31.3107 231.285 31.0963 231.453 31.0106C231.621 30.9392 231.914 30.5534 231.962 30.3867C231.996 30.22 232.299 29.8962 232.419 29.8962C232.419 29.8962 231.962 29.8486 231.453 29.9819C231.415 29.9914 231.376 30.001 231.333 30.0152C231.583 29.558 231.525 28.7389 231.415 28.8103C231.352 28.8484 231.222 28.9246 231.088 28.9961C231.251 28.7389 231.362 28.5674 231.4 28.5103C231.443 28.5389 231.492 28.5579 231.549 28.5579C231.708 28.5579 231.828 28.4389 231.828 28.2817C231.828 28.1245 231.708 28.0055 231.549 28.0055C231.391 28.0055 231.27 28.1245 231.27 28.2817C231.27 28.3817 231.323 28.4579 231.395 28.5103C231.261 28.6722 231.122 28.858 230.977 29.058C230.862 29.1199 230.752 29.177 230.703 29.1961C230.646 29.2104 230.569 29.239 230.492 29.2771C230.415 28.977 230.333 28.6055 230.333 28.6055C230.333 28.6055 230.031 28.8913 229.824 29.1104C229.608 29.3152 229.569 29.4818 229.488 29.7343C229.401 29.9867 229.233 30.1534 229.151 30.3581C229.065 30.5629 229.151 30.982 229.199 31.2345C229.223 31.4154 229.243 31.5916 229.252 31.6678C229.084 31.9441 228.921 32.2155 228.762 32.4918C228.493 32.6251 228.013 32.9871 227.7 33.2966C227.58 33.0204 227.268 32.3108 227.268 32.3108C227.316 32.5632 226.677 33.4347 226.638 33.6395C226.59 33.8538 226.518 34.092 226.518 34.4301C226.518 34.7682 226.557 35.054 226.806 35.2683C226.979 35.4064 227.051 35.8303 227.114 36.0256C226.975 36.6304 226.85 37.3067 226.754 38.0449C226.744 37.9782 226.72 37.8925 226.686 37.7686C226.59 37.421 226.321 37.3114 226.302 37.1352C226.263 36.9685 226.047 36.9304 225.831 36.5018C225.696 36.2732 225.456 35.9017 225.456 35.9017C225.456 35.9017 225.177 36.4875 224.995 36.9304C224.952 37.0495 224.932 37.1686 224.932 37.2924C224.875 37.2495 224.827 37.2019 224.788 37.1448C224.654 36.94 224.255 36.7352 224.255 36.7352C224.168 36.878 224.135 37.7782 224.111 38.0163C224.072 38.2544 224.245 38.7926 224.317 38.9497C224.404 39.0926 224.5 39.3307 224.683 39.6689C224.865 40.0166 226.158 40.4547 226.268 40.6309C226.268 40.6309 226.436 40.8119 226.561 40.9071C226.561 41.0214 226.557 41.131 226.557 41.25C226.557 41.9168 226.677 42.6979 226.835 43.4551C226.792 43.3932 226.754 43.336 226.73 43.2836C226.643 43.117 226.643 43.1503 226.523 42.6598C226.388 42.1549 226.052 42.1549 225.965 41.9882C225.879 41.8216 225.423 41.6501 225.168 41.531C224.928 41.412 224.755 40.9071 224.755 40.9071C224.755 40.9071 224.755 41.7311 224.707 42.2359C224.692 42.4502 224.735 42.6264 224.807 42.7645C224.663 42.7264 224.514 42.6836 224.413 42.6026C224.207 42.4359 223.736 42.3502 223.736 42.3502C223.697 42.5169 223.952 43.4408 223.991 43.6789C224.039 43.9314 224.365 44.4314 224.5 44.5505C224.62 44.6838 224.793 44.8839 225.081 45.1744C225.384 45.4744 226.143 45.5316 226.979 45.8078C227.297 45.9126 227.479 46.1126 227.57 46.2507C227.599 46.3555 227.628 46.4507 227.643 46.5174C227.739 46.8794 227.859 47.3223 228.008 47.8033C227.772 47.4937 227.369 47.4175 226.898 47.3461C226.609 47.2985 225.471 47.0127 225.471 47.0127C225.74 47.2127 225.908 47.7604 226.076 48.2605C225.423 48.1271 224.755 48.2605 224.755 48.2605C224.875 48.3414 225.759 49.0987 225.879 49.5178C226.014 49.9226 226.47 50.6798 226.59 50.7608C226.725 50.8465 227.1 51.299 227.349 51.5514C227.604 51.8038 228.608 51.6705 228.945 51.6705C229.156 51.6705 229.497 51.8419 229.714 51.9133C229.925 52.2039 230.295 52.5801 230.78 53.0135C230.506 52.9182 230.021 52.6087 229.853 52.4134C229.69 52.1943 229.877 53.1516 230.064 53.4612C229.79 53.4374 229.497 53.3802 229.334 53.2516C229.055 53.0373 229.296 54.0041 229.598 54.2803C230.252 54.8566 230.189 54.9471 230.295 54.9852C229.747 55.0947 228.983 55.2804 228.753 55.1423C228.45 54.9756 229.089 55.5614 229.478 55.7043C230.036 55.9091 229.963 56.2663 230.564 56.4568C231.203 56.6616 231.881 56.914 232.256 56.8378C232.544 56.7759 232.765 56.6473 233.173 56.6092C233.539 56.5663 234.163 56.0806 234.87 55.9948C235.547 56.4092 236.244 56.7902 236.921 57.114C236.95 57.1283 236.989 57.1474 237.027 57.1664C236.955 57.1712 236.878 57.1807 236.787 57.1997C236.532 57.2569 235.494 57.4855 235.24 57.3664C235.009 57.2474 235.499 57.9189 235.811 58.1713C235.316 58.2666 234.629 58.3332 234.394 58.2761C234.057 58.2046 235.071 59.1762 235.47 59.281C235.489 59.281 235.499 59.2905 235.518 59.2953C235.192 59.4 234.894 59.4762 234.745 59.4715C234.394 59.4477 235.859 60.3954 236.258 60.3335C237.536 60.1525 238.747 60.5859 239.338 60.343C239.872 60.1382 240.184 59.9953 240.448 59.9144C240.713 59.8191 240.862 59.581 241.03 59.4572C241.155 59.3572 241.251 59.1524 241.688 58.9428C241.703 58.9666 241.712 58.9809 241.712 58.9809C241.712 58.9809 242.52 59.0286 243.062 58.9809C242.909 59.0381 242.721 59.1381 242.51 59.3095C241.847 59.5143 241.318 59.6905 241.15 59.7763C240.641 60.0287 239.348 61.1526 239.012 61.5241C239.012 61.5241 240.098 61.4384 240.271 61.4384C240.444 61.4384 240.814 60.6954 240.987 60.5669C241.035 60.5335 241.313 60.3906 241.717 60.2049C240.972 61.3908 242.058 62.3576 242.058 62.3576C241.77 62.0242 242.092 61.4336 242.092 61.4336L242.683 61.8051C241.938 60.543 243.091 59.7001 243.471 59.4667C243.509 59.4524 243.553 59.4381 243.591 59.4238C243.711 59.5762 243.875 59.6763 244.062 59.6763C244.249 59.6763 244.398 59.5858 244.514 59.4429C244.591 59.4715 244.667 59.5 244.74 59.5286C245.182 59.8239 246.128 60.6335 245.436 61.8099L246.027 61.4384C246.027 61.4384 246.354 62.0242 246.066 62.3623C246.066 62.3623 247.128 61.4146 246.431 60.2478C246.787 60.4145 247.027 60.5383 247.075 60.5669C247.243 60.7002 247.618 61.4384 247.786 61.4384C247.954 61.4384 249.045 61.5241 249.045 61.5241C248.709 61.1526 247.416 60.0287 246.907 59.7763C246.748 59.6953 246.258 59.5334 245.648 59.3429C245.422 59.1571 245.22 59.0476 245.057 58.9857C245.6 59.0333 246.407 58.9857 246.407 58.9857C246.407 58.9857 246.407 58.9809 246.417 58.9714C246.811 59.1714 246.907 59.3667 247.027 59.4619C247.195 59.581 247.339 59.8191 247.608 59.9192C247.873 60.0049 248.19 60.1478 248.718 60.3478C249.309 60.5859 250.52 60.1573 251.798 60.3382C252.197 60.4002 253.658 59.4524 253.307 59.4762C253.158 59.4858 252.865 59.4096 252.538 59.3C252.553 59.3 252.567 59.2905 252.586 59.2857C252.985 59.1762 253.999 58.2094 253.663 58.2808C253.427 58.338 252.735 58.2713 252.245 58.1761C252.558 57.9236 253.048 57.2521 252.817 57.3712C252.562 57.4903 251.524 57.2617 251.27 57.2045C251.183 57.1855 251.102 57.1759 251.03 57.1712C251.068 57.1521 251.106 57.1378 251.14 57.1188C251.818 56.7949 252.51 56.4139 253.192 55.9996C253.898 56.0853 254.523 56.5711 254.888 56.614C255.301 56.6521 255.518 56.7806 255.806 56.8426C256.181 56.914 256.858 56.6616 257.497 56.4616C258.103 56.2711 258.031 55.9091 258.583 55.7091C258.968 55.5662 259.612 54.9804 259.309 55.1471C259.078 55.2852 258.314 55.0995 257.766 54.9899C257.872 54.9518 257.81 54.8613 258.463 54.2851C258.766 54.0089 259.006 53.0373 258.728 53.2564C258.559 53.385 258.266 53.4421 257.997 53.4659C258.185 53.1564 258.372 52.1991 258.209 52.4182C258.04 52.6134 257.56 52.923 257.281 53.0182C257.766 52.5849 258.132 52.2039 258.348 51.9181C258.564 51.8467 258.905 51.6752 259.117 51.6752C259.453 51.6752 260.457 51.8086 260.712 51.5562C260.967 51.3037 261.342 50.8513 261.471 50.7656C261.591 50.6798 262.053 49.9274 262.182 49.5226C262.303 49.1035 263.187 48.351 263.307 48.2652C263.307 48.2652 262.644 48.1319 261.99 48.2652C262.158 47.7652 262.327 47.2175 262.596 47.0175C262.596 47.0175 261.462 47.3032 261.169 47.3508C260.698 47.4223 260.294 47.4985 260.059 47.808C260.203 47.3318 260.328 46.8889 260.424 46.5222C260.443 46.4555 260.467 46.3602 260.496 46.2555C260.587 46.1173 260.765 45.9173 261.087 45.8125C261.923 45.5363 262.682 45.4792 262.985 45.1791C263.273 44.8934 263.446 44.6886 263.566 44.5552C263.701 44.4362 264.028 43.9313 264.076 43.6837C264.114 43.4456 264.364 42.5216 264.33 42.355M261.289 41.5548C261.279 41.893 261.188 42.4931 261.029 43.2503C261.015 43.0027 260.933 42.7502 260.837 42.574C260.717 42.3216 260.549 42.3216 260.462 42.0692C260.376 41.8168 260.087 41.7358 259.919 41.531C259.751 41.3262 259.41 41.0786 259.41 41.0786C259.29 41.3643 259.251 42.4931 259.323 42.6598C259.347 42.7121 259.367 42.8026 259.386 42.9074C259.261 42.8598 259.155 42.8217 259.155 42.8217C258.939 43.3122 259.194 43.817 259.275 44.2695C259.299 44.4124 259.482 44.6886 259.564 44.8553C259.65 45.022 259.612 45.1791 259.698 45.3125C259.775 45.422 259.962 45.4363 260.15 45.6125C260.174 45.9221 260.208 46.1888 260.251 46.265C260.092 46.7984 259.91 47.3461 259.722 47.889C259.708 47.7128 259.65 47.5175 259.52 47.3127C259.304 46.9794 259.266 47.0032 259.146 46.6412C258.977 46.1888 258.636 46.1888 258.588 45.7316C258.588 45.7316 258.468 46.2697 258.43 46.7269C258.382 47.1842 258.468 47.3508 258.502 47.6033C258.535 47.7699 258.473 47.9509 258.425 48.1605C258.415 47.9176 258.362 47.5794 258.257 47.4366C258.122 47.2699 258.17 46.9317 258.17 46.9317C258.088 47.0889 257.709 47.6223 257.521 47.7795L257.363 47.5175C259.568 43.698 259.054 37.159 258.973 36.2637C259.328 36.1875 259.266 36.0065 259.266 36.0065L259.198 35.5779C259.232 35.6017 259.271 35.6207 259.309 35.635C259.333 35.6398 259.362 35.6446 259.386 35.6446C259.439 35.6446 259.487 35.6303 259.53 35.5969C259.592 35.5541 259.631 35.4826 259.641 35.4017C259.641 35.3969 259.641 35.3921 259.641 35.3874C259.799 35.5588 259.962 35.7112 260.092 35.7493C260.395 35.8351 260.65 35.9636 260.683 36.0827C260.875 36.8542 261.015 37.6686 261.111 38.4592C261.111 38.4592 261.111 38.4592 261.111 38.4544C260.775 38.083 260.688 37.3781 259.938 36.9923C259.938 36.9923 259.977 37.2924 259.938 37.4972C259.91 37.6258 259.862 37.9068 259.866 38.1496C259.607 37.9544 259.328 37.702 259.295 37.5924C259.295 37.5924 259.174 38.6211 259.463 39.1736C259.765 39.7118 259.765 39.9975 260.092 40.1213C260.429 40.2547 260.481 40.3356 260.602 40.4214C260.736 40.5071 260.938 40.6262 261.111 40.6262C261.154 40.6262 261.188 40.65 261.221 40.6928C261.241 40.7786 261.26 40.8643 261.289 40.9452C261.289 41.1691 261.289 41.3739 261.289 41.5644M231.991 37.0495L234.226 38.6068C234.211 38.9736 234.206 40.0689 234.543 41.0595L232.688 44.1361C232.38 43.4741 231.597 41.3215 231.991 37.0495ZM228.546 35.2445C228.546 35.2445 228.695 34.9873 228.93 34.954C228.974 35.1731 228.786 35.4112 228.786 35.416C228.757 35.4588 228.714 35.4922 228.666 35.5017C228.623 35.5112 228.584 35.5064 228.556 35.4874C228.527 35.4683 228.507 35.4302 228.503 35.3874C228.503 35.3398 228.512 35.2921 228.546 35.2397M235.883 30.1153L237.661 32.0584C237.623 32.5918 237.551 34.2634 238.012 35.3159L236.393 37.9972C236.008 37.221 235.206 34.9206 235.883 30.1153ZM242.817 28.8627C243.601 28.7246 244.413 28.7246 245.196 28.858L245.451 29.2771C244.499 29.0675 243.509 29.0723 242.558 29.2866L242.813 28.8627H242.817ZM243.019 28.5246L244.009 26.8863L244.994 28.5198C244.341 28.4341 243.673 28.4389 243.019 28.5293M242.342 29.6533C243.423 29.3533 244.591 29.3485 245.672 29.639L245.946 30.0914C245.335 29.8819 244.691 29.7724 244.028 29.7724C243.365 29.7724 242.692 29.8867 242.063 30.1057L242.337 29.6485L242.342 29.6533ZM241.799 30.5486C243.192 29.9438 244.807 29.9343 246.205 30.5248L253.038 41.8454H250.535C250.419 41.7739 250.309 41.7025 250.203 41.6168C250.165 41.5882 250.126 41.5548 250.088 41.531C249.915 41.4215 249.727 41.3882 249.53 41.4263C249.429 41.4453 249.329 41.4834 249.237 41.531C249.146 41.5787 249.055 41.6358 248.973 41.6977C248.963 41.7025 248.959 41.712 248.944 41.7168C248.901 41.7025 248.858 41.6834 248.819 41.6644C248.598 41.5596 248.391 41.4215 248.204 41.2691C248.142 41.2167 248.079 41.1738 248.007 41.1357C247.892 41.0786 247.767 41.0453 247.632 41.0453C247.541 41.0453 247.454 41.0595 247.368 41.0881C247.243 41.1262 247.128 41.1786 247.022 41.25C246.95 41.2977 246.878 41.3453 246.811 41.3977C246.801 41.4024 246.796 41.412 246.782 41.412C246.782 41.412 246.772 41.4072 246.767 41.4024C246.642 41.3215 246.508 41.2548 246.368 41.2024C246.244 41.1548 246.123 41.0881 246.008 41.0167C245.845 40.9167 245.686 40.8071 245.542 40.6881C245.489 40.6452 245.431 40.6071 245.374 40.5738C245.249 40.5023 245.119 40.4595 244.975 40.4499C244.879 40.4404 244.783 40.4499 244.687 40.469C244.557 40.4976 244.437 40.5404 244.321 40.6023C244.259 40.6357 244.201 40.6785 244.144 40.7166V36.7923C244.562 36.7685 244.884 36.6209 244.884 36.4494C244.884 36.278 244.581 35.0969 244.182 34.8111C244.163 34.7968 243.812 34.5301 243.351 34.7921C243.351 34.7921 242.832 35.0921 243.096 35.5112C243.096 35.5112 243.154 35.6398 243.38 35.5493C243.423 35.5303 243.529 35.4779 243.567 35.3207V35.4207C243.557 35.5636 243.36 35.6446 243.351 35.6493C243.221 36.0113 243.139 36.3637 243.139 36.4494C243.139 36.6256 243.466 36.7685 243.884 36.7923V40.769C243.884 40.769 243.86 40.7547 243.846 40.7452C243.673 40.6404 243.505 40.5261 243.351 40.3976C243.293 40.3499 243.235 40.3071 243.168 40.269C243.043 40.1975 242.909 40.1547 242.769 40.1404C242.654 40.1309 242.544 40.1404 242.433 40.1594C242.298 40.188 242.174 40.2356 242.049 40.3023C241.924 40.369 241.804 40.4452 241.688 40.5309C241.679 40.5357 241.674 40.5452 241.659 40.55C241.65 40.5452 241.64 40.5404 241.631 40.5309C241.578 40.5023 241.525 40.469 241.472 40.4404C241.4 40.4023 241.323 40.3642 241.246 40.3356C241.145 40.2975 241.044 40.2547 240.948 40.2023C240.669 40.0547 240.41 39.8832 240.165 39.6832C240.141 39.6641 240.117 39.6451 240.093 39.626C239.901 39.4832 239.689 39.3927 239.449 39.3736C239.439 39.3736 239.435 39.3736 239.425 39.3688H239.295C239.295 39.3688 239.276 39.3736 239.266 39.3736C239.113 39.3879 238.964 39.426 238.824 39.4831C238.661 39.5498 238.507 39.6355 238.363 39.7356C238.2 39.8499 238.046 39.9785 237.902 40.1166C237.714 40.2928 237.546 40.4833 237.383 40.6833C237.224 40.8786 237.08 41.0786 236.945 41.2881C236.936 41.2977 236.931 41.3072 236.921 41.3167C236.821 41.4358 236.72 41.5501 236.609 41.6644C236.542 41.7311 236.465 41.793 236.398 41.8549H235.004L241.818 30.5582L241.799 30.5486ZM251.63 37.9972L250.011 35.3159C250.472 34.2634 250.4 32.5965 250.362 32.0584L252.14 30.1153C252.812 34.9159 252.015 37.2162 251.63 37.9972ZM259.093 34.954C259.328 34.9873 259.477 35.2397 259.482 35.2493C259.511 35.2921 259.525 35.3445 259.525 35.3921C259.525 35.435 259.501 35.4731 259.472 35.4922C259.444 35.5112 259.4 35.5207 259.357 35.5064C259.309 35.4969 259.271 35.4636 259.237 35.416C259.237 35.416 259.049 35.1731 259.093 34.954ZM255.335 44.1361L253.48 41.0595C253.817 40.0689 253.812 38.9783 253.797 38.6116L256.032 37.0543C256.421 41.3167 255.647 43.4741 255.335 44.1361ZM231.367 47.8414L233.106 44.9553H254.268C254.268 44.9553 254.249 44.9458 254.244 44.941C254.206 44.922 254.172 44.9029 254.134 44.8839C254.009 44.8077 253.889 44.7219 253.773 44.6314C253.567 44.4695 253.37 44.2981 253.177 44.1171C252.899 43.8599 252.63 43.5884 252.365 43.317C252.192 43.136 252.019 42.955 251.856 42.7693C251.784 42.6883 251.707 42.6074 251.625 42.5359C251.481 42.4026 251.327 42.2788 251.164 42.174C251.092 42.1264 251.015 42.0882 250.938 42.0501H253.168L256.666 47.8461H231.371L231.367 47.8414ZM234.865 42.0454H236.157C235.908 42.2597 235.648 42.4645 235.374 42.6502C235.35 42.6693 235.326 42.6836 235.297 42.6979C235.153 42.7836 235.014 42.8836 234.879 42.9836C234.658 43.1503 234.447 43.3265 234.245 43.5122C234.038 43.6932 233.841 43.8837 233.644 44.0742L234.865 42.0454ZM243.961 41.2596C244.009 41.2834 244.057 41.3024 244.11 41.3215C244.168 41.3453 244.221 41.3691 244.278 41.3977C244.427 41.4786 244.571 41.5739 244.706 41.6787C244.932 41.8501 245.134 42.0454 245.321 42.2549C245.609 42.574 245.902 42.8884 246.205 43.1932C246.33 43.317 246.455 43.4456 246.58 43.5694C246.897 43.8837 247.224 44.1885 247.56 44.4838C247.579 44.5029 247.603 44.5219 247.623 44.5362C247.623 44.5362 247.632 44.5457 247.637 44.5505C247.637 44.5505 247.637 44.5505 247.637 44.5552H245.989C245.989 44.5552 245.989 44.5552 245.984 44.5552C245.965 44.5552 245.95 44.5505 245.936 44.541C245.898 44.5124 245.864 44.4838 245.825 44.4552C245.595 44.279 245.374 44.0885 245.158 43.8932C244.908 43.6694 244.663 43.4408 244.422 43.2122C243.899 42.7026 243.394 42.1787 242.899 41.6406C242.813 41.5453 242.731 41.4501 242.64 41.3596C242.452 41.1596 242.246 40.9738 242.029 40.8024C242.02 40.7976 242.015 40.7881 242.005 40.7833C242.01 40.7786 242.015 40.7738 242.02 40.7738C242.125 40.6976 242.236 40.6357 242.361 40.5881C242.428 40.5642 242.5 40.5404 242.572 40.5309C242.702 40.5119 242.822 40.5309 242.938 40.5928C242.995 40.6214 243.043 40.6547 243.091 40.6976C243.216 40.8024 243.351 40.8976 243.485 40.9881C243.639 41.0881 243.798 41.1834 243.971 41.2596M250.631 42.3502C250.655 42.3597 250.684 42.374 250.708 42.3835C250.77 42.4073 250.833 42.4407 250.89 42.474C251.049 42.5645 251.188 42.6788 251.323 42.7979C251.409 42.8741 251.491 42.9598 251.568 43.0455C251.722 43.217 251.88 43.3884 252.043 43.5551C252.188 43.7075 252.337 43.8552 252.486 44.0028C252.663 44.1838 252.851 44.3552 253.038 44.5219C253.048 44.5314 253.057 44.5362 253.062 44.5505C253.062 44.5505 253.057 44.5505 253.053 44.5505C253.043 44.5505 253.033 44.5505 253.024 44.5505H252.13C252.13 44.5505 252.087 44.5457 252.072 44.5314C251.899 44.3933 251.731 44.2457 251.568 44.0933C251.409 43.9456 251.251 43.798 251.092 43.6456C250.751 43.3075 250.419 42.9646 250.093 42.6121C250.025 42.5359 249.958 42.4597 249.886 42.3883C249.727 42.2264 249.554 42.074 249.367 41.9454C249.357 41.9406 249.353 41.9359 249.343 41.9263C249.343 41.9263 249.343 41.9168 249.353 41.9168C249.429 41.8692 249.511 41.8311 249.607 41.8073C249.699 41.7882 249.785 41.8025 249.867 41.8501C249.9 41.8692 249.929 41.893 249.958 41.9168C250.169 42.0883 250.39 42.2311 250.64 42.3454M249.381 42.4693C249.506 42.5788 249.622 42.6931 249.732 42.8169C249.972 43.0836 250.217 43.3456 250.467 43.598C250.693 43.8266 250.919 44.0504 251.154 44.2695C251.251 44.3552 251.342 44.4409 251.438 44.5267C251.443 44.5314 251.452 44.541 251.462 44.5505C251.457 44.5505 251.452 44.5505 251.448 44.5505C251.438 44.5505 251.428 44.5505 251.419 44.5505H250.16C250.16 44.5505 250.15 44.5505 250.145 44.5505C250.126 44.5505 250.117 44.5505 250.102 44.5362C250.016 44.4648 249.929 44.3981 249.843 44.3266C249.598 44.1219 249.367 43.9075 249.136 43.6932C249.002 43.5646 248.872 43.436 248.737 43.3075C248.396 42.9646 248.06 42.6169 247.733 42.2597C247.661 42.1835 247.594 42.1025 247.517 42.0263C247.397 41.9025 247.272 41.7835 247.137 41.6739C247.133 41.6692 247.123 41.6644 247.118 41.6596C247.118 41.6596 247.118 41.6596 247.118 41.6501C247.118 41.6501 247.123 41.6453 247.128 41.6453C247.214 41.5834 247.306 41.5263 247.406 41.4882C247.469 41.4644 247.536 41.4453 247.603 41.4405C247.676 41.4405 247.748 41.4548 247.815 41.4882C247.858 41.512 247.897 41.5406 247.935 41.5691C248.137 41.7358 248.353 41.8787 248.584 41.993C248.646 42.0263 248.713 42.0549 248.781 42.0787C248.843 42.1025 248.906 42.1359 248.963 42.1692C249.112 42.2549 249.247 42.355 249.377 42.4645M247.378 42.455C247.56 42.6598 247.748 42.8645 247.94 43.0646C248.113 43.2455 248.286 43.4265 248.464 43.6027C248.766 43.9028 249.074 44.1981 249.396 44.479C249.42 44.4981 249.444 44.5219 249.468 44.541C249.468 44.541 249.477 44.5505 249.482 44.5552C249.477 44.5552 249.473 44.5552 249.473 44.5552C249.463 44.5552 249.453 44.5552 249.444 44.5552H248.315C248.315 44.5552 248.315 44.5552 248.31 44.5552C248.291 44.5552 248.276 44.5552 248.257 44.541C248.17 44.4695 248.084 44.4028 248.002 44.3362C247.724 44.1076 247.459 43.8647 247.2 43.617C247.06 43.4837 246.921 43.3456 246.782 43.2122C246.412 42.8455 246.051 42.4693 245.705 42.0883C245.624 41.9978 245.547 41.912 245.46 41.8263C245.254 41.612 245.028 41.4167 244.778 41.2453C244.663 41.1643 244.543 41.0929 244.413 41.0262C244.408 41.0262 244.398 41.0214 244.394 41.0167C244.394 41.0167 244.394 41.0072 244.403 41.0072C244.509 40.9405 244.624 40.8881 244.744 40.8595C244.807 40.8452 244.869 40.8405 244.932 40.8452C245.009 40.85 245.081 40.8738 245.148 40.9119C245.201 40.9405 245.244 40.9738 245.292 41.0119C245.547 41.2167 245.816 41.3977 246.114 41.5358C246.157 41.5548 246.195 41.5739 246.239 41.5882C246.311 41.6168 246.383 41.6501 246.45 41.6882C246.604 41.7739 246.753 41.8787 246.887 41.993C247.06 42.1359 247.224 42.293 247.373 42.4597M242.212 41.4977C242.327 41.6072 242.433 41.7263 242.539 41.8454C242.659 41.9787 242.779 42.1073 242.899 42.2359C243.115 42.4693 243.336 42.6931 243.557 42.9217C243.956 43.3265 244.36 43.7218 244.783 44.098C244.946 44.2457 245.11 44.3886 245.278 44.5267C245.283 44.5314 245.292 44.541 245.307 44.5505C245.297 44.5505 245.292 44.5505 245.287 44.5505H233.736C233.736 44.5505 233.736 44.5362 233.745 44.5314C233.798 44.479 233.851 44.4267 233.904 44.3743C234.077 44.2076 234.25 44.0409 234.432 43.879C234.649 43.6837 234.87 43.4932 235.105 43.317C235.244 43.2122 235.389 43.1074 235.542 43.0217C235.586 42.9979 235.629 42.9693 235.667 42.936C236.032 42.6836 236.383 42.4073 236.705 42.1025C236.893 41.9263 237.066 41.7453 237.229 41.5453C237.239 41.531 237.248 41.5215 237.258 41.5072C237.392 41.2929 237.541 41.0881 237.705 40.8881C237.834 40.7309 237.969 40.5785 238.118 40.4357C238.272 40.288 238.43 40.1499 238.608 40.0308C238.723 39.9546 238.844 39.888 238.973 39.8356C239.06 39.8022 239.151 39.7784 239.247 39.7641C239.411 39.7451 239.564 39.7737 239.713 39.8546C239.776 39.888 239.833 39.9308 239.891 39.9737C240.021 40.0832 240.155 40.1832 240.295 40.2737C240.458 40.3833 240.626 40.4833 240.804 40.569C240.895 40.6166 240.991 40.6547 241.088 40.6928C241.15 40.7166 241.212 40.75 241.275 40.7786C241.438 40.8643 241.592 40.9691 241.736 41.0786C241.904 41.2072 242.063 41.3453 242.212 41.4929M239.603 48.5939C240.247 49.0701 240.9 49.3368 241.467 49.4892C241.02 49.6226 238.108 50.3846 235.619 48.5939H239.603ZM243.572 50.937C243.572 50.937 243.851 49.5035 244.009 48.5986C244.168 49.5035 244.446 50.937 244.446 50.937C244.615 51.6371 244.014 52.2658 244.009 52.2753C244.004 52.2658 243.404 51.6371 243.572 50.937ZM248.42 48.5939H252.404C249.915 50.3798 247.008 49.6226 246.556 49.4892C247.118 49.3416 247.772 49.0701 248.42 48.5939ZM258.555 34.4539C258.521 34.4063 258.506 34.3491 258.516 34.2968C258.516 34.2729 258.535 34.2444 258.559 34.2253C258.574 34.2348 258.583 34.2444 258.598 34.2539C258.752 34.3396 258.852 34.473 258.949 34.6016C258.958 34.6492 258.958 34.7016 258.949 34.754C258.723 34.7206 258.559 34.4634 258.555 34.4587M255.426 27.5483C255.369 27.6102 255.263 27.6006 255.181 27.5292C255.181 27.5292 254.97 27.3482 254.946 27.1339C254.951 27.1244 254.955 27.1196 254.96 27.1101C255.191 27.1006 255.378 27.3054 255.388 27.3101C255.465 27.3816 255.484 27.4863 255.431 27.5483M255.09 26.41L255.537 26.2576L255.426 26.7148L255.071 26.7672L255.09 26.41ZM254.259 26.4957C254.283 26.4672 254.316 26.4576 254.355 26.4576C254.403 26.4576 254.456 26.4767 254.504 26.5196C254.504 26.5196 254.715 26.6862 254.734 26.9006C254.706 26.9006 254.682 26.9053 254.658 26.9244C254.465 26.891 254.297 26.7386 254.292 26.7339C254.215 26.6624 254.196 26.5577 254.249 26.4957M244.562 21.1427C244.595 21.1427 244.61 21.1427 244.61 21.1427C244.715 21.1427 244.802 21.2093 244.802 21.2903C244.802 21.3713 244.715 21.4379 244.605 21.4379C244.605 21.4379 244.297 21.4522 244.139 21.2903C244.264 21.1569 244.47 21.1427 244.562 21.1427ZM244.014 20.2616L244.245 20.6712L244.014 20.9474L243.783 20.6712L244.014 20.2616ZM243.418 21.4379C243.36 21.4379 243.303 21.4189 243.264 21.3808C243.245 21.3617 243.226 21.3332 243.226 21.2903C243.226 21.2474 243.25 21.2189 243.264 21.1998C243.303 21.1617 243.356 21.1427 243.423 21.1427C243.423 21.1427 243.721 21.1141 243.884 21.2903C243.726 21.4522 243.423 21.4427 243.418 21.4379ZM243.913 24.1764C243.913 24.1764 244.235 23.6716 244.379 23.062C244.595 24.4145 244.326 25.4242 244.225 25.7337L244.009 25.3813L243.308 26.5434C243.264 26.1052 243.279 25.1765 243.913 24.1812M233.519 26.5148C233.563 26.4767 233.615 26.4529 233.673 26.4576C233.697 26.4576 233.736 26.4672 233.764 26.4957C233.793 26.5243 233.798 26.5624 233.793 26.591C233.793 26.6434 233.764 26.6958 233.716 26.7386C233.716 26.7386 233.515 26.9387 233.293 26.9387C233.284 26.9387 233.279 26.9387 233.269 26.9387C233.269 26.7053 233.51 26.5243 233.515 26.5196M232.481 26.2624L232.928 26.4148L232.947 26.772L232.592 26.7196L232.481 26.2624ZM232.688 27.5864C232.664 27.5864 232.626 27.5768 232.597 27.5483C232.568 27.5149 232.563 27.4816 232.563 27.453C232.563 27.4006 232.592 27.3482 232.64 27.3054C232.64 27.3054 232.827 27.1053 233.048 27.1053C233.058 27.1053 233.068 27.1053 233.082 27.1053C233.072 27.3292 232.842 27.5244 232.837 27.5292C232.794 27.5673 232.736 27.5911 232.683 27.5864M229.469 34.4587C229.469 34.4587 229.305 34.7159 229.079 34.7492C229.07 34.7016 229.074 34.6539 229.079 34.6111C229.18 34.4777 229.281 34.3444 229.44 34.2539C229.449 34.2491 229.459 34.2348 229.469 34.2301C229.493 34.2539 229.507 34.2825 229.512 34.3158C229.512 34.3634 229.502 34.4111 229.469 34.4587ZM226.739 40.9357C226.768 40.8548 226.787 40.769 226.806 40.6833C226.84 40.6452 226.878 40.6166 226.917 40.6166C227.085 40.6166 227.292 40.4976 227.426 40.4118C227.546 40.3261 227.594 40.2452 227.936 40.1118C228.262 39.9927 228.262 39.707 228.565 39.1641C228.853 38.6116 228.733 37.5829 228.733 37.5829C228.7 37.6972 228.421 37.9496 228.157 38.1401C228.157 37.8972 228.118 37.6162 228.085 37.4877C228.046 37.2829 228.085 36.9828 228.085 36.9828C227.335 37.3638 227.253 38.0734 226.912 38.4449C226.912 38.4449 226.912 38.4449 226.912 38.4497C227.008 37.6639 227.148 36.8447 227.34 36.0732C227.378 35.9541 227.628 35.8255 227.931 35.7398C228.056 35.7017 228.214 35.5541 228.373 35.3874C228.373 35.3874 228.373 35.3874 228.373 35.3921C228.378 35.4731 228.421 35.5445 228.483 35.5874C228.527 35.616 228.575 35.635 228.628 35.635C228.652 35.635 228.68 35.635 228.704 35.6255C228.743 35.616 228.781 35.5969 228.815 35.5684L228.743 35.997C228.743 35.997 228.68 36.178 229.036 36.2542C228.954 37.1495 228.44 43.6932 230.646 47.5128L230.492 47.7652C230.309 47.608 229.925 47.0746 229.848 46.9175C229.848 46.9175 229.896 47.2508 229.762 47.4223C229.656 47.5699 229.608 47.9033 229.593 48.1462C229.545 47.9366 229.488 47.7509 229.517 47.589C229.555 47.3366 229.637 47.1699 229.589 46.7127C229.555 46.2555 229.43 45.7173 229.43 45.7173C229.382 46.1745 229.046 46.1745 228.873 46.6269C228.753 46.9889 228.714 46.9651 228.498 47.2985C228.368 47.5032 228.31 47.6985 228.296 47.8747C228.104 47.3318 227.926 46.7841 227.767 46.2507C227.816 46.1745 227.844 45.9078 227.868 45.5982C228.056 45.4268 228.243 45.4125 228.32 45.2982C228.407 45.1648 228.368 45.0124 228.455 44.841C228.541 44.6743 228.719 44.3981 228.743 44.2552C228.829 43.798 229.079 43.2979 228.863 42.8074C228.863 42.8074 228.753 42.8455 228.632 42.8931C228.652 42.7883 228.666 42.6931 228.695 42.6455C228.767 42.4788 228.733 41.3548 228.613 41.0643C228.613 41.0643 228.272 41.3167 228.104 41.5167C227.936 41.7215 227.643 41.8025 227.561 42.0549C227.474 42.3073 227.306 42.3073 227.186 42.5597C227.095 42.736 227.013 42.9884 226.994 43.236C226.835 42.4788 226.744 41.8787 226.734 41.5406C226.734 41.3501 226.73 41.1453 226.734 40.9214M245.715 58.1951C245.158 58.2046 244.764 58.3904 244.634 58.4666C244.629 58.4571 244.624 58.4428 244.619 58.4332C244.797 58.1427 245.576 56.8902 246.095 56.2996C246.171 56.4806 246.46 57.314 245.72 58.1951M243.461 58.4618C243.327 58.3856 242.938 58.1999 242.38 58.1903C241.64 57.3093 241.928 56.4711 242.005 56.2949C242.524 56.8807 243.303 58.138 243.481 58.4285C243.476 58.438 243.471 58.4523 243.466 58.4618M256.402 53.2087C256.431 53.1611 256.45 53.1183 256.455 53.0849C256.493 52.8944 256.671 52.4991 256.623 52.2943C256.584 52.0896 256.503 51.5895 256.368 51.299C256.248 50.9989 255.955 50.3036 255.657 50.175C255.657 50.175 255.417 50.9656 255.33 51.2514C255.244 51.5514 255.162 51.8848 255.028 52.0419C254.989 52.0943 254.917 52.2134 254.84 52.3563C254.821 52.2372 254.826 52.242 254.855 51.8038C254.903 51.2514 254.018 50.3893 254.018 50.3893C254.105 50.6275 253.764 51.5847 253.596 51.8038C253.427 52.0086 253.173 52.6277 253.134 52.9992C253.096 53.385 252.928 53.6231 252.798 53.7898C252.548 54.1279 252.827 55.5471 252.86 55.7091C252.298 56.052 251.712 56.3901 251.169 56.6616C251.006 56.7425 250.823 56.8235 250.621 56.9092C250.66 56.8759 250.698 56.8426 250.732 56.8045C251.505 55.9901 251.467 55.7234 251.568 55.5233C251.827 55.4757 251.217 55.4138 250.861 55.4424C251.068 55.128 251.356 54.6994 251.558 54.3327C251.717 54.0327 250.203 54.428 250.203 54.428C250.04 54.4946 249.91 54.5423 249.799 54.5804C249.924 54.1327 250.054 53.6326 250.044 53.5326C250.035 53.4135 249.405 53.6183 248.896 53.8326C248.459 54.0136 248.209 54.3613 247.834 54.5851C247.387 54.8709 247.325 55.59 247.123 55.9282C246.984 56.1615 246.907 56.3377 246.859 56.4901C246.815 56.152 246.69 55.9996 246.561 55.9329C246.556 55.9329 246.546 55.9282 246.541 55.9234C246.537 55.9234 246.527 55.9186 246.517 55.9139C246.489 55.9043 246.46 55.8948 246.431 55.8901C246.335 55.871 246.176 55.8472 245.931 55.8186C245.595 55.7805 245.047 55.8186 244.797 56.2853C244.557 56.7187 244.341 57.7903 244.245 58.0427C244.182 58.0189 244.12 57.9999 244.048 57.9999C243.975 57.9999 243.913 58.0189 243.851 58.0427C243.754 57.7903 243.538 56.7187 243.298 56.2853C243.043 55.8186 242.5 55.7805 242.159 55.8186C241.914 55.8472 241.755 55.871 241.659 55.8901C241.631 55.8901 241.607 55.9043 241.573 55.9139C241.563 55.9139 241.558 55.9186 241.549 55.9234C241.544 55.9234 241.534 55.9282 241.53 55.9329C241.376 56.0139 241.222 56.2187 241.217 56.7044C241.193 56.5139 241.116 56.2853 240.905 55.9282C240.698 55.5948 240.641 54.8756 240.194 54.5851C239.819 54.3565 239.564 54.0089 239.132 53.8326C238.622 53.6183 237.998 53.4135 237.983 53.5326C237.969 53.6374 238.103 54.1327 238.228 54.5804C238.123 54.5423 237.993 54.4899 237.825 54.428C237.825 54.428 236.316 54.0327 236.47 54.3327C236.672 54.6994 236.96 55.128 237.166 55.4424C236.811 55.409 236.196 55.4757 236.46 55.5233C236.561 55.7186 236.518 55.9901 237.296 56.8045C237.335 56.8426 237.373 56.8711 237.407 56.9092C237.205 56.8283 237.022 56.7425 236.859 56.6616C236.311 56.3901 235.73 56.0567 235.168 55.7091C235.201 55.5471 235.48 54.1279 235.23 53.7898C235.095 53.6231 234.927 53.385 234.894 52.9992C234.855 52.6277 234.605 52.0038 234.432 51.8038C234.264 51.5895 233.923 50.6322 234.009 50.3893C234.009 50.3893 233.125 51.2514 233.173 51.8038C233.202 52.242 233.207 52.2372 233.188 52.3563C233.111 52.2134 233.044 52.0943 233 52.0419C232.866 51.8848 232.784 51.5514 232.698 51.2514C232.611 50.9656 232.371 50.175 232.371 50.175C232.068 50.3084 231.78 50.9989 231.66 51.299C231.525 51.5847 231.443 52.0896 231.405 52.2943C231.357 52.4991 231.54 52.8944 231.573 53.0849C231.573 53.1135 231.597 53.1564 231.626 53.2087C231.001 52.742 230.478 52.2848 229.973 51.5371C230.016 51.3371 230.064 51.1799 230.151 51.0989C230.271 50.9656 230.694 50.4655 230.78 50.1417C230.867 49.8035 230.78 49.5559 230.78 49.3892C230.78 49.2225 230.9 48.6463 230.9 48.6463C230.9 48.6463 230.896 48.6272 230.886 48.5986H231.588C232.842 49.513 237.349 52.3372 242.654 50.0417C242.625 50.1274 242.596 50.1941 242.572 50.2274C242.572 50.2274 241.434 51.7609 244.009 52.2801C246.585 51.7609 245.446 50.2274 245.446 50.2274C245.422 50.1941 245.393 50.1274 245.359 50.0369C250.664 52.3372 255.176 49.513 256.431 48.5986H257.142C257.132 48.6272 257.127 48.6463 257.127 48.6463C257.127 48.6463 257.248 49.2225 257.248 49.3892C257.248 49.5559 257.161 49.8083 257.248 50.1417C257.329 50.4655 257.757 50.9656 257.877 51.0989C257.963 51.1799 258.012 51.3323 258.055 51.5371C257.545 52.2848 257.026 52.742 256.402 53.2087Z" fill="black"/>
<path d="M252.293 54.6423C252.149 54.6423 252.039 54.7518 252.039 54.8804C252.039 55.0233 252.149 55.1328 252.293 55.1328C252.428 55.1328 252.548 55.0233 252.548 54.8804C252.548 54.747 252.428 54.6423 252.293 54.6423Z" fill="black"/>
<path d="M253.72 56.3759C253.576 56.3759 253.466 56.4949 253.466 56.6283C253.466 56.7711 253.576 56.8807 253.72 56.8807C253.855 56.8807 253.975 56.7711 253.975 56.6283C253.975 56.4949 253.855 56.3759 253.72 56.3759Z" fill="black"/>
<path d="M257.031 50.8942C256.896 50.8942 256.776 51.0037 256.776 51.1466C256.776 51.2799 256.896 51.399 257.031 51.399C257.175 51.399 257.286 51.2799 257.286 51.1466C257.286 51.0037 257.175 50.8942 257.031 50.8942Z" fill="black"/>
<path d="M258.809 52.1371C258.809 52.2943 258.944 52.4134 259.088 52.4134C259.246 52.4134 259.366 52.2943 259.366 52.1371C259.366 51.9942 259.246 51.8609 259.088 51.8609C258.944 51.8609 258.809 51.9942 258.809 52.1371Z" fill="black"/>
<path d="M259.463 46.2602C259.621 46.2602 259.741 46.1412 259.741 45.984C259.741 45.8411 259.621 45.7078 259.463 45.7078C259.319 45.7078 259.184 45.8411 259.184 45.984C259.184 46.1412 259.319 46.2602 259.463 46.2602Z" fill="black"/>
<path d="M260.308 40.7261C260.15 40.7261 260.03 40.8452 260.03 41.0024C260.03 41.1452 260.15 41.2786 260.308 41.2786C260.467 41.2786 260.587 41.1452 260.587 41.0024C260.587 40.8452 260.467 40.7261 260.308 40.7261Z" fill="black"/>
<path d="M261.855 36.2398C262.014 36.2398 262.134 36.1208 262.134 35.9779C262.134 35.8207 262.014 35.7017 261.855 35.7017C261.711 35.7017 261.577 35.8207 261.577 35.9779C261.577 36.1208 261.711 36.2398 261.855 36.2398Z" fill="black"/>
<path d="M259.886 36.74C260.044 36.74 260.164 36.6209 260.164 36.4637C260.164 36.3209 260.044 36.1875 259.886 36.1875C259.727 36.1875 259.607 36.3209 259.607 36.4637C259.607 36.6209 259.727 36.74 259.886 36.74Z" fill="black"/>
<path d="M258.228 32.2632C258.228 32.1203 258.108 32.0012 257.949 32.0012C257.805 32.0012 257.67 32.1203 257.67 32.2632C257.67 32.4203 257.805 32.5394 257.949 32.5394C258.108 32.5394 258.228 32.4203 258.228 32.2632Z" fill="black"/>
<path d="M259.424 31.3773C259.583 31.3773 259.703 31.2582 259.703 31.1011C259.703 30.9582 259.583 30.8248 259.424 30.8248C259.266 30.8248 259.146 30.9582 259.146 31.1011C259.146 31.2582 259.266 31.3773 259.424 31.3773Z" fill="black"/>
<path d="M262.207 41.05C262.207 41.1929 262.327 41.312 262.485 41.312C262.629 41.312 262.75 41.1929 262.75 41.05C262.75 40.9071 262.629 40.7881 262.485 40.7881C262.327 40.7881 262.207 40.9071 262.207 41.05Z" fill="black"/>
<path d="M235.734 54.6423C235.6 54.6423 235.479 54.7518 235.479 54.8804C235.479 55.0233 235.6 55.1328 235.734 55.1328C235.878 55.1328 235.989 55.0233 235.989 54.8804C235.989 54.747 235.878 54.6423 235.734 54.6423Z" fill="black"/>
<path d="M234.562 56.6283C234.562 56.4949 234.452 56.3759 234.307 56.3759C234.173 56.3759 234.053 56.4949 234.053 56.6283C234.053 56.7711 234.173 56.8807 234.307 56.8807C234.452 56.8807 234.562 56.7711 234.562 56.6283Z" fill="black"/>
<path d="M230.996 50.8942C230.852 50.8942 230.742 51.0037 230.742 51.1466C230.742 51.2799 230.852 51.399 230.996 51.399C231.131 51.399 231.251 51.2799 231.251 51.1466C231.251 51.0037 231.131 50.8942 230.996 50.8942Z" fill="black"/>
<path d="M228.945 52.4134C229.089 52.4134 229.223 52.2943 229.223 52.1371C229.223 51.9942 229.089 51.8609 228.945 51.8609C228.786 51.8609 228.666 51.9942 228.666 52.1371C228.666 52.2943 228.786 52.4134 228.945 52.4134Z" fill="black"/>
<path d="M228.57 45.7078C228.411 45.7078 228.291 45.8411 228.291 45.984C228.291 46.1412 228.411 46.2602 228.57 46.2602C228.714 46.2602 228.848 46.1412 228.848 45.984C228.848 45.8411 228.719 45.7078 228.57 45.7078Z" fill="black"/>
<path d="M227.119 46.4888C227.119 46.3316 226.999 46.2126 226.84 46.2126C226.696 46.2126 226.562 46.3316 226.562 46.4888C226.562 46.646 226.696 46.765 226.84 46.765C226.999 46.765 227.119 46.646 227.119 46.4888Z" fill="black"/>
<path d="M227.724 41.2786C227.883 41.2786 228.003 41.1452 228.003 41.0024C228.003 40.8452 227.883 40.7261 227.724 40.7261C227.565 40.7261 227.445 40.8452 227.445 41.0024C227.445 41.1452 227.565 41.2786 227.724 41.2786Z" fill="black"/>
<path d="M226.177 36.2398C226.321 36.2398 226.456 36.1208 226.456 35.9779C226.456 35.8207 226.321 35.7017 226.177 35.7017C226.019 35.7017 225.898 35.8207 225.898 35.9779C225.898 36.1208 226.019 36.2398 226.177 36.2398Z" fill="black"/>
<path d="M228.147 36.1875C227.988 36.1875 227.868 36.3209 227.868 36.4637C227.868 36.6209 227.988 36.74 228.147 36.74C228.305 36.74 228.426 36.6209 228.426 36.4637C228.426 36.3209 228.305 36.1875 228.147 36.1875Z" fill="black"/>
<path d="M229.8 32.2632C229.8 32.4203 229.92 32.5394 230.079 32.5394C230.223 32.5394 230.357 32.4203 230.357 32.2632C230.357 32.1203 230.223 32.0012 230.079 32.0012C229.92 32.0012 229.8 32.1203 229.8 32.2632Z" fill="black"/>
<path d="M228.603 31.3773C228.762 31.3773 228.882 31.2582 228.882 31.1011C228.882 30.9582 228.762 30.8248 228.603 30.8248C228.445 30.8248 228.325 30.9582 228.325 31.1011C228.325 31.2582 228.445 31.3773 228.603 31.3773Z" fill="black"/>
<path d="M225.826 41.05C225.826 40.9071 225.706 40.7881 225.547 40.7881C225.403 40.7881 225.283 40.9071 225.283 41.05C225.283 41.1929 225.403 41.312 225.547 41.312C225.706 41.312 225.826 41.1929 225.826 41.05Z" fill="black"/>
<path d="M240.747 37.1971C240.867 37.1733 240.905 37.2066 240.953 37.3162L241.025 37.2923L240.953 37.1257L241.438 36.9209L241.39 36.8256L240.713 37.1257L240.751 37.1971H240.747Z" fill="black"/>
<path d="M240.588 36.3351L240.492 36.3494L240.578 36.7209L240.987 36.6828L240.977 36.6114C240.915 36.5876 240.881 36.5399 240.867 36.4923C240.857 36.4066 240.891 36.3256 240.987 36.3018C241.083 36.278 241.169 36.3113 241.193 36.4113C241.217 36.4971 241.193 36.5685 241.107 36.5923L241.131 36.6876C241.289 36.6257 241.299 36.5066 241.275 36.4113C241.212 36.1827 241.035 36.1827 240.963 36.2066C240.804 36.2399 240.756 36.3732 240.78 36.4923C240.794 36.5542 240.828 36.6018 240.867 36.6257L240.66 36.6352L240.588 36.3351Z" fill="black"/>
<path d="M240.626 35.735C240.761 35.7493 240.794 35.6398 240.818 35.5921L240.866 35.435C240.9 35.3159 240.929 35.2778 241.011 35.2921C241.121 35.3064 241.131 35.4254 241.121 35.4969C241.111 35.5921 241.059 35.7017 240.929 35.6874L240.914 35.7826C240.987 35.7922 241.049 35.7826 241.121 35.7207C241.145 35.6969 241.193 35.635 241.208 35.5064C241.217 35.3731 241.184 35.2064 241.001 35.1968C240.89 35.1873 240.818 35.2445 240.794 35.3397L240.722 35.554C240.713 35.5921 240.684 35.6398 240.612 35.6398C240.501 35.6255 240.492 35.5207 240.501 35.4493C240.501 35.3635 240.549 35.2826 240.669 35.2826V35.1873C240.583 35.1873 240.429 35.1968 240.405 35.4635C240.391 35.6445 240.501 35.7255 240.621 35.7398" fill="black"/>
<path d="M241.409 34.5872L241.328 34.5634L241.179 34.9921L240.938 34.9111L241.073 34.5253L240.987 34.492L240.852 34.8873L240.636 34.8158L240.78 34.3967L240.684 34.3586L240.516 34.8873L241.241 35.1111L241.409 34.5872Z" fill="black"/>
<path d="M241.515 34.4206L241.236 34.2491L241.356 34.0491C241.438 33.9062 241.385 33.7872 241.284 33.73C241.236 33.7014 241.183 33.6919 241.126 33.7062C241.073 33.7205 241.015 33.7586 240.977 33.8205L240.813 34.1063L241.448 34.5016L241.51 34.4254L241.515 34.4206ZM240.953 34.0586L241.063 33.8872C241.092 33.8443 241.126 33.811 241.179 33.8205C241.193 33.8205 241.212 33.8348 241.232 33.8443C241.304 33.8919 241.304 33.9539 241.256 34.0253L241.159 34.1825L240.953 34.0634V34.0586Z" fill="black"/>
<path d="M241.472 33.3633L241.953 33.8205L242.015 33.749L241.544 33.2918L241.727 33.1013L241.655 33.0394L241.227 33.4823L241.29 33.5443L241.472 33.3633Z" fill="black"/>
<path d="M242.351 33.4728L241.895 32.8727L241.823 32.9347L242.27 33.53L242.351 33.4728Z" fill="black"/>
<path d="M242.971 33.1108L242.933 33.0394L242.52 33.2442L242.414 33.0299L242.774 32.8394L242.741 32.7537L242.366 32.9442L242.255 32.7441L242.654 32.5393L242.62 32.4536L242.125 32.706L242.476 33.3775L242.971 33.1108Z" fill="black"/>
<path d="M243.154 33.0633L243.058 32.6203C243.058 32.6203 243.024 32.5108 243.01 32.4394L243.36 33.0156L243.457 32.9918L243.529 32.3346C243.553 32.406 243.562 32.4918 243.562 32.5156L243.658 32.9442L243.755 32.9347L243.596 32.1917L243.452 32.2298L243.38 32.9013L243.029 32.3251L242.885 32.3489L243.053 33.0775L243.149 33.0633H243.154Z" fill="black"/>
<path d="M244.196 32.9394C244.365 32.949 244.466 32.8585 244.466 32.7394C244.475 32.6061 244.384 32.5727 244.336 32.5489C244.418 32.5108 244.442 32.4394 244.442 32.3917C244.451 32.2822 244.384 32.1965 244.24 32.187L243.908 32.1774L243.875 32.9251L244.196 32.9347V32.9394ZM244.023 32.2822L244.192 32.3013C244.302 32.3013 244.341 32.3346 244.341 32.406C244.326 32.4918 244.283 32.5156 244.182 32.5013H244.009L244.028 32.287L244.023 32.2822ZM244.192 32.6108C244.264 32.6108 244.35 32.6346 244.35 32.7299C244.35 32.8013 244.293 32.8489 244.192 32.8489L243.999 32.8299L244.009 32.587L244.192 32.6061V32.6108Z" fill="black"/>
<path d="M244.73 32.7013L244.975 32.768C245.095 32.8061 245.085 32.8727 245.071 32.9299C245.056 32.9537 245.023 33.0632 245.037 33.1109L245.157 33.1442V33.1347C245.133 33.1109 245.138 33.0966 245.148 33.0489L245.167 32.9204C245.205 32.8251 245.167 32.787 245.133 32.7632C245.181 32.7394 245.258 32.7251 245.282 32.6156C245.33 32.4584 245.22 32.3917 245.1 32.3584L244.758 32.2441L244.557 32.9775L244.653 33.0013L244.73 32.6918V32.7013ZM244.85 32.3774L245.066 32.4536C245.114 32.4632 245.191 32.4822 245.152 32.5917C245.128 32.687 245.061 32.6822 244.984 32.6679L244.778 32.606L244.85 32.3727V32.3774Z" fill="black"/>
<path d="M245.715 33.4728L245.748 33.4014L245.364 33.1728L245.484 32.9585L245.845 33.1633L245.893 33.0871L245.532 32.8727L245.652 32.6822L246.042 32.9108L246.09 32.8251L245.604 32.5489L245.229 33.1966L245.715 33.4728Z" fill="black"/>
<path d="M246.181 33.9491C246.349 34.13 246.551 34.0491 246.685 33.9395C246.854 33.8062 246.897 33.6109 246.762 33.4585L246.561 33.2347L245.984 33.7109L246.176 33.9538L246.181 33.9491ZM246.671 33.5347C246.758 33.63 246.743 33.7347 246.609 33.8538C246.474 33.9633 246.354 33.9586 246.267 33.8633L246.152 33.7347L246.551 33.3966L246.666 33.5347H246.671Z" fill="black"/>
<path d="M246.69 34.7635L246.777 34.7302L246.57 34.3206L246.801 34.2158L246.983 34.5873L247.065 34.5397L246.873 34.1777L247.089 34.0729L247.286 34.4682L247.368 34.4301L247.113 33.9396L246.44 34.273L246.69 34.7635Z" fill="black"/>
<path d="M247.334 35.2445L246.815 35.3159L246.825 35.4111L247.565 35.3016L247.551 35.2302C247.43 35.2206 247.416 35.1825 247.382 35.0635L247.31 35.073L247.334 35.2397V35.2445Z" fill="black"/>
<path d="M247.392 35.6826C247.32 35.6826 247.267 35.716 247.243 35.7874C247.219 35.7017 247.156 35.6541 247.06 35.6398C247.022 35.6398 246.959 35.6398 246.887 35.7064C246.839 35.7684 246.825 35.8398 246.825 35.8874C246.815 36.0541 246.935 36.1351 247.041 36.1351C247.099 36.1446 247.185 36.1255 247.233 36.0303C247.243 36.0684 247.286 36.1256 247.382 36.1256C247.478 36.1398 247.584 36.0779 247.584 35.9112C247.598 35.7445 247.478 35.6779 247.392 35.6779M247.046 36.0351C246.935 36.0351 246.926 35.9493 246.926 35.8874C246.926 35.7779 247.007 35.7588 247.065 35.7588C247.123 35.7588 247.19 35.8112 247.18 35.9065C247.18 35.9779 247.147 36.0351 247.051 36.0351M247.392 36.0351C247.329 36.0255 247.276 35.9684 247.276 35.8969C247.276 35.8398 247.329 35.7922 247.392 35.7922C247.44 35.7922 247.497 35.816 247.488 35.9112C247.488 36.0065 247.43 36.0303 247.392 36.0303" fill="black"/>
<path d="M247.281 36.297L247.267 36.3922C247.315 36.4018 247.435 36.4399 247.401 36.5732C247.377 36.6827 247.291 36.7066 247.243 36.6827C247.147 36.6732 247.123 36.6018 247.099 36.5161L247.075 36.4065C247.036 36.297 246.978 36.216 246.82 36.1684L246.7 36.6589L246.786 36.6827L246.882 36.2875C246.921 36.297 246.969 36.3351 246.993 36.4446L247.017 36.5303C247.05 36.6637 247.089 36.7589 247.209 36.7828C247.344 36.8209 247.449 36.7351 247.488 36.6161C247.502 36.5446 247.526 36.3637 247.281 36.3065" fill="black"/>
<path d="M247.142 36.9923L247.07 37.1495L246.599 36.9209L246.551 37.0161L247.228 37.3257L247.252 37.2543C247.156 37.1828 247.166 37.1352 247.214 37.0161L247.142 36.9923Z" fill="black"/>
<path d="M243.091 39.6356L243.173 39.6546L243.726 37.3829C243.702 37.3829 243.668 37.3829 243.644 37.3734L243.096 39.6165V39.6356H243.091Z" fill="black"/>
<path d="M243.01 38.664L243.087 38.6925L243.553 37.3495C243.524 37.34 243.5 37.3352 243.476 37.3257L243.019 38.6497V38.6687L243.01 38.664Z" fill="black"/>
<path d="M242.222 39.4927L242.294 39.526L243.365 37.2876C243.341 37.2781 243.312 37.2686 243.288 37.2543L242.226 39.4688L242.217 39.4879L242.222 39.4927Z" fill="black"/>
<path d="M242.054 39.1212L243.216 37.221C243.192 37.2067 243.168 37.1971 243.144 37.1829L241.981 39.0831L242.054 39.126V39.1212Z" fill="black"/>
<path d="M241.332 39.1498L241.318 39.1688L241.38 39.2212L243.038 37.1257C243.038 37.1257 242.995 37.0924 242.976 37.0733L241.332 39.1545V39.1498Z" fill="black"/>
<path d="M241.443 38.6354L242.909 37.0209C242.909 37.0209 242.866 36.9828 242.846 36.9637L241.381 38.5782L241.443 38.6306V38.6354Z" fill="black"/>
<path d="M242.784 36.9066C242.784 36.9066 242.75 36.8638 242.731 36.8447L240.564 38.7402L240.617 38.8021L242.774 36.9162H242.784V36.9066Z" fill="black"/>
<path d="M242.664 36.759C242.664 36.759 242.625 36.7161 242.611 36.6971L241.467 37.4972L241.453 37.5067L241.501 37.5734L242.668 36.759H242.664Z" fill="black"/>
<path d="M242.558 36.6161C242.558 36.6161 242.529 36.5685 242.519 36.5447L241.717 36.9876L241.755 37.059L242.558 36.6161Z" fill="black"/>
<path d="M241.602 36.7637L241.635 36.8399L242.481 36.4732C242.471 36.4494 242.452 36.4256 242.442 36.4018L241.602 36.7637Z" fill="black"/>
<path d="M241.505 36.5113L241.529 36.5923L242.39 36.3161L242.409 36.3113L242.385 36.2303L241.505 36.5113Z" fill="black"/>
<path d="M242.361 36.1446C242.356 36.116 242.346 36.0922 242.341 36.0684L241.438 36.2637L241.457 36.3446L242.361 36.1494V36.1446Z" fill="black"/>
<path d="M241.39 35.9875L241.4 36.0684L242.327 35.9732C242.327 35.9446 242.322 35.9208 242.317 35.8922L241.385 35.9922L241.39 35.9875Z" fill="black"/>
<path d="M241.376 35.8017L242.308 35.7921C242.308 35.7921 242.308 35.7683 242.308 35.754C242.308 35.7398 242.308 35.7255 242.308 35.7112L241.371 35.7207V35.8017H241.376Z" fill="black"/>
<path d="M241.395 35.5493L242.308 35.6255H242.322C242.322 35.6017 242.322 35.5731 242.332 35.5445L241.424 35.4683H241.405L241.395 35.5493Z" fill="black"/>
<path d="M241.419 35.2588L242.337 35.4588C242.342 35.4302 242.346 35.4064 242.351 35.3778L241.433 35.1778L241.419 35.2588Z" fill="black"/>
<path d="M241.496 35.0159L242.366 35.3016H242.38C242.38 35.3016 242.395 35.254 242.404 35.2254L241.525 34.9397L241.501 35.0159H241.496Z" fill="black"/>
<path d="M241.606 34.692L241.573 34.7682L242.433 35.1302C242.443 35.1064 242.457 35.0825 242.467 35.0587L241.621 34.7015L241.602 34.692H241.606Z" fill="black"/>
<path d="M241.688 34.5206L242.505 34.9587H242.514C242.514 34.9587 242.539 34.9159 242.553 34.8921L241.726 34.4492L241.688 34.5206Z" fill="black"/>
<path d="M241.847 34.2967L242.591 34.8254C242.591 34.8254 242.625 34.7825 242.644 34.7634L241.895 34.23L241.847 34.2967Z" fill="black"/>
<path d="M242.077 34.0205L242.024 34.0824L242.712 34.6682H242.716C242.716 34.6682 242.75 34.6301 242.769 34.6111L242.096 34.03L242.082 34.0157L242.077 34.0205Z" fill="black"/>
<path d="M242.27 33.8348L242.212 33.8919L242.841 34.5444C242.841 34.5444 242.885 34.5111 242.904 34.492L242.289 33.8491L242.274 33.8348H242.27Z" fill="black"/>
<path d="M242.481 33.6681L242.418 33.7205L242.985 34.4253C242.985 34.4253 243.024 34.392 243.048 34.3729L242.495 33.6871L242.481 33.6729V33.6681Z" fill="black"/>
<path d="M242.741 33.5204L242.668 33.5633L243.115 34.3301C243.115 34.3301 243.163 34.311 243.187 34.2967L242.745 33.5395L242.736 33.5204H242.741Z" fill="black"/>
<path d="M242.976 33.4156L242.899 33.449L243.274 34.2491C243.298 34.2396 243.322 34.2253 243.346 34.2158L242.981 33.4347L242.971 33.4156H242.976Z" fill="black"/>
<path d="M243.24 33.3252L243.164 33.3538L243.457 34.1872C243.481 34.1777 243.51 34.1682 243.534 34.1634L243.245 33.349V33.33L243.24 33.3252Z" fill="black"/>
<path d="M243.514 33.2442L243.433 33.2633L243.615 34.1396C243.644 34.1396 243.668 34.13 243.697 34.1253L243.519 33.268V33.249L243.514 33.2442Z" fill="black"/>
<path d="M243.803 34.111C243.832 34.111 243.856 34.1062 243.884 34.1015L243.793 33.2061H243.711L243.803 34.1062V34.111Z" fill="black"/>
<path d="M244.043 33.2014H243.961L243.971 34.0967C243.971 34.0967 243.98 34.0967 243.985 34.0967C244.009 34.0967 244.033 34.1015 244.052 34.1015L244.043 33.2252V33.2061V33.2014Z" fill="black"/>
<path d="M244.134 34.0967V34.1062C244.158 34.1062 244.187 34.111 244.215 34.1158L244.302 33.2156L244.22 33.2061L244.134 34.0967Z" fill="black"/>
<path d="M244.374 34.1443H244.394L244.571 33.2585L244.49 33.2442L244.312 34.13C244.312 34.13 244.35 34.1443 244.374 34.1491" fill="black"/>
<path d="M244.835 33.349L244.759 33.3252L244.475 34.1586V34.1777C244.475 34.1777 244.523 34.192 244.547 34.2015L244.831 33.3728L244.84 33.3538L244.835 33.349Z" fill="black"/>
<path d="M245.085 33.449L245.008 33.4156L244.648 34.2158V34.2253C244.648 34.2253 244.691 34.2539 244.715 34.2634L245.076 33.4633L245.085 33.4442V33.449Z" fill="black"/>
<path d="M245.235 33.5157L244.802 34.2825L244.792 34.2967L244.865 34.3396L245.307 33.5585L245.235 33.5157Z" fill="black"/>
<path d="M244.932 34.3777V34.3872C244.932 34.3872 244.965 34.4206 244.989 34.4396L245.537 33.7348L245.552 33.7205L245.484 33.6729L244.932 34.3825V34.3777Z" fill="black"/>
<path d="M245.071 34.4968L245.128 34.5492L245.734 33.9015L245.748 33.8872L245.686 33.83L245.071 34.4968Z" fill="black"/>
<path d="M245.196 34.6158L245.253 34.6777L245.926 34.0777L245.873 34.0157L245.196 34.6158Z" fill="black"/>
<path d="M245.33 34.7539L245.316 34.7634C245.316 34.7634 245.354 34.8015 245.369 34.8254L246.08 34.3015L246.094 34.292L246.046 34.2253L245.33 34.7539Z" fill="black"/>
<path d="M245.422 34.8826L245.407 34.8921C245.407 34.8921 245.436 34.9397 245.446 34.9635L246.234 34.5254L246.253 34.5158L246.215 34.4444L245.426 34.8826H245.422Z" fill="black"/>
<path d="M245.503 35.0444H245.494C245.503 35.073 245.518 35.0968 245.527 35.1206L246.344 34.7635L246.363 34.7539L246.33 34.6777L245.503 35.0397V35.0444Z" fill="black"/>
<path d="M245.556 35.2159C245.566 35.2397 245.571 35.2683 245.58 35.2969L246.416 35.0159H246.436L246.407 34.9302L245.556 35.2159Z" fill="black"/>
<path d="M245.604 35.3683C245.609 35.3969 245.619 35.4207 245.624 35.4493L246.513 35.2492L246.493 35.1683L245.609 35.3635L245.604 35.3683Z" fill="black"/>
<path d="M245.633 35.535C245.633 35.5636 245.638 35.5874 245.643 35.616L246.517 35.5398H246.537L246.527 35.4588L245.633 35.5398V35.535Z" fill="black"/>
<path d="M245.652 35.7493C245.652 35.7493 245.652 35.7683 245.652 35.7779L246.546 35.7874V35.7064L245.647 35.6969C245.647 35.7159 245.652 35.735 245.652 35.7493Z" fill="black"/>
<path d="M245.624 36.0494C245.619 36.078 245.614 36.1018 245.604 36.1303L246.469 36.3256L246.489 36.2446L245.624 36.0494Z" fill="black"/>
<path d="M246.527 36.0541L246.537 35.9732L245.643 35.8779C245.643 35.8779 245.643 35.8875 245.643 35.897C245.643 35.916 245.643 35.9398 245.638 35.9589L246.508 36.0541H246.527Z" fill="black"/>
<path d="M246.402 36.5732L246.431 36.497L245.604 36.2256H245.585C245.575 36.2494 245.571 36.2732 245.561 36.297L246.388 36.5685H246.407L246.402 36.5732Z" fill="black"/>
<path d="M245.528 36.3875C245.518 36.4113 245.504 36.4351 245.489 36.459L246.282 36.8114L246.301 36.8209L246.335 36.7447L245.528 36.3828V36.3875Z" fill="black"/>
<path d="M245.412 36.6018L246.162 37.0304L246.181 37.0399L246.224 36.9685L245.455 36.5303C245.455 36.5303 245.431 36.578 245.417 36.6018" fill="black"/>
<path d="M245.316 36.7447L246.436 37.5543L246.484 37.4877L245.369 36.6828C245.369 36.6828 245.335 36.7257 245.316 36.7447Z" fill="black"/>
<path d="M245.249 36.8256C245.249 36.8256 245.215 36.8685 245.196 36.8875L247.262 38.7592L247.276 38.7735L247.334 38.7116L245.258 36.8351L245.249 36.8256Z" fill="black"/>
<path d="M245.071 37.0019L246.479 38.6116L246.541 38.5592L245.133 36.9495C245.133 36.9495 245.104 36.9733 245.085 36.9876C245.08 36.9923 245.076 36.9971 245.066 37.0019" fill="black"/>
<path d="M244.941 37.1066L246.537 39.1926L246.604 39.145L245.009 37.0543C245.009 37.0543 244.965 37.0924 244.946 37.1066" fill="black"/>
<path d="M244.778 37.2019L245.888 39.0784L245.897 39.0974L245.97 39.0545L244.855 37.1638C244.855 37.1638 244.807 37.1876 244.783 37.2019" fill="black"/>
<path d="M244.634 37.2781L245.652 39.4784L245.662 39.4974L245.739 39.4641L244.706 37.24C244.682 37.2495 244.658 37.2686 244.634 37.2781Z" fill="black"/>
<path d="M244.456 37.3352L244.893 38.6497V38.6687L244.98 38.6449L244.533 37.3162C244.509 37.3257 244.48 37.3304 244.456 37.34" fill="black"/>
<path d="M244.288 37.3781L244.816 39.626L244.898 39.607L244.369 37.3591C244.34 37.3638 244.316 37.3734 244.288 37.3781Z" fill="black"/>
<path d="M236.316 52.3086C236.316 52.3086 236.056 52.6039 236.2 52.8515C236.2 52.8515 236.46 53.1754 236.844 52.8515C236.844 52.8515 236.224 52.861 236.316 52.3086Z" fill="black"/>
<path d="M251.178 52.8515C251.563 53.1754 251.822 52.8515 251.822 52.8515C251.966 52.6039 251.707 52.3086 251.707 52.3086C251.798 52.861 251.178 52.8515 251.178 52.8515Z" fill="black"/>
<path d="M238.646 51.9943L238.512 51.9133L238.18 52.4705L238.315 52.5515C238.483 52.6515 238.651 52.6182 238.757 52.4372C238.863 52.2562 238.81 52.0943 238.646 51.9991" fill="black"/>
<path d="M239.737 52.561C239.578 52.4848 239.386 52.5515 239.309 52.723C239.228 52.8992 239.295 53.0897 239.453 53.1659C239.612 53.2421 239.804 53.1659 239.886 52.9944C239.968 52.8277 239.9 52.6372 239.737 52.5658" fill="black"/>
<path d="M243.504 53.5231C243.327 53.5135 243.178 53.6469 243.168 53.8326C243.158 54.0231 243.293 54.1755 243.466 54.1851C243.639 54.1946 243.788 54.0565 243.797 53.866C243.807 53.6802 243.673 53.5326 243.5 53.5231" fill="black"/>
<path d="M246.57 53.5707L246.383 53.6183L246.46 53.8993L246.647 53.8517C246.738 53.8278 246.777 53.7564 246.753 53.6754C246.729 53.5897 246.657 53.5469 246.57 53.5707Z" fill="black"/>
<path d="M246.623 53.3183C246.604 53.2468 246.546 53.2087 246.464 53.2278L246.292 53.2706L246.359 53.5183L246.532 53.4707C246.609 53.4516 246.642 53.3849 246.623 53.3135" fill="black"/>
<path d="M247.81 52.8039C247.781 52.8039 247.757 52.8039 247.695 52.8277L247.565 52.8801L247.68 53.1611L247.839 53.0992C247.925 53.0658 247.959 52.9896 247.921 52.8991C247.897 52.842 247.858 52.8087 247.81 52.8039Z" fill="black"/>
<path d="M248.93 52.3991L248.973 52.6848L249.204 52.561L248.987 52.3705C248.954 52.3372 248.901 52.28 248.901 52.28C248.901 52.28 248.92 52.361 248.93 52.4039" fill="black"/>
<path d="M251.38 52.4658L251.106 52.3658C251.361 52.2943 251.577 52.261 251.702 52.3134L251.371 52.0133C250.208 50.9704 248.896 51.699 248.896 51.699C247.603 52.4324 245.917 53.0802 244.009 53.0802C242.101 53.0802 240.415 52.4324 239.122 51.699C239.122 51.699 237.81 50.9704 236.647 52.0133L236.316 52.3134C236.441 52.261 236.657 52.2896 236.912 52.3658L236.638 52.4658C236.984 52.6039 236.844 52.8563 236.844 52.8563L237.267 52.4848C238.103 52.8087 239.127 53.4088 239.127 53.4088C240.381 54.1612 242.106 54.6327 244.014 54.6327C245.917 54.6327 247.647 54.1565 248.901 53.4088C248.901 53.4088 249.92 52.8087 250.76 52.4848L251.183 52.8563C251.183 52.8563 251.039 52.6039 251.39 52.4658M238.272 52.6468L238.027 52.5039L238.464 51.7705L238.709 51.9133C238.935 52.0467 239.002 52.2658 238.867 52.4991C238.728 52.7325 238.497 52.7801 238.272 52.6468ZM238.882 52.9849L238.776 52.9278L239.185 52.1753L239.29 52.2324L238.882 52.9849ZM239.401 53.2611C239.175 53.1564 239.084 52.8944 239.194 52.6706C239.3 52.4467 239.559 52.3562 239.785 52.4658C240.011 52.5706 240.102 52.823 239.997 53.0468C239.886 53.2754 239.632 53.3707 239.406 53.2659M240.602 53.004C240.602 53.004 240.554 52.9087 240.453 52.8658C240.367 52.8325 240.285 52.8658 240.261 52.9278C240.199 53.0944 240.602 53.1992 240.501 53.4564C240.453 53.5802 240.319 53.6421 240.16 53.585C239.987 53.5183 239.934 53.3802 239.934 53.3802L240.03 53.3183C240.03 53.3183 240.083 53.4373 240.203 53.485C240.275 53.5135 240.357 53.4945 240.386 53.4231C240.453 53.2516 240.05 53.1373 240.146 52.8944C240.194 52.7706 240.338 52.7134 240.492 52.7706C240.641 52.8277 240.689 52.9373 240.689 52.9373L240.602 53.0087V53.004ZM241.318 53.9565C241.126 53.9041 241.025 53.7469 241.073 53.5612L241.217 53.0278L241.333 53.0611L241.188 53.5945C241.155 53.7231 241.217 53.8183 241.347 53.8517C241.477 53.885 241.578 53.8326 241.616 53.704L241.76 53.1754L241.876 53.2087L241.731 53.7421C241.683 53.9231 241.515 54.0136 241.318 53.9612M242.543 54.1993L242.428 54.1803L242.149 53.5659C242.125 53.5135 242.101 53.4278 242.101 53.4278C242.101 53.4278 242.097 53.504 242.087 53.5516L241.986 54.0993L241.866 54.0755L242.02 53.2326L242.14 53.2516L242.419 53.866C242.443 53.9184 242.467 53.9993 242.467 53.9993C242.467 53.9993 242.471 53.9231 242.481 53.8755L242.582 53.3278L242.702 53.3516L242.548 54.1946L242.543 54.1993ZM242.87 54.2374L242.75 54.2232L242.851 53.3754L242.971 53.3897L242.87 54.2374ZM243.466 54.2994C243.216 54.2851 243.034 54.0803 243.048 53.8326C243.062 53.5897 243.264 53.4088 243.514 53.4231C243.764 53.4373 243.947 53.6326 243.932 53.8803C243.918 54.1327 243.716 54.3184 243.471 54.3041M244.643 54.2803L244.235 53.7421C244.201 53.6945 244.158 53.6231 244.158 53.6231C244.158 53.6231 244.168 53.6993 244.172 53.7469L244.196 54.2994H244.076L244.043 53.4516H244.163L244.566 53.985C244.6 54.0279 244.643 54.1041 244.643 54.1041C244.643 54.1041 244.634 54.0279 244.629 53.9803L244.605 53.4278H244.725L244.759 54.2755H244.639L244.643 54.2803ZM245.446 54.1993L245.311 53.3564L245.431 53.3373L245.552 54.0755L245.931 54.0136L245.95 54.1184L245.451 54.1993H245.446ZM246.046 54.0993L245.874 53.2611L245.994 53.2373L246.171 54.0755L246.051 54.0993H246.046ZM246.666 53.9517L246.368 54.0279L246.147 53.204L246.441 53.1278C246.58 53.0897 246.7 53.1421 246.738 53.2754C246.758 53.3564 246.738 53.4326 246.681 53.4802C246.777 53.485 246.849 53.5516 246.873 53.6469C246.916 53.8041 246.815 53.9136 246.666 53.9517ZM247.104 53.8326L246.83 53.0182L247.305 52.8611L247.339 52.9611L246.979 53.0802L247.065 53.3326L247.358 53.2373L247.392 53.3373L247.099 53.4326L247.185 53.6945L247.565 53.5707L247.599 53.6707L247.104 53.8326ZM248.185 53.4421L247.887 53.1945L247.714 53.2611L247.844 53.5755L247.733 53.6183L247.411 52.8277L247.656 52.7325C247.738 52.6992 247.776 52.6944 247.815 52.6896C247.906 52.6896 247.993 52.7468 248.036 52.8516C248.079 52.9516 248.055 53.0611 247.978 53.123C247.978 53.123 247.993 53.1325 248.017 53.1516L248.31 53.3897L248.185 53.4421ZM248.612 53.2516L248.291 52.5706L248.021 52.6944L247.978 52.5991L248.622 52.2991L248.665 52.3943L248.396 52.5182L248.718 53.1992L248.608 53.2516H248.612ZM249.477 52.8087L249.28 52.6325L248.992 52.7849L249.035 53.0421L248.925 53.0992L248.785 52.1991L248.896 52.1372L249.583 52.742L249.473 52.7992L249.477 52.8087ZM249.915 52.5515L249.67 52.7039L249.213 51.98L249.458 51.8276C249.684 51.6895 249.915 51.7324 250.059 51.961C250.203 52.1896 250.141 52.4182 249.915 52.5515Z" fill="black"/>
<path d="M249.506 51.9181L249.372 51.9991L249.718 52.5468L249.852 52.4658C250.015 52.3658 250.064 52.1991 249.953 52.0229C249.842 51.8467 249.674 51.8181 249.506 51.9181Z" fill="black"/>
<defs>
<clipPath id="clip0_30_2347">
<rect width="160.328" height="80.1639" fill="white" transform="translate(0 0.91803)"/>
</clipPath>
</defs>
</svg>
