<svg width="281" height="140" viewBox="0 0 281 140" fill="none" xmlns="http://www.w3.org/2000/svg">
<g clip-path="url(#clip0_28_450)">
<path d="M10.1794 34.8023V6.84587H0.666504V0.76062H26.1062V6.84587H16.5933V34.8023H10.17H10.1794Z" fill="white"/>
<path d="M37.0844 6.84587V14.7342H50.7293V20.8194H37.0844V28.7077H52.2506V34.7929H30.6611V0.76062H52.2506V6.84587H37.0844Z" fill="white"/>
<path d="M86.9682 29.3369C85.2872 31.3653 83.3057 32.9148 81.0238 33.976C78.7418 35.0371 76.1875 35.5724 73.3703 35.5724C70.8347 35.5724 68.4777 35.1123 66.3084 34.192C64.1391 33.2717 62.2609 32.0227 60.6739 30.4356C59.0868 28.8486 57.8379 26.9704 56.9176 24.8011C55.9973 22.6319 55.5371 20.2936 55.5371 17.7862C55.5371 15.2789 55.9973 12.9405 56.9176 10.7713C57.8379 8.60199 59.0868 6.72382 60.6739 5.13678C62.2609 3.54973 64.1391 2.30075 66.3084 1.38045C68.4777 0.46015 70.8347 0 73.3703 0C76.0936 0 78.4977 0.478932 80.573 1.4274C82.6484 2.37588 84.4984 3.75633 86.1136 5.56875L81.5966 9.94487C80.5824 8.77102 79.418 7.84133 78.1032 7.13702C76.7885 6.4421 75.2297 6.09464 73.4172 6.09464C71.8302 6.09464 70.3464 6.37636 68.9472 6.93042C67.548 7.48448 66.3365 8.27331 65.3129 9.28752C64.28 10.3017 63.463 11.5319 62.8619 12.9687C62.2609 14.4149 61.9604 16.0207 61.9604 17.7956C61.9604 19.5705 62.2609 21.1763 62.8619 22.6225C63.463 24.0687 64.28 25.2895 65.3129 26.3037C66.3459 27.3179 67.5574 28.1067 68.9472 28.6608C70.337 29.2148 71.8302 29.4966 73.4172 29.4966C75.3236 29.4966 77.0045 29.1115 78.4789 28.3321C79.9532 27.5527 81.2586 26.4539 82.4042 25.0265L86.9682 29.3557V29.3369Z" fill="white"/>
<path d="M102.557 0.76062H115.873C117.328 0.76062 118.69 0.995391 119.958 1.44615C121.226 1.9063 122.324 2.53548 123.263 3.35249C124.202 4.1601 124.935 5.10857 125.47 6.17912C126.006 7.25907 126.278 8.41413 126.278 9.65372C126.278 11.4568 125.846 12.9781 124.973 14.1989C124.099 15.4197 123.019 16.3494 121.714 16.9786V17.3542C123.461 17.9928 124.86 18.9788 125.921 20.3217C126.982 21.674 127.517 23.3455 127.517 25.3364C127.517 26.792 127.226 28.1067 126.635 29.2617C126.052 30.4168 125.245 31.4122 124.231 32.2292C123.216 33.0556 122.033 33.6848 120.69 34.1356C119.347 34.577 117.892 34.8023 116.342 34.8023H102.557V0.76062ZM115.403 14.6402C116.896 14.6402 118.042 14.2364 118.85 13.4288C119.657 12.6212 120.061 11.6634 120.061 10.5552C120.061 9.44713 119.667 8.49865 118.868 7.70043C118.08 6.9116 116.981 6.5078 115.591 6.5078H108.98V14.6402H115.403ZM116.108 28.9049C117.723 28.9049 118.962 28.5011 119.817 27.6935C120.672 26.8859 121.104 25.8435 121.104 24.5757C121.104 23.308 120.672 22.2562 119.798 21.411C118.925 20.5752 117.638 20.1527 115.92 20.1527H108.98V28.9049H116.117H116.108Z" fill="white"/>
<path d="M138.552 33.6661L128.757 11.5131H135.838L141.735 25.6369H142.064L147.727 11.5131H154.667L140.073 45.0853H133.368L138.552 33.6754V33.6661Z" fill="white"/>
<path d="M36.7655 90.699V81.025H69.1545C69.4835 82.733 69.6795 84.756 69.6795 86.954C69.6795 94.213 67.6915 103.194 61.3005 109.585C55.0845 116.067 47.1395 119.518 36.5975 119.518C17.0815 119.518 0.666504 103.621 0.666504 84.098C0.666504 64.575 17.0745 48.678 36.5975 48.678C47.3915 48.678 55.0775 52.913 60.8665 58.443L54.0415 65.268C49.8975 61.383 44.2835 58.359 36.5975 58.359C22.3455 58.359 11.2085 69.846 11.2085 84.105C11.2085 98.364 22.3525 109.851 36.5975 109.851C45.8375 109.851 51.1085 106.134 54.4755 102.767C57.2195 100.023 59.0255 96.082 59.7325 90.699H36.7725H36.7655Z" fill="white"/>
<path d="M119.023 96.719C119.023 109.851 108.747 119.525 96.1395 119.525C83.5325 119.525 73.2495 109.851 73.2495 96.719C73.2495 83.587 83.5255 73.913 96.1395 73.913C108.754 73.913 119.023 83.503 119.023 96.719ZM109.006 96.719C109.006 88.515 103.049 82.894 96.1395 82.894C89.2305 82.894 83.2735 88.508 83.2735 96.719C83.2735 104.93 89.2305 110.544 96.1395 110.544C103.049 110.544 109.006 104.846 109.006 96.719Z" fill="white"/>
<path d="M168.954 96.719C168.954 109.851 158.678 119.525 146.071 119.525C133.464 119.525 123.181 109.851 123.181 96.719C123.181 83.587 133.457 73.913 146.071 73.913C158.685 73.913 168.954 83.503 168.954 96.719ZM158.93 96.719C158.93 88.515 152.973 82.894 146.064 82.894C139.155 82.894 133.198 88.508 133.198 96.719C133.198 104.93 139.155 110.544 146.064 110.544C152.973 110.544 158.93 104.846 158.93 96.719Z" fill="white"/>
<path d="M216.805 75.292V116.242C216.805 133.091 206.872 140 195.126 140C184.073 140 177.423 132.573 174.917 126.525L183.64 122.899C185.194 126.616 188.994 131.019 195.126 131.019C202.637 131.019 207.307 126.357 207.307 117.628V114.345H206.963C204.716 117.11 200.397 119.525 194.958 119.525C183.555 119.525 173.104 109.592 173.104 96.803C173.104 84.014 183.555 73.913 194.958 73.913C200.397 73.913 204.716 76.335 206.963 79.009H207.307V75.292H216.805ZM208 96.803C208 88.767 202.645 82.894 195.82 82.894C188.995 82.894 183.121 88.767 183.121 96.803C183.121 104.839 188.911 110.537 195.82 110.537C202.729 110.537 208 104.748 208 96.803Z" fill="white"/>
<path d="M233.774 51.331V118.146H223.757V51.331H233.774Z" fill="white"/>
<path d="M272.462 104.237L280.232 109.417C277.726 113.134 271.685 119.525 261.234 119.525C248.277 119.525 238.61 109.501 238.61 96.719C238.61 83.153 248.368 73.913 260.114 73.913C271.86 73.913 277.733 83.328 279.63 88.424L280.666 91.014L250.181 103.628C252.512 108.206 256.138 110.537 261.234 110.537C266.33 110.537 269.872 108.031 272.462 104.23V104.237ZM248.536 96.026L268.92 87.563C267.8 84.714 264.426 82.726 260.457 82.726C255.361 82.726 248.277 87.22 248.536 96.033V96.026Z" fill="white"/>
</g>
<defs>
<clipPath id="clip0_28_450">
<rect width="280" height="140" fill="white" transform="translate(0.666504)"/>
</clipPath>
</defs>
</svg>
